<svg xmlns="http://www.w3.org/2000/svg" xmlns:xlink="http://www.w3.org/1999/xlink" contentStyleType="text/css" data-diagram-type="DESCRIPTION" height="518px" preserveAspectRatio="none" style="width:1123px;height:518px;background:#FFFFFF;" version="1.1" viewBox="0 0 1123 518" width="1123px" zoomAndPan="magnify"><defs/><g><!--cluster EmissionML Domain Model--><g class="cluster" data-entity="EmissionML Domain Model" data-source-line="20" data-uid="ent0002" id="cluster_EmissionML Domain Model"><rect fill="#D4E6F1" height="195.62" rx="2.5" ry="2.5" style="stroke:#2471A3;stroke-width:1;" width="1071" x="46" y="7"/><text fill="#000000" font-family="sans-serif" font-size="13" font-style="italic" lengthAdjust="spacing" textLength="60.9312" x="551.0344" y="21.5684">&#171;domain&#187;</text><text fill="#000000" font-family="sans-serif" font-size="13" font-weight="bold" lengthAdjust="spacing" textLength="180.5273" x="491.2363" y="36.8789">EmissionML Domain Model</text></g><!--cluster OGC / ISO Foundational Standards--><g class="cluster" data-entity="OGC . ISO Foundational Standards" data-source-line="32" data-uid="ent0012" id="cluster_OGC . ISO Foundational Standards"><rect fill="#FCF3CF" height="130.93" rx="2.5" ry="2.5" style="stroke:#B7950B;stroke-width:1;" width="392" x="256" y="226.62"/><text fill="#000000" font-family="sans-serif" font-size="13" font-style="italic" lengthAdjust="spacing" textLength="82.5576" x="410.7212" y="241.1884">&#171;foundation&#187;</text><text fill="#000000" font-family="sans-serif" font-size="13" font-weight="bold" lengthAdjust="spacing" textLength="230.896" x="336.552" y="256.4989">OGC / ISO Foundational Standards</text></g><!--cluster ISO Base Types--><g class="cluster" data-entity="ISO Base Types" data-source-line="37" data-uid="ent0015" id="cluster_ISO Base Types"><rect fill="#FADBD8" height="130.93" rx="2.5" ry="2.5" style="stroke:#CB4335;stroke-width:1;" width="694" x="253" y="381.55"/><text fill="#000000" font-family="sans-serif" font-size="13" font-style="italic" lengthAdjust="spacing" textLength="42.853" x="578.5735" y="396.1184">&#171;base&#187;</text><text fill="#000000" font-family="sans-serif" font-size="13" font-weight="bold" lengthAdjust="spacing" textLength="101.937" x="549.0315" y="411.4289">ISO Base Types</text></g><!--entity EE--><g class="entity" data-entity="EE" data-source-line="21" data-uid="ent0003" id="entity_EE"><rect fill="#F1F1F1" height="35.3105" rx="2.5" ry="2.5" style="stroke:#181818;stroke-width:0.5;" width="109.9526" x="62.02" y="56"/><text fill="#000000" font-family="sans-serif" font-size="13" lengthAdjust="spacing" textLength="89.9526" x="72.02" y="78.5684">EmissionEvent</text></g><!--entity F--><g class="entity" data-entity="F" data-source-line="22" data-uid="ent0004" id="entity_F"><rect fill="#F1F1F1" height="35.3105" rx="2.5" ry="2.5" style="stroke:#181818;stroke-width:0.5;" width="66.8838" x="554.56" y="151.31"/><text fill="#000000" font-family="sans-serif" font-size="13" lengthAdjust="spacing" textLength="46.8838" x="564.56" y="173.8784">Feature</text></g><!--entity S--><g class="entity" data-entity="S" data-source-line="23" data-uid="ent0005" id="entity_S"><rect fill="#F1F1F1" height="35.3105" rx="2.5" ry="2.5" style="stroke:#181818;stroke-width:0.5;" width="62.2754" x="556.86" y="56"/><text fill="#000000" font-family="sans-serif" font-size="13" lengthAdjust="spacing" textLength="42.2754" x="566.86" y="78.5684">Source</text></g><!--entity M--><g class="entity" data-entity="M" data-source-line="24" data-uid="ent0006" id="entity_M"><rect fill="#F1F1F1" height="35.3105" rx="2.5" ry="2.5" style="stroke:#181818;stroke-width:0.5;" width="90.9351" x="425.53" y="56"/><text fill="#000000" font-family="sans-serif" font-size="13" lengthAdjust="spacing" textLength="70.9351" x="435.53" y="78.5684">Mechanism</text></g><!--entity EQ--><g class="entity" data-entity="EQ" data-source-line="25" data-uid="ent0007" id="entity_EQ"><rect fill="#F1F1F1" height="35.3105" rx="2.5" ry="2.5" style="stroke:#181818;stroke-width:0.5;" width="129.6938" x="659.15" y="56"/><text fill="#000000" font-family="sans-serif" font-size="13" lengthAdjust="spacing" textLength="109.6938" x="669.15" y="78.5684">EmissionQuantity</text></g><!--entity TB--><g class="entity" data-entity="TB" data-source-line="26" data-uid="ent0008" id="entity_TB"><rect fill="#F1F1F1" height="35.3105" rx="2.5" ry="2.5" style="stroke:#181818;stroke-width:0.5;" width="119.8042" x="829.1" y="56"/><text fill="#000000" font-family="sans-serif" font-size="13" lengthAdjust="spacing" textLength="99.8042" x="839.1" y="78.5684">TemporalBound</text></g><!--entity DP--><g class="entity" data-entity="DP" data-source-line="27" data-uid="ent0009" id="entity_DP"><rect fill="#F1F1F1" height="35.3105" rx="2.5" ry="2.5" style="stroke:#181818;stroke-width:0.5;" width="173.4229" x="212.29" y="56"/><text fill="#000000" font-family="sans-serif" font-size="13" lengthAdjust="spacing" textLength="153.4229" x="222.29" y="78.5684">DeterminationProcedure</text></g><!--entity PR--><g class="entity" data-entity="PR" data-source-line="28" data-uid="ent0010" id="entity_PR"><rect fill="#F1F1F1" height="35.3105" rx="2.5" ry="2.5" style="stroke:#181818;stroke-width:0.5;" width="83.2036" x="283.4" y="151.31"/><text fill="#000000" font-family="sans-serif" font-size="13" lengthAdjust="spacing" textLength="63.2036" x="293.4" y="173.8784">Procedure</text></g><!--entity EI--><g class="entity" data-entity="EI" data-source-line="29" data-uid="ent0011" id="entity_EI"><rect fill="#F1F1F1" height="35.3105" rx="2.5" ry="2.5" style="stroke:#181818;stroke-width:0.5;" width="112.8535" x="988.57" y="56"/><text fill="#000000" font-family="sans-serif" font-size="13" lengthAdjust="spacing" textLength="92.8535" x="998.57" y="78.5684">EmissionIntent</text></g><!--entity GFM--><g class="entity" data-entity="GFM" data-source-line="33" data-uid="ent0013" id="entity_GFM"><rect fill="#F1F1F1" height="65.9316" rx="2.5" ry="2.5" style="stroke:#181818;stroke-width:0.5;" width="161.6797" x="470.16" y="275.62"/><text fill="#000000" font-family="sans-serif" font-size="13" lengthAdjust="spacing" textLength="66.0601" x="480.16" y="298.1884">ISO 19109</text><text fill="#000000" font-family="sans-serif" font-size="13" lengthAdjust="spacing" textLength="141.6797" x="480.16" y="313.4989">General Feature Model</text><text fill="#000000" font-family="sans-serif" font-size="13" lengthAdjust="spacing" textLength="55.3389" x="480.16" y="328.8095">(Feature)</text></g><!--entity OMS--><g class="entity" data-entity="OMS" data-source-line="34" data-uid="ent0014" id="entity_OMS"><rect fill="#F1F1F1" height="65.9316" rx="2.5" ry="2.5" style="stroke:#181818;stroke-width:0.5;" width="158.3599" x="271.82" y="275.62"/><text fill="#000000" font-family="sans-serif" font-size="13" lengthAdjust="spacing" textLength="138.3599" x="281.82" y="298.1884">ISO/OGC 19156:2023</text><text fill="#000000" font-family="sans-serif" font-size="13" lengthAdjust="spacing" textLength="52.9648" x="281.82" y="313.4989">OMS 3.0</text><text fill="#000000" font-family="sans-serif" font-size="13" lengthAdjust="spacing" textLength="84.5063" x="281.82" y="328.8095">(Observation)</text></g><!--entity ISO19103--><g class="entity" data-entity="ISO19103" data-source-line="38" data-uid="ent0016" id="entity_ISO19103"><rect fill="#F1F1F1" height="65.9316" rx="2.5" ry="2.5" style="stroke:#181818;stroke-width:0.5;" width="190.2188" x="268.89" y="430.55"/><text fill="#000000" font-family="sans-serif" font-size="13" lengthAdjust="spacing" textLength="66.0601" x="278.89" y="453.1184">ISO 19103</text><text fill="#000000" font-family="sans-serif" font-size="13" lengthAdjust="spacing" textLength="123.3984" x="278.89" y="468.4289">Conceptual Schema</text><text fill="#000000" font-family="sans-serif" font-size="13" lengthAdjust="spacing" textLength="170.2188" x="278.89" y="483.7395">(CharacterString, Real, URI)</text></g><!--entity ISO19107--><g class="entity" data-entity="ISO19107" data-source-line="39" data-uid="ent0017" id="entity_ISO19107"><rect fill="#F1F1F1" height="65.9316" rx="2.5" ry="2.5" style="stroke:#181818;stroke-width:0.5;" width="114.3198" x="644.84" y="430.55"/><text fill="#000000" font-family="sans-serif" font-size="13" lengthAdjust="spacing" textLength="66.0601" x="654.84" y="453.1184">ISO 19107</text><text fill="#000000" font-family="sans-serif" font-size="13" lengthAdjust="spacing" textLength="94.3198" x="654.84" y="468.4289">Spatial Schema</text><text fill="#000000" font-family="sans-serif" font-size="13" lengthAdjust="spacing" textLength="76.5464" x="654.84" y="483.7395">(GM_Object)</text></g><!--entity ISO19108--><g class="entity" data-entity="ISO19108" data-source-line="40" data-uid="ent0018" id="entity_ISO19108"><rect fill="#F1F1F1" height="65.9316" rx="2.5" ry="2.5" style="stroke:#181818;stroke-width:0.5;" width="132.4233" x="798.79" y="430.55"/><text fill="#000000" font-family="sans-serif" font-size="13" lengthAdjust="spacing" textLength="66.0601" x="808.79" y="453.1184">ISO 19108</text><text fill="#000000" font-family="sans-serif" font-size="13" lengthAdjust="spacing" textLength="112.4233" x="808.79" y="468.4289">Temporal Schema</text><text fill="#000000" font-family="sans-serif" font-size="13" lengthAdjust="spacing" textLength="77.7842" x="808.79" y="483.7395">(TM_Instant)</text></g><!--entity ISO19157--><g class="entity" data-entity="ISO19157" data-source-line="41" data-uid="ent0019" id="entity_ISO19157"><rect fill="#F1F1F1" height="65.9316" rx="2.5" ry="2.5" style="stroke:#181818;stroke-width:0.5;" width="105.1475" x="499.43" y="430.55"/><text fill="#000000" font-family="sans-serif" font-size="13" lengthAdjust="spacing" textLength="66.0601" x="509.43" y="453.1184">ISO 19157</text><text fill="#000000" font-family="sans-serif" font-size="13" lengthAdjust="spacing" textLength="77.5874" x="509.43" y="468.4289">Data Quality</text><text fill="#000000" font-family="sans-serif" font-size="13" lengthAdjust="spacing" textLength="85.1475" x="509.43" y="483.7395">(DQ_Element)</text></g><!--link F to GFM--><g class="link" data-entity-1="F" data-entity-2="GFM" data-source-line="45" data-uid="lnk20" id="link_F_GFM"><path d="M588,186.93 C588,209.17 588,241.5 588,269.2" fill="none" id="F-to-GFM" style="stroke:#2471A3;stroke-width:2;"/><polygon fill="#2471A3" points="588,275.2,592,266.2,588,270.2,584,266.2,588,275.2" style="stroke:#2471A3;stroke-width:2;"/><text fill="#000000" font-family="sans-serif" font-size="13" lengthAdjust="spacing" textLength="47.6519" x="593.1133" y="227.6284">profiles</text></g><!--link S to F--><g class="link" data-entity-1="S" data-entity-2="F" data-source-line="46" data-uid="lnk21" id="link_S_F"><path d="M588,91.58 C588,108.62 588,128.1 588,145.11" fill="none" id="S-to-F" style="stroke:#2471A3;stroke-width:2;"/><polygon fill="#2471A3" points="588,151.11,592,142.11,588,146.11,584,142.11,588,151.11" style="stroke:#2471A3;stroke-width:2;"/><text fill="#000000" font-family="sans-serif" font-size="13" lengthAdjust="spacing" textLength="47.7026" x="540.1133" y="117.9184">inherits</text></g><!--link EE to OMS--><g class="link" data-entity-1="EE" data-entity-2="OMS" data-source-line="47" data-uid="lnk22" id="link_EE_OMS"><path d="M117,91.69 C117,146.68 117,308.48 117,308.48 C117,308.48 197.61,308.48 265.45,308.48" fill="none" id="EE-to-OMS" style="stroke:#2471A3;stroke-width:2;"/><polygon fill="#2471A3" points="271.45,308.48,262.45,304.48,266.45,308.48,262.45,312.48,271.45,308.48" style="stroke:#2471A3;stroke-width:2;"/><text fill="#000000" font-family="sans-serif" font-size="13" lengthAdjust="spacing" textLength="105.7202" x="11.1133" y="273.8784">uses as evidence</text></g><!--link DP to PR--><g class="link" data-entity-1="DP" data-entity-2="PR" data-source-line="48" data-uid="lnk23" id="link_DP_PR"><path d="M325,91.58 C325,108.62 325,128.1 325,145.11" fill="none" id="DP-to-PR" style="stroke:#2471A3;stroke-width:2;"/><polygon fill="#2471A3" points="325,151.11,329,142.11,325,146.11,321,142.11,325,151.11" style="stroke:#2471A3;stroke-width:2;"/><text fill="#000000" font-family="sans-serif" font-size="13" lengthAdjust="spacing" textLength="47.7026" x="277.1133" y="117.9184">inherits</text></g><!--link PR to OMS--><g class="link" data-entity-1="PR" data-entity-2="OMS" data-source-line="49" data-uid="lnk24" id="link_PR_OMS"><path d="M325,186.93 C325,209.17 325,241.5 325,269.2" fill="none" id="PR-to-OMS" style="stroke:#2471A3;stroke-width:2;"/><polygon fill="#2471A3" points="325,275.2,329,266.2,325,270.2,321,266.2,325,275.2" style="stroke:#2471A3;stroke-width:2;"/><text fill="#000000" font-family="sans-serif" font-size="13" lengthAdjust="spacing" textLength="47.6519" x="277.1133" y="227.6284">profiles</text></g><!--link GFM to ISO19107--><g class="link" data-entity-1="GFM" data-entity-2="ISO19107" data-source-line="52" data-uid="lnk25" id="link_GFM_ISO19107"><path d="M631.98,308.48 C642.45,308.48 649.61,308.48 649.61,308.48 C649.61,308.48 649.61,378.7 649.61,424.26" fill="none" id="GFM-to-ISO19107" style="stroke:#B7950B;stroke-width:1;"/><polygon fill="#B7950B" points="649.61,430.26,653.61,421.26,649.61,425.26,645.61,421.26,649.61,430.26" style="stroke:#B7950B;stroke-width:1;"/></g><!--link GFM to ISO19103--><g class="link" data-entity-1="GFM" data-entity-2="ISO19103" data-source-line="53" data-uid="lnk26" id="link_GFM_ISO19103"><path d="M484.79,341.76 C484.79,390.17 484.79,474.48 484.79,474.48 C484.79,474.48 480.29,474.48 465.47,474.48" fill="none" id="GFM-to-ISO19103" style="stroke:#B7950B;stroke-width:1;"/><polygon fill="#B7950B" points="459.47,474.48,468.47,478.48,464.47,474.48,468.47,470.48,459.47,474.48" style="stroke:#B7950B;stroke-width:1;"/></g><!--link OMS to ISO19108--><g class="link" data-entity-1="OMS" data-entity-2="ISO19108" data-source-line="54" data-uid="lnk27" id="link_OMS_ISO19108"><path d="M377.39,341.62 C377.39,362.85 377.39,386.48 377.39,386.48 C377.39,386.48 813.94,386.48 813.94,386.48 C813.94,386.48 813.94,403.52 813.94,424.4" fill="none" id="OMS-to-ISO19108" style="stroke:#B7950B;stroke-width:1;"/><polygon fill="#B7950B" points="813.94,430.4,817.94,421.4,813.94,425.4,809.94,421.4,813.94,430.4" style="stroke:#B7950B;stroke-width:1;"/></g><!--link OMS to ISO19103--><g class="link" data-entity-1="OMS" data-entity-2="ISO19103" data-source-line="55" data-uid="lnk28" id="link_OMS_ISO19103"><path d="M324.61,341.82 C324.61,367.87 324.61,397.96 324.61,424.07" fill="none" id="OMS-to-ISO19103" style="stroke:#B7950B;stroke-width:1;"/><polygon fill="#B7950B" points="324.61,430.07,328.61,421.07,324.61,425.07,320.61,421.07,324.61,430.07" style="stroke:#B7950B;stroke-width:1;"/></g><!--link OMS to ISO19157--><g class="link" data-entity-1="OMS" data-entity-2="ISO19157" data-source-line="56" data-uid="lnk29" id="link_OMS_ISO19157"><path d="M430.54,308.48 C449.64,308.48 464.63,308.48 464.63,308.48 C464.63,308.48 464.63,452.48 464.63,452.48 C464.63,452.48 474.77,452.48 493.16,452.48" fill="none" id="OMS-to-ISO19157" style="stroke:#B7950B;stroke-width:1;"/><polygon fill="#B7950B" points="499.16,452.48,490.16,448.48,494.16,452.48,490.16,456.48,499.16,452.48" style="stroke:#B7950B;stroke-width:1;"/></g><!--link F to ISO19107--><g class="link" data-entity-1="F" data-entity-2="ISO19107" data-source-line="59" data-uid="lnk30" id="link_F_ISO19107"><path d="M621.58,168.48 C638.04,168.48 654.38,168.48 654.38,168.48 C654.38,168.48 654.38,347.08 654.38,424.24" fill="none" id="F-to-ISO19107" style="stroke:#999999;stroke-width:1;stroke-dasharray:7,7;"/><polygon fill="#999999" points="654.38,430.24,658.38,421.24,654.38,425.24,650.38,421.24,654.38,430.24" style="stroke:#999999;stroke-width:1;"/><text fill="#000000" font-family="sans-serif" font-size="13" lengthAdjust="spacing" textLength="59.687" x="659.4933" y="279.5284">geometry</text></g><!--link TB to ISO19108--><g class="link" data-entity-1="TB" data-entity-2="ISO19108" data-source-line="60" data-uid="lnk31" id="link_TB_ISO19108"><path d="M880.15,91.67 C880.15,152.47 880.15,344.66 880.15,424.12" fill="none" id="TB-to-ISO19108" style="stroke:#999999;stroke-width:1;stroke-dasharray:7,7;"/><polygon fill="#999999" points="880.15,430.12,884.15,421.12,880.15,425.12,876.15,421.12,880.15,430.12" style="stroke:#999999;stroke-width:1;"/><text fill="#000000" font-family="sans-serif" font-size="13" lengthAdjust="spacing" textLength="27.9995" x="851.2633" y="257.4684">time</text></g><!--link EQ to ISO19157--><g class="link" data-entity-1="EQ" data-entity-2="ISO19157" data-source-line="61" data-uid="lnk32" id="link_EQ_ISO19157"><path d="M659.08,73.48 C647.13,73.48 638.34,73.48 638.34,73.48 C638.34,73.48 638.34,463.48 638.34,463.48 C638.34,463.48 628.69,463.48 610.71,463.48" fill="none" id="EQ-to-ISO19157" style="stroke:#999999;stroke-width:1;stroke-dasharray:7,7;"/><polygon fill="#999999" points="604.71,463.48,613.71,467.48,609.71,463.48,613.71,459.48,604.71,463.48" style="stroke:#999999;stroke-width:1;"/><text fill="#000000" font-family="sans-serif" font-size="13" lengthAdjust="spacing" textLength="42.5991" x="595.4533" y="271.4984">quality</text></g><!--SRC=[VLJRRjf047ttLupeGrg9D5m3YQ98CROHKX4GqwTIHOizW9lrBjrTejAg_zvPEmIRcEQ9-9mvCtlcSW4FGk0lSE4I1b94k3Kxne6pFQf4h46km4yJhHCfnbz02XY5awl9S03QC14p5Ml7qS-9s3B5KeXnnNRS15AOCFcDq6mNm2sBdjaQGxFd20eZ4bXpB11u8j3ijmXIcOqi04B6g74BdKRXesBYsNwyRhpFCMLnRAjlDPpt8Fnn05pwlLPo9-A1v5BTtSKoPOculuSFNiU_3fgM8rMCwXtUwlIQ3-qgZPNzpGnvPNd186WFWbETCiVjtNGRRfNMacdCL1uyr-kVgXpGWTjfjxk47YtlE7yTv_3KMg5vNlO269EPl0Q55ra_tlfn3F5VK9WQC0s-NsO4oCnEOOO5PIYKEnNbI5X6nXXjc4Xqce7Zwfop7HCcCViyxQnCccEwbOfnrzgKCUPkcU6XGPKc8lDtgcI4yQ5ERrgcbj7fOtKz8s7UJ1YLZBKxS6MtWQm_T9GM9poiXNMurEiJbsraywRPk5c88GgaPy6hhNc75kBZw_-VilJ3OFnE85j44kbUtxOQhVP2JCOXj3ytA7QorAXUijnvF46b-cr-bwO8vhHnMRMlCtMcJb8lt8Smsc3AACzWGwiLaUkXiVUY3e_8U1s-Fexoj1IUHLUBzXOYt5AHHSNX-6co_47Saa2lMg2_48UfE2hCnqyZOUzJMQ9VAT6b6Znc6D3eSPeyYlTcJpx75ClntPxrx-AmHijTmcDjB-AgsF_ZMGpWyjlhhQWl9O-_NzxR9i8jr62hv2hXPBiJLh22Z9E83PrWGnpVho3PLblQJgEsHU9B4YFrf-PuqmhwzF54b3wS5ptMHmyEAjzd4uCT6R0dMplsQIIO7pIhzTQuSqZRiUcgaFvPv6mCTUVOcuWpdTd2jJof4-B4pW3Vv_svoVxgCTCRZ8jLPpQiKQPerBxcpDt_iViPsoGfkU_F_iFivhe_yr6hEVy0]--></g></svg>