<svg xmlns="http://www.w3.org/2000/svg" xmlns:xlink="http://www.w3.org/1999/xlink" contentStyleType="text/css" data-diagram-type="CLASS" height="711px" preserveAspectRatio="none" style="width:1586px;height:711px;background:#FFFFFF;" version="1.1" viewBox="0 0 1586 711" width="1586px" zoomAndPan="magnify"><defs/><g><!--class Source--><g class="entity" data-entity="Source" data-source-line="12" data-uid="ent0002" id="entity_Source"><rect fill="#F1F1F1" height="66.9551" rx="2.5" ry="2.5" style="stroke:#181818;stroke-width:0.5;" width="180.8623" x="7" y="60.33"/><ellipse cx="72.2954" cy="76.33" fill="#ADD1B2" rx="11" ry="11" style="stroke:#181818;stroke-width:1;"/><path d="M74.7686,82.4731 Q74.1875,82.7719 73.5483,82.9213 Q72.9092,83.0707 72.2036,83.0707 Q69.6968,83.0707 68.377,81.4189 Q67.0571,79.767 67.0571,76.6459 Q67.0571,73.5165 68.377,71.8647 Q69.6968,70.2128 72.2036,70.2128 Q72.9092,70.2128 73.5566,70.3622 Q74.2041,70.5116 74.7686,70.8105 L74.7686,73.5331 Q74.1377,72.9521 73.5442,72.6823 Q72.9507,72.4125 72.3198,72.4125 Q70.9751,72.4125 70.2903,73.4792 Q69.6055,74.5458 69.6055,76.6459 Q69.6055,78.7377 70.2903,79.8044 Q70.9751,80.871 72.3198,80.871 Q72.9507,80.871 73.5442,80.6012 Q74.1377,80.3315 74.7686,79.7504 Z " fill="#000000"/><text fill="#000000" font-family="sans-serif" font-size="11" lengthAdjust="spacing" textLength="35.7715" x="95.7954" y="80.4872">Source</text><line style="stroke:#181818;stroke-width:0.5;" x1="8" x2="186.8623" y1="92.33" y2="92.33"/><text fill="#000000" font-family="sans-serif" font-size="11" lengthAdjust="spacing" textLength="162.8623" x="16" y="109.9648">+name : CharacterString [0..1]</text><line style="stroke:#181818;stroke-width:0.5;" x1="8" x2="186.8623" y1="119.2851" y2="119.2851"/></g><!--class SourceType--><g class="entity" data-entity="SourceType" data-source-line="16" data-uid="ent0003" id="entity_SourceType"><rect fill="#F1F1F1" height="104.8652" rx="2.5" ry="2.5" style="stroke:#181818;stroke-width:0.5;" width="211.3379" x="262.76" y="41.37"/><ellipse cx="330.416" cy="57.37" fill="#ADD1B2" rx="11" ry="11" style="stroke:#181818;stroke-width:1;"/><path d="M332.8892,63.5131 Q332.3081,63.8119 331.6689,63.9613 Q331.0298,64.1107 330.3242,64.1107 Q327.8174,64.1107 326.4975,62.4589 Q325.1777,60.807 325.1777,57.6859 Q325.1777,54.5565 326.4975,52.9047 Q327.8174,51.2528 330.3242,51.2528 Q331.0298,51.2528 331.6772,51.4022 Q332.3247,51.5516 332.8892,51.8505 L332.8892,54.5731 Q332.2583,53.9921 331.6648,53.7223 Q331.0713,53.4525 330.4404,53.4525 Q329.0957,53.4525 328.4109,54.5192 Q327.7261,55.5858 327.7261,57.6859 Q327.7261,59.7777 328.4109,60.8444 Q329.0957,61.911 330.4404,61.911 Q331.0713,61.911 331.6648,61.6412 Q332.2583,61.3715 332.8892,60.7904 Z " fill="#000000"/><text fill="#000000" font-family="sans-serif" font-size="11" lengthAdjust="spacing" textLength="61.5259" x="353.916" y="61.5272">SourceType</text><line style="stroke:#181818;stroke-width:0.5;" x1="263.76" x2="473.0979" y1="73.37" y2="73.37"/><text fill="#000000" font-family="sans-serif" font-size="11" lengthAdjust="spacing" textLength="127.542" x="271.76" y="91.0048">+label : CharacterString</text><text fill="#000000" font-family="sans-serif" font-size="11" lengthAdjust="spacing" textLength="193.3379" x="271.76" y="109.9598">+description : CharacterString [0..1]</text><text fill="#000000" font-family="sans-serif" font-size="11" lengthAdjust="spacing" textLength="88.0913" x="271.76" y="128.9149">+definition : URI</text><line style="stroke:#181818;stroke-width:0.5;" x1="263.76" x2="473.0979" y1="138.2352" y2="138.2352"/></g><!--class TemporalBound--><g class="entity" data-entity="TemporalBound" data-source-line="22" data-uid="ent0004" id="entity_TemporalBound"><rect fill="#F1F1F1" height="85.9102" rx="2.5" ry="2.5" style="stroke:#181818;stroke-width:0.5;" width="167.9771" x="514.44" y="50.85"/><ellipse cx="549.9273" cy="66.85" fill="#ADD1B2" rx="11" ry="11" style="stroke:#181818;stroke-width:1;"/><path d="M552.4004,72.9931 Q551.8194,73.2919 551.1802,73.4413 Q550.5411,73.5907 549.8355,73.5907 Q547.3287,73.5907 546.0088,71.9389 Q544.689,70.287 544.689,67.1659 Q544.689,64.0365 546.0088,62.3847 Q547.3287,60.7328 549.8355,60.7328 Q550.5411,60.7328 551.1885,60.8822 Q551.836,61.0316 552.4004,61.3305 L552.4004,64.0531 Q551.7696,63.4721 551.1761,63.2023 Q550.5826,62.9325 549.9517,62.9325 Q548.607,62.9325 547.9222,63.9992 Q547.2374,65.0658 547.2374,67.1659 Q547.2374,69.2577 547.9222,70.3244 Q548.607,71.391 549.9517,71.391 Q550.5826,71.391 551.1761,71.1212 Q551.7696,70.8515 552.4004,70.2704 Z " fill="#000000"/><text fill="#000000" font-family="sans-serif" font-size="11" lengthAdjust="spacing" textLength="84.4497" x="571.48" y="71.0072">TemporalBound</text><line style="stroke:#181818;stroke-width:0.5;" x1="515.44" x2="681.4171" y1="82.85" y2="82.85"/><text fill="#000000" font-family="sans-serif" font-size="11" lengthAdjust="spacing" textLength="133.0474" x="523.44" y="100.4848">+time : TM_Instant [0..1]</text><text fill="#000000" font-family="sans-serif" font-size="11" lengthAdjust="spacing" textLength="149.9771" x="523.44" y="119.4398">+quality : DQ_Element [0..*]</text><line style="stroke:#181818;stroke-width:0.5;" x1="515.44" x2="681.4171" y1="128.7602" y2="128.7602"/></g><!--class TemporalStatus--><g class="entity" data-entity="TemporalStatus" data-source-line="27" data-uid="ent0005" id="entity_TemporalStatus"><rect fill="#F1F1F1" height="121.9531" rx="2.5" ry="2.5" style="stroke:#181818;stroke-width:0.5;" width="121.4507" x="767.71" y="32.83"/><ellipse cx="782.71" cy="57.3739" fill="#ADD1B2" rx="11" ry="11" style="stroke:#181818;stroke-width:1;"/><path d="M785.1831,63.517 Q784.6021,63.8158 783.9629,63.9653 Q783.3238,64.1147 782.6182,64.1147 Q780.1114,64.1147 778.7915,62.4628 Q777.4717,60.811 777.4717,57.6899 Q777.4717,54.5605 778.7915,52.9086 Q780.1114,51.2568 782.6182,51.2568 Q783.3238,51.2568 783.9712,51.4062 Q784.6187,51.5556 785.1831,51.8544 L785.1831,54.5771 Q784.5523,53.996 783.9588,53.7262 Q783.3653,53.4565 782.7344,53.4565 Q781.3897,53.4565 780.7049,54.5231 Q780.0201,55.5898 780.0201,57.6899 Q780.0201,59.7817 780.7049,60.8483 Q781.3897,61.915 782.7344,61.915 Q783.3653,61.915 783.9588,61.6452 Q784.5523,61.3754 785.1831,60.7944 Z " fill="#000000"/><text fill="#000000" font-family="sans-serif" font-size="12" font-style="italic" lengthAdjust="spacing" textLength="62.959" x="809.9558" y="52.4316">&#171;CodeList&#187;</text><text fill="#000000" font-family="sans-serif" font-size="11" lengthAdjust="spacing" textLength="83.4507" x="799.71" y="71.5976">TemporalStatus</text><line style="stroke:#181818;stroke-width:0.5;" x1="768.71" x2="888.1607" y1="81.9179" y2="81.9179"/><text fill="#000000" font-family="sans-serif" font-size="11" lengthAdjust="spacing" textLength="35.3149" x="776.71" y="99.5527">known</text><text fill="#000000" font-family="sans-serif" font-size="11" lengthAdjust="spacing" textLength="48.9683" x="776.71" y="118.5077">unknown</text><text fill="#000000" font-family="sans-serif" font-size="11" lengthAdjust="spacing" textLength="44.0645" x="776.71" y="137.4628">ongoing</text><line style="stroke:#181818;stroke-width:0.5;" x1="768.71" x2="888.1607" y1="146.7831" y2="146.7831"/></g><!--class EmissionQuantity--><g class="entity" data-entity="EmissionQuantity" data-source-line="33" data-uid="ent0006" id="entity_EmissionQuantity"><rect fill="#F1F1F1" height="85.9102" rx="2.5" ry="2.5" style="stroke:#181818;stroke-width:0.5;" width="167.9771" x="929.44" y="50.85"/><ellipse cx="961.1616" cy="66.85" fill="#ADD1B2" rx="11" ry="11" style="stroke:#181818;stroke-width:1;"/><path d="M963.6348,72.9931 Q963.0537,73.2919 962.4146,73.4413 Q961.7754,73.5907 961.0698,73.5907 Q958.563,73.5907 957.2432,71.9389 Q955.9233,70.287 955.9233,67.1659 Q955.9233,64.0365 957.2432,62.3847 Q958.563,60.7328 961.0698,60.7328 Q961.7754,60.7328 962.4229,60.8822 Q963.0703,61.0316 963.6348,61.3305 L963.6348,64.0531 Q963.0039,63.4721 962.4104,63.2023 Q961.8169,62.9325 961.186,62.9325 Q959.8413,62.9325 959.1565,63.9992 Q958.4717,65.0658 958.4717,67.1659 Q958.4717,69.2577 959.1565,70.3244 Q959.8413,71.391 961.186,71.391 Q961.8169,71.391 962.4104,71.1212 Q963.0039,70.8515 963.6348,70.2704 Z " fill="#000000"/><text fill="#000000" font-family="sans-serif" font-size="11" lengthAdjust="spacing" textLength="92.8179" x="981.8775" y="71.0072">EmissionQuantity</text><line style="stroke:#181818;stroke-width:0.5;" x1="930.44" x2="1096.4171" y1="82.85" y2="82.85"/><text fill="#000000" font-family="sans-serif" font-size="11" lengthAdjust="spacing" textLength="69.4268" x="938.44" y="100.4848">+value : Real</text><text fill="#000000" font-family="sans-serif" font-size="11" lengthAdjust="spacing" textLength="149.9771" x="938.44" y="119.4398">+quality : DQ_Element [0..*]</text><line style="stroke:#181818;stroke-width:0.5;" x1="930.44" x2="1096.4171" y1="128.7602" y2="128.7602"/></g><!--class Mechanism--><g class="entity" data-entity="Mechanism" data-source-line="38" data-uid="ent0007" id="entity_Mechanism"><rect fill="#F1F1F1" height="85.9102" rx="2.5" ry="2.5" style="stroke:#181818;stroke-width:0.5;" width="211.3379" x="1367.76" y="50.85"/><ellipse cx="1436.168" cy="66.85" fill="#ADD1B2" rx="11" ry="11" style="stroke:#181818;stroke-width:1;"/><path d="M1438.6411,72.9931 Q1438.06,73.2919 1437.4209,73.4413 Q1436.7817,73.5907 1436.0762,73.5907 Q1433.5693,73.5907 1432.2495,71.9389 Q1430.9297,70.287 1430.9297,67.1659 Q1430.9297,64.0365 1432.2495,62.3847 Q1433.5693,60.7328 1436.0762,60.7328 Q1436.7817,60.7328 1437.4292,60.8822 Q1438.0767,61.0316 1438.6411,61.3305 L1438.6411,64.0531 Q1438.0102,63.4721 1437.4167,63.2023 Q1436.8232,62.9325 1436.1924,62.9325 Q1434.8476,62.9325 1434.1628,63.9992 Q1433.478,65.0658 1433.478,67.1659 Q1433.478,69.2577 1434.1628,70.3244 Q1434.8476,71.391 1436.1924,71.391 Q1436.8232,71.391 1437.4167,71.1212 Q1438.0102,70.8515 1438.6411,70.2704 Z " fill="#000000"/><text fill="#000000" font-family="sans-serif" font-size="11" lengthAdjust="spacing" textLength="60.022" x="1459.668" y="71.0072">Mechanism</text><line style="stroke:#181818;stroke-width:0.5;" x1="1368.76" x2="1578.0979" y1="82.85" y2="82.85"/><text fill="#000000" font-family="sans-serif" font-size="11" lengthAdjust="spacing" textLength="127.542" x="1376.76" y="100.4848">+label : CharacterString</text><text fill="#000000" font-family="sans-serif" font-size="11" lengthAdjust="spacing" textLength="193.3379" x="1376.76" y="119.4398">+description : CharacterString [0..1]</text><line style="stroke:#181818;stroke-width:0.5;" x1="1368.76" x2="1578.0979" y1="128.7602" y2="128.7602"/></g><!--class UnitOfMeasure--><g class="entity" data-entity="UnitOfMeasure" data-source-line="46" data-uid="ent0011" id="entity_UnitOfMeasure"><rect fill="#F1F1F1" height="104.8652" rx="2.5" ry="2.5" style="stroke:#181818;stroke-width:0.5;" width="158.54" x="1169.16" y="41.37"/><ellipse cx="1202.8201" cy="57.37" fill="#ADD1B2" rx="11" ry="11" style="stroke:#181818;stroke-width:1;"/><path d="M1205.2932,63.5131 Q1204.7121,63.8119 1204.073,63.9613 Q1203.4338,64.1107 1202.7283,64.1107 Q1200.2214,64.1107 1198.9016,62.4589 Q1197.5818,60.807 1197.5818,57.6859 Q1197.5818,54.5565 1198.9016,52.9047 Q1200.2214,51.2528 1202.7283,51.2528 Q1203.4338,51.2528 1204.0813,51.4022 Q1204.7288,51.5516 1205.2932,51.8505 L1205.2932,54.5731 Q1204.6623,53.9921 1204.0688,53.7223 Q1203.4753,53.4525 1202.8445,53.4525 Q1201.4997,53.4525 1200.8149,54.5192 Q1200.1301,55.5858 1200.1301,57.6859 Q1200.1301,59.7777 1200.8149,60.8444 Q1201.4997,61.911 1202.8445,61.911 Q1203.4753,61.911 1204.0688,61.6412 Q1204.6623,61.3715 1205.2932,60.7904 Z " fill="#000000"/><text fill="#000000" font-family="sans-serif" font-size="11" lengthAdjust="spacing" textLength="79.0732" x="1223.9667" y="61.5272">UnitOfMeasure</text><line style="stroke:#181818;stroke-width:0.5;" x1="1170.16" x2="1326.7" y1="73.37" y2="73.37"/><text fill="#000000" font-family="sans-serif" font-size="11" lengthAdjust="spacing" textLength="127.542" x="1178.16" y="91.0048">+label : CharacterString</text><text fill="#000000" font-family="sans-serif" font-size="11" lengthAdjust="spacing" textLength="140.54" x="1178.16" y="109.9598">+symbol : CharacterString</text><text fill="#000000" font-family="sans-serif" font-size="11" lengthAdjust="spacing" textLength="88.0913" x="1178.16" y="128.9149">+definition : URI</text><line style="stroke:#181818;stroke-width:0.5;" x1="1170.16" x2="1326.7" y1="138.2352" y2="138.2352"/></g><!--class EmissionEvent--><g class="entity" data-entity="EmissionEvent" data-source-line="50" data-uid="ent0014" id="entity_EmissionEvent"><rect fill="#F1F1F1" height="66.9551" rx="2.5" ry="2.5" style="stroke:#181818;stroke-width:0.5;" width="128.6821" x="688.09" y="255.28"/><ellipse cx="709.6458" cy="271.28" fill="#ADD1B2" rx="11" ry="11" style="stroke:#181818;stroke-width:1;"/><path d="M712.1189,277.4231 Q711.5379,277.7219 710.8987,277.8713 Q710.2595,278.0207 709.554,278.0207 Q707.0471,278.0207 705.7273,276.3689 Q704.4075,274.717 704.4075,271.5959 Q704.4075,268.4665 705.7273,266.8147 Q707.0471,265.1628 709.554,265.1628 Q710.2595,265.1628 710.907,265.3122 Q711.5545,265.4616 712.1189,265.7605 L712.1189,268.4831 Q711.488,267.9021 710.8945,267.6323 Q710.301,267.3625 709.6702,267.3625 Q708.3254,267.3625 707.6406,268.4292 Q706.9558,269.4958 706.9558,271.5959 Q706.9558,273.6877 707.6406,274.7544 Q708.3254,275.821 709.6702,275.821 Q710.301,275.821 710.8945,275.5512 Q711.488,275.2815 712.1189,274.7004 Z " fill="#000000"/><text fill="#000000" font-family="sans-serif" font-size="11" lengthAdjust="spacing" textLength="76.1138" x="728.1026" y="275.4372">EmissionEvent</text><line style="stroke:#181818;stroke-width:0.5;" x1="689.09" x2="815.7721" y1="287.28" y2="287.28"/><text fill="#000000" font-family="sans-serif" font-size="11" lengthAdjust="spacing" textLength="110.6821" x="697.09" y="304.9148">+pollutantType : URI</text><line style="stroke:#181818;stroke-width:0.5;" x1="689.09" x2="815.7721" y1="314.2351" y2="314.2351"/></g><!--class Observation--><g class="entity" data-entity="Observation" data-source-line="55" data-uid="ent0015" id="entity_Observation"><rect fill="#F1F1F1" height="65.0879" rx="2.5" ry="2.5" style="stroke:#181818;stroke-width:0.5;" width="141.7012" x="434.58" y="503.67"/><ellipse cx="449.58" cy="528.2139" fill="#ADD1B2" rx="11" ry="11" style="stroke:#181818;stroke-width:1;"/><path d="M452.0531,534.357 Q451.4721,534.6558 450.8329,534.8053 Q450.1938,534.9547 449.4882,534.9547 Q446.9814,534.9547 445.6615,533.3028 Q444.3417,531.651 444.3417,528.5299 Q444.3417,525.4005 445.6615,523.7486 Q446.9814,522.0968 449.4882,522.0968 Q450.1938,522.0968 450.8412,522.2462 Q451.4887,522.3956 452.0531,522.6944 L452.0531,525.4171 Q451.4223,524.836 450.8288,524.5662 Q450.2353,524.2965 449.6044,524.2965 Q448.2597,524.2965 447.5749,525.3631 Q446.8901,526.4298 446.8901,528.5299 Q446.8901,530.6217 447.5749,531.6883 Q448.2597,532.755 449.6044,532.755 Q450.2353,532.755 450.8288,532.4852 Q451.4223,532.2154 452.0531,531.6344 Z " fill="#000000"/><text fill="#000000" font-family="sans-serif" font-size="12" font-style="italic" lengthAdjust="spacing" textLength="107.7012" x="464.58" y="523.2716">&#171;ISO 19156:2023&#187;</text><text fill="#000000" font-family="sans-serif" font-size="11" lengthAdjust="spacing" textLength="64.3511" x="486.255" y="542.4376">Observation</text><line style="stroke:#181818;stroke-width:0.5;" x1="435.58" x2="575.2812" y1="552.7579" y2="552.7579"/><line style="stroke:#181818;stroke-width:0.5;" x1="435.58" x2="575.2812" y1="560.7579" y2="560.7579"/></g><!--class DeterminationProcedure--><g class="entity" data-entity="DeterminationProcedure" data-source-line="58" data-uid="ent0016" id="entity_DeterminationProcedure"><rect fill="#F1F1F1" height="104.8652" rx="2.5" ry="2.5" style="stroke:#181818;stroke-width:0.5;" width="211.3379" x="947.76" y="483.78"/><ellipse cx="982.3433" cy="499.78" fill="#ADD1B2" rx="11" ry="11" style="stroke:#181818;stroke-width:1;"/><path d="M984.8165,505.9231 Q984.2354,506.2219 983.5963,506.3713 Q982.9571,506.5207 982.2516,506.5207 Q979.7447,506.5207 978.4249,504.8689 Q977.1051,503.217 977.1051,500.0959 Q977.1051,496.9665 978.4249,495.3147 Q979.7447,493.6628 982.2516,493.6628 Q982.9571,493.6628 983.6046,493.8122 Q984.252,493.9616 984.8165,494.2605 L984.8165,496.9831 Q984.1856,496.4021 983.5921,496.1323 Q982.9986,495.8625 982.3678,495.8625 Q981.023,495.8625 980.3382,496.9292 Q979.6534,497.9958 979.6534,500.0959 Q979.6534,502.1877 980.3382,503.2544 Q981.023,504.321 982.3678,504.321 Q982.9986,504.321 983.5921,504.0512 Q984.1856,503.7815 984.8165,503.2004 Z " fill="#000000"/><text fill="#000000" font-family="sans-serif" font-size="11" lengthAdjust="spacing" textLength="129.8193" x="1003.6952" y="503.9372">DeterminationProcedure</text><line style="stroke:#181818;stroke-width:0.5;" x1="948.76" x2="1158.0979" y1="515.78" y2="515.78"/><text fill="#000000" font-family="sans-serif" font-size="11" lengthAdjust="spacing" textLength="127.542" x="956.76" y="533.4148">+label : CharacterString</text><text fill="#000000" font-family="sans-serif" font-size="11" lengthAdjust="spacing" textLength="193.3379" x="956.76" y="552.3698">+description : CharacterString [0..1]</text><text fill="#000000" font-family="sans-serif" font-size="11" lengthAdjust="spacing" textLength="119.5981" x="956.76" y="571.3249">+definition : URI [0..1]</text><line style="stroke:#181818;stroke-width:0.5;" x1="948.76" x2="1158.0979" y1="580.6452" y2="580.6452"/></g><!--class Feature--><g class="entity" data-entity="Feature" data-source-line="73" data-uid="ent0018" id="entity_Feature"><rect fill="#F1F1F1" height="84.043" rx="2.5" ry="2.5" style="stroke:#181818;stroke-width:0.5;" width="145.3057" x="146.78" y="374.73"/><ellipse cx="178.7688" cy="399.2739" fill="#ADD1B2" rx="11" ry="11" style="stroke:#181818;stroke-width:1;"/><path d="M181.242,405.417 Q180.6609,405.7158 180.0217,405.8653 Q179.3826,406.0147 178.677,406.0147 Q176.1702,406.0147 174.8504,404.3628 Q173.5305,402.711 173.5305,399.5899 Q173.5305,396.4605 174.8504,394.8086 Q176.1702,393.1568 178.677,393.1568 Q179.3826,393.1568 180.03,393.3062 Q180.6775,393.4556 181.242,393.7544 L181.242,396.4771 Q180.6111,395.896 180.0176,395.6262 Q179.4241,395.3565 178.7932,395.3565 Q177.4485,395.3565 176.7637,396.4231 Q176.0789,397.4898 176.0789,399.5899 Q176.0789,401.6817 176.7637,402.7483 Q177.4485,403.815 178.7932,403.815 Q179.4241,403.815 180.0176,403.5452 Q180.6111,403.2754 181.242,402.6944 Z " fill="#000000"/><text fill="#000000" font-family="sans-serif" font-size="12" font-style="italic" lengthAdjust="spacing" textLength="73.5527" x="197.5441" y="394.3316">&#171;ISO 19109&#187;</text><text fill="#000000" font-family="sans-serif" font-size="11" lengthAdjust="spacing" textLength="39.6709" x="214.485" y="413.4976">Feature</text><line style="stroke:#181818;stroke-width:0.5;" x1="147.78" x2="291.0857" y1="423.8179" y2="423.8179"/><text fill="#000000" font-family="sans-serif" font-size="11" lengthAdjust="spacing" textLength="127.3057" x="155.78" y="441.4527">+geometry : GM_Object</text><line style="stroke:#181818;stroke-width:0.5;" x1="147.78" x2="291.0857" y1="450.773" y2="450.773"/></g><!--class EmissionIntent--><g class="entity" data-entity="EmissionIntent" data-source-line="77" data-uid="ent0019" id="entity_EmissionIntent"><rect fill="#F1F1F1" height="121.9531" rx="2.5" ry="2.5" style="stroke:#181818;stroke-width:0.5;" width="116.5684" x="1405.15" y="227.78"/><ellipse cx="1420.15" cy="252.3239" fill="#ADD1B2" rx="11" ry="11" style="stroke:#181818;stroke-width:1;"/><path d="M1422.6231,258.467 Q1422.0421,258.7658 1421.4029,258.9153 Q1420.7638,259.0647 1420.0582,259.0647 Q1417.5514,259.0647 1416.2315,257.4128 Q1414.9117,255.761 1414.9117,252.6399 Q1414.9117,249.5105 1416.2315,247.8586 Q1417.5514,246.2068 1420.0582,246.2068 Q1420.7638,246.2068 1421.4112,246.3562 Q1422.0587,246.5056 1422.6231,246.8044 L1422.6231,249.5271 Q1421.9923,248.946 1421.3988,248.6762 Q1420.8053,248.4065 1420.1744,248.4065 Q1418.8297,248.4065 1418.1449,249.4731 Q1417.4601,250.5398 1417.4601,252.6399 Q1417.4601,254.7317 1418.1449,255.7983 Q1418.8297,256.865 1420.1744,256.865 Q1420.8053,256.865 1421.3988,256.5952 Q1421.9923,256.3254 1422.6231,255.7444 Z " fill="#000000"/><text fill="#000000" font-family="sans-serif" font-size="12" font-style="italic" lengthAdjust="spacing" textLength="62.959" x="1444.9547" y="247.3816">&#171;CodeList&#187;</text><text fill="#000000" font-family="sans-serif" font-size="11" lengthAdjust="spacing" textLength="78.5684" x="1437.15" y="266.5476">EmissionIntent</text><line style="stroke:#181818;stroke-width:0.5;" x1="1406.15" x2="1520.7184" y1="276.8679" y2="276.8679"/><text fill="#000000" font-family="sans-serif" font-size="11" lengthAdjust="spacing" textLength="57.2075" x="1414.15" y="294.5027">intentional</text><text fill="#000000" font-family="sans-serif" font-size="11" lengthAdjust="spacing" textLength="70.8608" x="1414.15" y="313.4577">unintentional</text><text fill="#000000" font-family="sans-serif" font-size="11" lengthAdjust="spacing" textLength="48.9683" x="1414.15" y="332.4128">unknown</text><line style="stroke:#181818;stroke-width:0.5;" x1="1406.15" x2="1520.7184" y1="341.7331" y2="341.7331"/></g><!--class Procedure--><g class="entity" data-entity="Procedure" data-source-line="83" data-uid="ent0020" id="entity_Procedure"><rect fill="#F1F1F1" height="65.0879" rx="2.5" ry="2.5" style="stroke:#181818;stroke-width:0.5;" width="141.7012" x="982.58" y="639.64"/><ellipse cx="997.58" cy="664.1839" fill="#ADD1B2" rx="11" ry="11" style="stroke:#181818;stroke-width:1;"/><path d="M1000.0531,670.327 Q999.4721,670.6258 998.8329,670.7753 Q998.1938,670.9247 997.4882,670.9247 Q994.9814,670.9247 993.6615,669.2728 Q992.3417,667.621 992.3417,664.4999 Q992.3417,661.3705 993.6615,659.7186 Q994.9814,658.0668 997.4882,658.0668 Q998.1938,658.0668 998.8412,658.2162 Q999.4887,658.3656 1000.0531,658.6644 L1000.0531,661.3871 Q999.4223,660.806 998.8288,660.5362 Q998.2353,660.2665 997.6044,660.2665 Q996.2597,660.2665 995.5749,661.3331 Q994.8901,662.3998 994.8901,664.4999 Q994.8901,666.5917 995.5749,667.6583 Q996.2597,668.725 997.6044,668.725 Q998.2353,668.725 998.8288,668.4552 Q999.4223,668.1854 1000.0531,667.6044 Z " fill="#000000"/><text fill="#000000" font-family="sans-serif" font-size="12" font-style="italic" lengthAdjust="spacing" textLength="107.7012" x="1012.58" y="659.2416">&#171;ISO 19156:2023&#187;</text><text fill="#000000" font-family="sans-serif" font-size="11" lengthAdjust="spacing" textLength="53.48" x="1039.6906" y="678.4076">Procedure</text><line style="stroke:#181818;stroke-width:0.5;" x1="983.58" x2="1123.2812" y1="688.7279" y2="688.7279"/><line style="stroke:#181818;stroke-width:0.5;" x1="983.58" x2="1123.2812" y1="696.7279" y2="696.7279"/></g><g class="entity" data-entity="GMN21" data-source-line="86" data-uid="ent0022" id="entity_GMN21"><path d="M422.75,641.22 L422.75,703.1516 A0,0 0 0 0 422.75,703.1516 L588.1099,703.1516 A0,0 0 0 0 588.1099,703.1516 L588.1099,651.22 L578.1099,641.22 L509.43,641.22 L505.43,568.96 L501.43,641.22 L422.75,641.22 A0,0 0 0 0 422.75,641.22" fill="#FEFFDD" style="stroke:#181818;stroke-width:0.5;"/><path d="M578.1099,641.22 L578.1099,651.22 L588.1099,651.22 L578.1099,641.22" fill="#FEFFDD" style="stroke:#181818;stroke-width:0.5;"/><text fill="#000000" font-family="sans-serif" font-size="13" lengthAdjust="spacing" textLength="100.9087" x="431.75" y="661.7884">Observation per</text><text fill="#000000" font-family="sans-serif" font-size="13" lengthAdjust="spacing" textLength="138.3599" x="431.75" y="677.0989">ISO/OGC 19156:2023</text><text fill="#000000" font-family="sans-serif" font-size="13" lengthAdjust="spacing" textLength="61.4199" x="431.75" y="692.4095">(OMS 3.0)</text></g><!--link Source to SourceType--><!--link Source to SourceType--><g class="link" data-entity-1="Source" data-entity-2="SourceType" data-source-line="129" data-uid="lnk50" id="link_Source_SourceType"><path codeLine="129" d="M188.05,93.8 C211.9,93.8 231.84,93.8 256.42,93.8" fill="none" id="Source-to-SourceType" style="stroke:#181818;stroke-width:1;"/><polygon fill="#181818" points="262.42,93.8,253.42,89.8,257.42,93.8,253.42,97.8,262.42,93.8" style="stroke:#181818;stroke-width:1;"/><text fill="#000000" font-family="sans-serif" font-size="13" lengthAdjust="spacing" textLength="27.0791" x="211.81" y="84.3684">type</text><text fill="#000000" font-family="sans-serif" font-size="13" lengthAdjust="spacing" textLength="6.2651" x="198.7599" y="87.5434">*</text><text fill="#000000" font-family="sans-serif" font-size="13" lengthAdjust="spacing" textLength="24.667" x="226.935" y="110.1174">0..1</text></g><!--link SourceType to TemporalBound--><!--link TemporalBound to EmissionQuantity--><!--link EmissionQuantity to UnitOfMeasure--><!--reverse link EmissionQuantity to UnitOfMeasure--><g class="link" data-entity-1="EmissionQuantity" data-entity-2="UnitOfMeasure" data-source-line="107" data-uid="lnk37" id="link_EmissionQuantity_UnitOfMeasure"><path codeLine="107" d="M1109.61,93.8 C1132.79,93.8 1145.85,93.8 1168.77,93.8" fill="none" id="EmissionQuantity-backto-UnitOfMeasure" style="stroke:#181818;stroke-width:1;"/><polygon fill="#181818" points="1097.61,93.8,1103.61,97.8,1109.61,93.8,1103.61,89.8,1097.61,93.8" style="stroke:#181818;stroke-width:1;"/><text fill="#000000" font-family="sans-serif" font-size="13" lengthAdjust="spacing" textLength="24.7559" x="1121.29" y="84.3684">unit</text><text fill="#000000" font-family="sans-serif" font-size="13" lengthAdjust="spacing" textLength="8.2202" x="1108.4554" y="87.4789">1</text><text fill="#000000" font-family="sans-serif" font-size="13" lengthAdjust="spacing" textLength="8.2202" x="1150.0616" y="87.4468">1</text></g><!--link UnitOfMeasure to Mechanism--><!--link Observation to DeterminationProcedure--><!--link Source to Feature--><g class="link" data-entity-1="Source" data-entity-2="Feature" data-source-line="89" data-uid="lnk24" id="link_Source_Feature"><path codeLine="89" d="M109.91,127.64 C132.29,186.52 172.7941,293.0646 197.3241,357.5946" fill="none" id="Source-to-Feature" style="stroke:#181818;stroke-width:1;"/><polygon fill="none" points="203.72,374.42,202.9326,355.4627,191.7157,359.7266,203.72,374.42" style="stroke:#181818;stroke-width:1;"/></g><!--link DeterminationProcedure to Procedure--><g class="link" data-entity-1="DeterminationProcedure" data-entity-2="Procedure" data-source-line="90" data-uid="lnk25" id="link_DeterminationProcedure_Procedure"><path codeLine="90" d="M1053.43,589.01 C1053.43,605.94 1053.43,606.25 1053.43,621.27" fill="none" id="DeterminationProcedure-to-Procedure" style="stroke:#181818;stroke-width:1;"/><polygon fill="none" points="1053.43,639.27,1059.43,621.27,1047.43,621.27,1053.43,639.27" style="stroke:#181818;stroke-width:1;"/></g><!--link TemporalBound to EmissionEvent--><!--link TemporalBound to EmissionEvent--><g class="link" data-entity-1="TemporalBound" data-entity-2="EmissionEvent" data-source-line="102" data-uid="lnk32" id="link_TemporalBound_EmissionEvent"><path codeLine="102" d="M663.24,137.23 C678.81,149.6 694.39,164.06 706.43,179.78 C723.65,202.27 731.9776,220.7718 739.4276,243.4018" fill="none" id="TemporalBound-to-EmissionEvent" style="stroke:#181818;stroke-width:1;"/><polygon fill="#181818" points="743.18,254.8,745.1032,247.8501,739.4276,243.4018,737.5044,250.3517,743.18,254.8" style="stroke:#181818;stroke-width:1;"/><text fill="#000000" font-family="sans-serif" font-size="13" lengthAdjust="spacing" textLength="60.2075" x="724.33" y="196.3484">startTime</text><text fill="#000000" font-family="sans-serif" font-size="13" lengthAdjust="spacing" textLength="8.2202" x="660.3852" y="160.4034">1</text><text fill="#000000" font-family="sans-serif" font-size="13" lengthAdjust="spacing" textLength="8.2202" x="729.3049" y="241.477">1</text></g><!--link TemporalBound to EmissionEvent--><g class="link" data-entity-1="TemporalBound" data-entity-2="EmissionEvent" data-source-line="103" data-uid="lnk34" id="link_TemporalBound_EmissionEvent"><path codeLine="103" d="M588.78,137.18 C586.27,158.27 586.95,183.33 598.43,202.78 C617.84,235.65 643.8377,252.3006 676.7977,265.2206" fill="none" id="TemporalBound-to-EmissionEvent-1" style="stroke:#181818;stroke-width:1;"/><polygon fill="#181818" points="687.97,269.6,683.8437,263.6862,676.7977,265.2206,680.924,271.1344,687.97,269.6" style="stroke:#181818;stroke-width:1;"/><text fill="#000000" font-family="sans-serif" font-size="13" lengthAdjust="spacing" textLength="54.8501" x="602.43" y="196.3484">endTime</text><text fill="#000000" font-family="sans-serif" font-size="13" lengthAdjust="spacing" textLength="8.2202" x="575.4543" y="160.3464">1</text><text fill="#000000" font-family="sans-serif" font-size="13" lengthAdjust="spacing" textLength="8.2202" x="668.72" y="284.1853">1</text></g><!--link EmissionQuantity to EmissionEvent--><!--link EmissionQuantity to EmissionEvent--><g class="link" data-entity-1="EmissionQuantity" data-entity-2="EmissionEvent" data-source-line="106" data-uid="lnk36" id="link_EmissionQuantity_EmissionEvent"><path codeLine="106" d="M944.17,137.1 C923.61,150.26 901.3,165.16 881.43,179.78 C849.21,203.5 823.568,224.856 798.288,246.936" fill="none" id="EmissionQuantity-to-EmissionEvent" style="stroke:#181818;stroke-width:1;"/><polygon fill="#181818" points="789.25,254.83,796.4003,253.8957,798.288,246.936,791.1377,247.8704,789.25,254.83" style="stroke:#181818;stroke-width:1;"/><text fill="#000000" font-family="sans-serif" font-size="13" lengthAdjust="spacing" textLength="51.7715" x="885.43" y="196.3484">quantity</text><text fill="#000000" font-family="sans-serif" font-size="13" lengthAdjust="spacing" textLength="8.2202" x="922.4616" y="160.2551">1</text><text fill="#000000" font-family="sans-serif" font-size="13" lengthAdjust="spacing" textLength="8.2202" x="783.5811" y="241.5124">1</text></g><!--link Mechanism to DeterminationProcedure--><!--link EmissionEvent to Observation--><!--link EmissionEvent to Observation--><g class="link" data-entity-1="EmissionEvent" data-entity-2="Observation" data-source-line="116" data-uid="lnk42" id="link_EmissionEvent_Observation"><path codeLine="116" d="M687.79,296.97 C600.73,308.16 452.9,332.91 420.43,374.73 C397.53,404.24 405.23,424.66 420.43,458.78 C428.19,476.18 437.4909,487.4147 451.8209,499.4847" fill="none" id="EmissionEvent-to-Observation" style="stroke:#181818;stroke-width:1;"/><polygon fill="#181818" points="456.41,503.35,452.1033,494.4927,452.5858,500.1289,446.9496,500.6114,456.41,503.35" style="stroke:#181818;stroke-width:1;"/><text fill="#000000" font-family="sans-serif" font-size="13" lengthAdjust="spacing" textLength="106.6978" x="424.43" y="421.8284">quantityEvidence</text><text fill="#000000" font-family="sans-serif" font-size="13" lengthAdjust="spacing" textLength="8.2202" x="668.9663" y="314.602">1</text><text fill="#000000" font-family="sans-serif" font-size="13" lengthAdjust="spacing" textLength="6.2651" x="437.29" y="489.9518">*</text></g><!--link EmissionEvent to Observation--><g class="link" data-entity-1="EmissionEvent" data-entity-2="Observation" data-source-line="117" data-uid="lnk43" id="link_EmissionEvent_Observation"><path codeLine="117" d="M687.95,309.41 C652.26,323 609.23,344.2 579.43,374.73 C578.82,375.36 543.9717,451.1964 522.5817,497.8264" fill="none" id="EmissionEvent-to-Observation-1" style="stroke:#181818;stroke-width:1;"/><polygon fill="#181818" points="520.08,503.28,527.4682,496.7674,522.1647,498.7353,520.1968,493.4318,520.08,503.28" style="stroke:#181818;stroke-width:1;"/><text fill="#000000" font-family="sans-serif" font-size="13" lengthAdjust="spacing" textLength="115.1338" x="583.43" y="421.8284">startTimeEvidence</text><text fill="#000000" font-family="sans-serif" font-size="13" lengthAdjust="spacing" textLength="8.2202" x="668.6977" y="328.5983">1</text><text fill="#000000" font-family="sans-serif" font-size="13" lengthAdjust="spacing" textLength="6.2651" x="512.6992" y="489.8689">*</text></g><!--link EmissionEvent to Observation--><g class="link" data-entity-1="EmissionEvent" data-entity-2="Observation" data-source-line="118" data-uid="lnk44" id="link_EmissionEvent_Observation"><path codeLine="118" d="M752.49,322.52 C750.81,359.95 742.5,420.91 708.43,458.78 C674.55,496.43 626.098,514.3225 582.168,524.0525" fill="none" id="EmissionEvent-to-Observation-2" style="stroke:#181818;stroke-width:1;"/><polygon fill="#181818" points="576.31,525.35,585.962,527.3091,581.1917,524.2688,584.2321,519.4984,576.31,525.35" style="stroke:#181818;stroke-width:1;"/><text fill="#000000" font-family="sans-serif" font-size="13" lengthAdjust="spacing" textLength="109.7764" x="749.42" y="421.8284">endTimeEvidence</text><text fill="#000000" font-family="sans-serif" font-size="13" lengthAdjust="spacing" textLength="8.2202" x="740.3159" y="345.7227">1</text><text fill="#000000" font-family="sans-serif" font-size="13" lengthAdjust="spacing" textLength="6.2651" x="587.2519" y="517.7312">*</text></g><!--link Mechanism to EmissionIntent--><!--link Mechanism to EmissionIntent--><g class="link" data-entity-1="Mechanism" data-entity-2="EmissionIntent" data-source-line="130" data-uid="lnk51" id="link_Mechanism_EmissionIntent"><path codeLine="130" d="M1471.24,137.15 C1469.86,163.66 1468.3804,192.248 1466.8604,221.588" fill="none" id="Mechanism-to-EmissionIntent" style="stroke:#181818;stroke-width:1;"/><polygon fill="#181818" points="1466.55,227.58,1471.0103,218.799,1466.8087,222.5867,1463.021,218.3851,1466.55,227.58" style="stroke:#181818;stroke-width:1;"/><text fill="#000000" font-family="sans-serif" font-size="13" lengthAdjust="spacing" textLength="36.8608" x="1472.73" y="196.3484">intent</text><text fill="#000000" font-family="sans-serif" font-size="13" lengthAdjust="spacing" textLength="6.2651" x="1461.1071" y="160.3121">*</text><text fill="#000000" font-family="sans-serif" font-size="13" lengthAdjust="spacing" textLength="8.2202" x="1455.1136" y="213.8787">1</text></g><!--reverse link Source to EmissionEvent--><g class="link" data-entity-1="Source" data-entity-2="EmissionEvent" data-source-line="110" data-uid="lnk39" id="link_Source_EmissionEvent"><path codeLine="110" d="M177.1079,130.0691 C199.6279,139.4591 219.06,146.94 242.43,154.78 C399.67,207.52 589.91,252.24 687.6,273.86" fill="none" id="Source-backto-EmissionEvent" style="stroke:#181818;stroke-width:1;"/><polygon fill="#181818" points="171.57,127.76,178.3374,134.9156,176.1849,129.6842,181.4162,127.5317,171.57,127.76" style="stroke:#181818;stroke-width:1;"/><text fill="#000000" font-family="sans-serif" font-size="13" lengthAdjust="spacing" textLength="41.9009" x="398.8" y="196.3484">source</text><text fill="#000000" font-family="sans-serif" font-size="13" lengthAdjust="spacing" textLength="8.2202" x="171.7081" y="150.7165">1</text><text fill="#000000" font-family="sans-serif" font-size="13" lengthAdjust="spacing" textLength="6.2651" x="670.8674" y="265.6675">*</text></g><!--reverse link Mechanism to EmissionEvent--><g class="link" data-entity-1="Mechanism" data-entity-2="EmissionEvent" data-source-line="113" data-uid="lnk41" id="link_Mechanism_EmissionEvent"><path codeLine="113" d="M1386.8648,139.6041 C1372.1848,146.1841 1362.29,149.94 1347.43,154.78 C1290.24,173.42 1273.28,167.38 1214.43,179.78 C1072.17,209.76 906.47,249.73 817.27,271.66" fill="none" id="Mechanism-backto-EmissionEvent" style="stroke:#181818;stroke-width:1;"/><polygon fill="#181818" points="1392.34,137.15,1382.4912,137.1811,1387.7774,139.1951,1385.7634,144.4813,1392.34,137.15" style="stroke:#181818;stroke-width:1;"/><text fill="#000000" font-family="sans-serif" font-size="13" lengthAdjust="spacing" textLength="71.8745" x="1218.43" y="196.3484">mechanism</text><text fill="#000000" font-family="sans-serif" font-size="13" lengthAdjust="spacing" textLength="8.2202" x="1368.968" y="160.3121">1</text><text fill="#000000" font-family="sans-serif" font-size="13" lengthAdjust="spacing" textLength="6.2651" x="827.5889" y="263.3984">*</text></g><!--link EmissionEvent to DeterminationProcedure--><g class="link" data-entity-1="EmissionEvent" data-entity-2="DeterminationProcedure" data-source-line="121" data-uid="lnk45" id="link_EmissionEvent_DeterminationProcedure"><path codeLine="121" d="M816.99,294.14 C917.7,302.48 1104.88,324.48 1145.43,374.73 C1168.89,403.8 1161.3,424.96 1145.43,458.78 C1141.2,467.8 1139.3197,471.6576 1132.5497,479.2276" fill="none" id="EmissionEvent-to-DeterminationProcedure" style="stroke:#181818;stroke-width:1;"/><polygon fill="#181818" points="1128.55,483.7,1137.5312,479.6579,1131.8831,479.973,1131.568,474.3249,1128.55,483.7" style="stroke:#181818;stroke-width:1;"/><text fill="#000000" font-family="sans-serif" font-size="13" lengthAdjust="spacing" textLength="91.876" x="1164.31" y="421.8284">startTimeBasis</text><text fill="#000000" font-family="sans-serif" font-size="13" lengthAdjust="spacing" textLength="8.2202" x="827.8288" y="288.1656">1</text><text fill="#000000" font-family="sans-serif" font-size="13" lengthAdjust="spacing" textLength="8.2202" x="1126.2921" y="470.2148">1</text></g><!--link EmissionEvent to DeterminationProcedure--><g class="link" data-entity-1="EmissionEvent" data-entity-2="DeterminationProcedure" data-source-line="122" data-uid="lnk46" id="link_EmissionEvent_DeterminationProcedure"><path codeLine="122" d="M810.14,322.65 C831.1,336.68 853.71,354.49 870.43,374.73 C896.66,406.48 881.1,428.89 909.43,458.78 C920.43,470.38 928.5378,477.3534 942.3678,486.2134" fill="none" id="EmissionEvent-to-DeterminationProcedure-1" style="stroke:#181818;stroke-width:1;"/><polygon fill="#181818" points="947.42,489.45,941.9995,481.227,943.2099,486.7528,937.684,487.9632,947.42,489.45" style="stroke:#181818;stroke-width:1;"/><text fill="#000000" font-family="sans-serif" font-size="13" lengthAdjust="spacing" textLength="86.5186" x="913.43" y="421.8284">endTimeBasis</text><text fill="#000000" font-family="sans-serif" font-size="13" lengthAdjust="spacing" textLength="8.2202" x="807.8745" y="345.875">1</text><text fill="#000000" font-family="sans-serif" font-size="13" lengthAdjust="spacing" textLength="24.667" x="911.935" y="480.003">0..1</text></g><!--link EmissionEvent to DeterminationProcedure--><g class="link" data-entity-1="EmissionEvent" data-entity-2="DeterminationProcedure" data-source-line="123" data-uid="lnk47" id="link_EmissionEvent_DeterminationProcedure"><path codeLine="123" d="M817.17,294.3 C875.37,301.84 959.19,321.83 1009.43,374.73 C1024.35,390.45 1035.7565,436.948 1043.5865,477.648" fill="none" id="EmissionEvent-to-DeterminationProcedure-2" style="stroke:#181818;stroke-width:1;"/><polygon fill="#181818" points="1044.72,483.54,1046.9477,473.9464,1043.7754,478.63,1039.0918,475.4577,1044.72,483.54" style="stroke:#181818;stroke-width:1;"/><text fill="#000000" font-family="sans-serif" font-size="13" lengthAdjust="spacing" textLength="83.4399" x="1043.04" y="421.8284">quantityBasis</text><text fill="#000000" font-family="sans-serif" font-size="13" lengthAdjust="spacing" textLength="8.2202" x="827.5794" y="311.5388">1</text><text fill="#000000" font-family="sans-serif" font-size="13" lengthAdjust="spacing" textLength="8.2202" x="1031.7214" y="470.0343">1</text></g><!--reverse link Feature to Observation--><g class="link" data-entity-1="Feature" data-entity-2="Observation" data-source-line="126" data-uid="lnk49" id="link_Feature_Observation"><path codeLine="126" d="M297.8905,449.9786 C341.4205,467.8486 390.9,488.17 434.14,505.93" fill="none" id="Feature-backto-Observation" style="stroke:#181818;stroke-width:1;"/><polygon fill="#181818" points="292.34,447.7,299.1467,454.8182,296.9654,449.5988,302.1848,447.4176,292.34,447.7" style="stroke:#181818;stroke-width:1;"/><text fill="#000000" font-family="sans-serif" font-size="13" lengthAdjust="spacing" textLength="161.5986" x="198.35" y="493.4284">ultimateFeatureOfInterest</text><text fill="#000000" font-family="sans-serif" font-size="13" lengthAdjust="spacing" textLength="8.2202" x="302.9666" y="444.2322">1</text><text fill="#000000" font-family="sans-serif" font-size="13" lengthAdjust="spacing" textLength="6.2651" x="417.1831" y="496.3085">*</text></g><!--link TemporalBound to TemporalStatus--><g class="link" data-entity-1="TemporalBound" data-entity-2="TemporalStatus" data-source-line="131" data-uid="lnk52" id="link_TemporalBound_TemporalStatus"><path codeLine="131" d="M682.77,93.8 C710.85,93.8 735.55,93.8 761.51,93.8" fill="none" id="TemporalBound-to-TemporalStatus" style="stroke:#181818;stroke-width:1;"/><polygon fill="#181818" points="767.51,93.8,758.51,89.8,762.51,93.8,758.51,97.8,767.51,93.8" style="stroke:#181818;stroke-width:1;"/><text fill="#000000" font-family="sans-serif" font-size="13" lengthAdjust="spacing" textLength="38.2256" x="706.06" y="84.3684">status</text><text fill="#000000" font-family="sans-serif" font-size="13" lengthAdjust="spacing" textLength="6.2651" x="693.5451" y="87.4789">*</text><text fill="#000000" font-family="sans-serif" font-size="13" lengthAdjust="spacing" textLength="8.2202" x="748.6689" y="87.1715">1</text></g><!--SRC=[jLVlRjis4F-kfpZaIvCqpkoaBL2X292wQM4WXjVQ_TG60IsTRIuIgP9KWcmhq8VO4-v9TgHacPGjjnqs88WfwUvtTx_x9ps1gvnhpQKONyFbN1l54WD3AH8iJCao6CiKCpWywv-zwFNFUlrdHz6JHkVg7eM1XFwXmlG456RCq7szueK6nLBE388ipGDJQHJfEouAfbWEISQqlZH6yNbfS9H8CUM_8_Gz4K66DHRmpB-fcBYpDv_xDmkMfbmiuRnjuAqKnk4EpZjjRsG64KNszr_Vw0zciW0b7sAOob8bU5B_pXuBEiymBwHYsMjP2WfwJSRxaWd3pUC9Z35PCS5rNiD5pcID0Nz404y5on5Y6AwO9HpLbDoX43xrJqy7Dz7NA52nPYkrZCqf6rjwzX6nbIXUMFgxWPtSWWjUYttyCDeO2-Agx1dkt9oDRqT26uhF0_f2vK7XqkCtxs-lCionVdnyiuqvDSoK6bwz6b9Qhxas5nVEmfsG3u9-Ix4-IR6KDgG6eirlvTazoqhhsWTasGzxiqdCVy8cuTOvxNrQyJH5SQFuScLwNjuYBuLjgO3mAAI_BTjc8TgYfQtnaR8yMOoHwL9X55njoJR4U3qm9eaCgpO86pwewl2HuxMGMLRQQd5HDrNM8B-MniYyGfxCDQfxDpLEu0qInpaNxl9N9HDChRU1FK-1ocaqdS3WvU3vYvWcrBahgYRR7MZ_LoDvLU7xsAPwjrSUEnEQIYg63DcYcbMeGmR2L7ul7FsOpsLdg5spu2rIln9wmt3_PTsnJvSeSpJAjjgxyUra_XicPhjRHxGJg1ws6fwx-oJWshOKxUjg33HmcxHrvLf8MZ7pggBa8YYFeBgWGFLP4COlatT33-UpE9oCft1-sZ_oaZ0IArISQZXfoc_TwYavsFlpOarHr55cZTok75-pHzgACToZCZoXDKl3Qobohxawfe433NjkpoJO9RsPWIsnZi8C-xkbu_6x8pfNmeNKhi9iyzInTReG5e-7E9Jv6YU6iW0ZMzkgHWwTFHWSm76lB7hk52h4GFjCcHajk9_IGf4wdRs-RMNaa0hTm8BcedpGHp_YxHP435ywHt-bMd5ep-64Y6sR-MnUQYqJpdoFw-BUxTZn0LY_BXnsBKdykKCtRCyDF0k-zJwq3tyZ74E-OorTtNCgc0HZiF5QUB_9EvcjsBbmni8PiQPr3VnJoaqH_IljkfWQNMz5Citr9iJzYt6FIJftw7g-EsFxKEnYsmDKX_5Tc7qOwonK8Dusz0WZVvVOJ4Z_YIkX31UcDhDUNrI76Rt3qbT8VMUo6BcF5UttmxMTK-6tIpZp7NorlnislFUw68nzqzjKhfFtecujnRZUWgqX7rhnPa_zykmoHeVe7m00]--></g></svg>