<svg xmlns="http://www.w3.org/2000/svg" xmlns:xlink="http://www.w3.org/1999/xlink" contentStyleType="text/css" data-diagram-type="CLASS" height="668px" preserveAspectRatio="none" style="width:1397px;height:668px;background:#FFFFFF;" version="1.1" viewBox="0 0 1397 668" width="1397px" zoomAndPan="magnify"><defs/><g><!--class Source--><g class="entity" data-entity="Source" data-source-line="12" data-uid="ent0002" id="entity_Source"><rect fill="#F1F1F1" height="66.9551" rx="2.5" ry="2.5" style="stroke:#181818;stroke-width:0.5;" width="180.8623" x="7" y="25.95"/><ellipse cx="72.2954" cy="41.95" fill="#ADD1B2" rx="11" ry="11" style="stroke:#181818;stroke-width:1;"/><path d="M74.7686,48.0931 Q74.1875,48.3919 73.5483,48.5413 Q72.9092,48.6907 72.2036,48.6907 Q69.6968,48.6907 68.377,47.0389 Q67.0571,45.387 67.0571,42.2659 Q67.0571,39.1365 68.377,37.4847 Q69.6968,35.8328 72.2036,35.8328 Q72.9092,35.8328 73.5566,35.9822 Q74.2041,36.1316 74.7686,36.4305 L74.7686,39.1531 Q74.1377,38.5721 73.5442,38.3023 Q72.9507,38.0325 72.3198,38.0325 Q70.9751,38.0325 70.2903,39.0992 Q69.6055,40.1658 69.6055,42.2659 Q69.6055,44.3577 70.2903,45.4244 Q70.9751,46.491 72.3198,46.491 Q72.9507,46.491 73.5442,46.2212 Q74.1377,45.9515 74.7686,45.3704 Z " fill="#000000"/><text fill="#000000" font-family="sans-serif" font-size="11" lengthAdjust="spacing" textLength="35.7715" x="95.7954" y="46.1072">Source</text><line style="stroke:#181818;stroke-width:0.5;" x1="8" x2="186.8623" y1="57.95" y2="57.95"/><text fill="#000000" font-family="sans-serif" font-size="11" lengthAdjust="spacing" textLength="162.8623" x="16" y="75.5848">+name : CharacterString [0..1]</text><line style="stroke:#181818;stroke-width:0.5;" x1="8" x2="186.8623" y1="84.9051" y2="84.9051"/></g><!--class SourceType--><g class="entity" data-entity="SourceType" data-source-line="16" data-uid="ent0003" id="entity_SourceType"><rect fill="#F1F1F1" height="104.8652" rx="2.5" ry="2.5" style="stroke:#181818;stroke-width:0.5;" width="211.3379" x="262.76" y="7"/><ellipse cx="330.416" cy="23" fill="#ADD1B2" rx="11" ry="11" style="stroke:#181818;stroke-width:1;"/><path d="M332.8892,29.1431 Q332.3081,29.4419 331.6689,29.5913 Q331.0298,29.7407 330.3242,29.7407 Q327.8174,29.7407 326.4975,28.0889 Q325.1777,26.437 325.1777,23.3159 Q325.1777,20.1865 326.4975,18.5347 Q327.8174,16.8828 330.3242,16.8828 Q331.0298,16.8828 331.6772,17.0322 Q332.3247,17.1816 332.8892,17.4805 L332.8892,20.2031 Q332.2583,19.6221 331.6648,19.3523 Q331.0713,19.0825 330.4404,19.0825 Q329.0957,19.0825 328.4109,20.1492 Q327.7261,21.2158 327.7261,23.3159 Q327.7261,25.4077 328.4109,26.4744 Q329.0957,27.541 330.4404,27.541 Q331.0713,27.541 331.6648,27.2712 Q332.2583,27.0015 332.8892,26.4204 Z " fill="#000000"/><text fill="#000000" font-family="sans-serif" font-size="11" lengthAdjust="spacing" textLength="61.5259" x="353.916" y="27.1572">SourceType</text><line style="stroke:#181818;stroke-width:0.5;" x1="263.76" x2="473.0979" y1="39" y2="39"/><text fill="#000000" font-family="sans-serif" font-size="11" lengthAdjust="spacing" textLength="127.542" x="271.76" y="56.6348">+label : CharacterString</text><text fill="#000000" font-family="sans-serif" font-size="11" lengthAdjust="spacing" textLength="193.3379" x="271.76" y="75.5898">+description : CharacterString [0..1]</text><text fill="#000000" font-family="sans-serif" font-size="11" lengthAdjust="spacing" textLength="88.0913" x="271.76" y="94.5449">+definition : URI</text><line style="stroke:#181818;stroke-width:0.5;" x1="263.76" x2="473.0979" y1="103.8652" y2="103.8652"/></g><!--class TemporalBound--><g class="entity" data-entity="TemporalBound" data-source-line="22" data-uid="ent0004" id="entity_TemporalBound"><rect fill="#F1F1F1" height="85.9102" rx="2.5" ry="2.5" style="stroke:#181818;stroke-width:0.5;" width="167.9771" x="514.44" y="16.47"/><ellipse cx="549.9273" cy="32.47" fill="#ADD1B2" rx="11" ry="11" style="stroke:#181818;stroke-width:1;"/><path d="M552.4004,38.6131 Q551.8194,38.9119 551.1802,39.0613 Q550.5411,39.2107 549.8355,39.2107 Q547.3287,39.2107 546.0088,37.5589 Q544.689,35.907 544.689,32.7859 Q544.689,29.6565 546.0088,28.0047 Q547.3287,26.3528 549.8355,26.3528 Q550.5411,26.3528 551.1885,26.5022 Q551.836,26.6516 552.4004,26.9505 L552.4004,29.6731 Q551.7696,29.0921 551.1761,28.8223 Q550.5826,28.5525 549.9517,28.5525 Q548.607,28.5525 547.9222,29.6192 Q547.2374,30.6858 547.2374,32.7859 Q547.2374,34.8777 547.9222,35.9444 Q548.607,37.011 549.9517,37.011 Q550.5826,37.011 551.1761,36.7412 Q551.7696,36.4715 552.4004,35.8904 Z " fill="#000000"/><text fill="#000000" font-family="sans-serif" font-size="11" lengthAdjust="spacing" textLength="84.4497" x="571.48" y="36.6272">TemporalBound</text><line style="stroke:#181818;stroke-width:0.5;" x1="515.44" x2="681.4171" y1="48.47" y2="48.47"/><text fill="#000000" font-family="sans-serif" font-size="11" lengthAdjust="spacing" textLength="101.5405" x="523.44" y="66.1048">+time : TM_Instant</text><text fill="#000000" font-family="sans-serif" font-size="11" lengthAdjust="spacing" textLength="149.9771" x="523.44" y="85.0598">+quality : DQ_Element [0..*]</text><line style="stroke:#181818;stroke-width:0.5;" x1="515.44" x2="681.4171" y1="94.3802" y2="94.3802"/></g><!--class EmissionQuantity--><g class="entity" data-entity="EmissionQuantity" data-source-line="27" data-uid="ent0005" id="entity_EmissionQuantity"><rect fill="#F1F1F1" height="85.9102" rx="2.5" ry="2.5" style="stroke:#181818;stroke-width:0.5;" width="167.9771" x="722.44" y="16.47"/><ellipse cx="754.1616" cy="32.47" fill="#ADD1B2" rx="11" ry="11" style="stroke:#181818;stroke-width:1;"/><path d="M756.6348,38.6131 Q756.0537,38.9119 755.4146,39.0613 Q754.7754,39.2107 754.0698,39.2107 Q751.563,39.2107 750.2432,37.5589 Q748.9233,35.907 748.9233,32.7859 Q748.9233,29.6565 750.2432,28.0047 Q751.563,26.3528 754.0698,26.3528 Q754.7754,26.3528 755.4229,26.5022 Q756.0703,26.6516 756.6348,26.9505 L756.6348,29.6731 Q756.0039,29.0921 755.4104,28.8223 Q754.8169,28.5525 754.186,28.5525 Q752.8413,28.5525 752.1565,29.6192 Q751.4717,30.6858 751.4717,32.7859 Q751.4717,34.8777 752.1565,35.9444 Q752.8413,37.011 754.186,37.011 Q754.8169,37.011 755.4104,36.7412 Q756.0039,36.4715 756.6348,35.8904 Z " fill="#000000"/><text fill="#000000" font-family="sans-serif" font-size="11" lengthAdjust="spacing" textLength="92.8179" x="774.8775" y="36.6272">EmissionQuantity</text><line style="stroke:#181818;stroke-width:0.5;" x1="723.44" x2="889.4171" y1="48.47" y2="48.47"/><text fill="#000000" font-family="sans-serif" font-size="11" lengthAdjust="spacing" textLength="69.4268" x="731.44" y="66.1048">+value : Real</text><text fill="#000000" font-family="sans-serif" font-size="11" lengthAdjust="spacing" textLength="149.9771" x="731.44" y="85.0598">+quality : DQ_Element [0..*]</text><line style="stroke:#181818;stroke-width:0.5;" x1="723.44" x2="889.4171" y1="94.3802" y2="94.3802"/></g><!--class Mechanism--><g class="entity" data-entity="Mechanism" data-source-line="32" data-uid="ent0006" id="entity_Mechanism"><rect fill="#F1F1F1" height="85.9102" rx="2.5" ry="2.5" style="stroke:#181818;stroke-width:0.5;" width="211.3379" x="1160.76" y="16.47"/><ellipse cx="1229.168" cy="32.47" fill="#ADD1B2" rx="11" ry="11" style="stroke:#181818;stroke-width:1;"/><path d="M1231.6411,38.6131 Q1231.06,38.9119 1230.4209,39.0613 Q1229.7817,39.2107 1229.0762,39.2107 Q1226.5693,39.2107 1225.2495,37.5589 Q1223.9297,35.907 1223.9297,32.7859 Q1223.9297,29.6565 1225.2495,28.0047 Q1226.5693,26.3528 1229.0762,26.3528 Q1229.7817,26.3528 1230.4292,26.5022 Q1231.0767,26.6516 1231.6411,26.9505 L1231.6411,29.6731 Q1231.0102,29.0921 1230.4167,28.8223 Q1229.8232,28.5525 1229.1924,28.5525 Q1227.8476,28.5525 1227.1628,29.6192 Q1226.478,30.6858 1226.478,32.7859 Q1226.478,34.8777 1227.1628,35.9444 Q1227.8476,37.011 1229.1924,37.011 Q1229.8232,37.011 1230.4167,36.7412 Q1231.0102,36.4715 1231.6411,35.8904 Z " fill="#000000"/><text fill="#000000" font-family="sans-serif" font-size="11" lengthAdjust="spacing" textLength="60.022" x="1252.668" y="36.6272">Mechanism</text><line style="stroke:#181818;stroke-width:0.5;" x1="1161.76" x2="1371.0979" y1="48.47" y2="48.47"/><text fill="#000000" font-family="sans-serif" font-size="11" lengthAdjust="spacing" textLength="127.542" x="1169.76" y="66.1048">+label : CharacterString</text><text fill="#000000" font-family="sans-serif" font-size="11" lengthAdjust="spacing" textLength="193.3379" x="1169.76" y="85.0598">+description : CharacterString [0..1]</text><line style="stroke:#181818;stroke-width:0.5;" x1="1161.76" x2="1371.0979" y1="94.3802" y2="94.3802"/></g><!--class UnitOfMeasure--><g class="entity" data-entity="UnitOfMeasure" data-source-line="40" data-uid="ent0010" id="entity_UnitOfMeasure"><rect fill="#F1F1F1" height="104.8652" rx="2.5" ry="2.5" style="stroke:#181818;stroke-width:0.5;" width="158.54" x="962.16" y="7"/><ellipse cx="995.8201" cy="23" fill="#ADD1B2" rx="11" ry="11" style="stroke:#181818;stroke-width:1;"/><path d="M998.2932,29.1431 Q997.7121,29.4419 997.073,29.5913 Q996.4338,29.7407 995.7283,29.7407 Q993.2214,29.7407 991.9016,28.0889 Q990.5818,26.437 990.5818,23.3159 Q990.5818,20.1865 991.9016,18.5347 Q993.2214,16.8828 995.7283,16.8828 Q996.4338,16.8828 997.0813,17.0322 Q997.7288,17.1816 998.2932,17.4805 L998.2932,20.2031 Q997.6623,19.6221 997.0688,19.3523 Q996.4753,19.0825 995.8445,19.0825 Q994.4997,19.0825 993.8149,20.1492 Q993.1301,21.2158 993.1301,23.3159 Q993.1301,25.4077 993.8149,26.4744 Q994.4997,27.541 995.8445,27.541 Q996.4753,27.541 997.0688,27.2712 Q997.6623,27.0015 998.2932,26.4204 Z " fill="#000000"/><text fill="#000000" font-family="sans-serif" font-size="11" lengthAdjust="spacing" textLength="79.0732" x="1016.9667" y="27.1572">UnitOfMeasure</text><line style="stroke:#181818;stroke-width:0.5;" x1="963.16" x2="1119.7" y1="39" y2="39"/><text fill="#000000" font-family="sans-serif" font-size="11" lengthAdjust="spacing" textLength="127.542" x="971.16" y="56.6348">+label : CharacterString</text><text fill="#000000" font-family="sans-serif" font-size="11" lengthAdjust="spacing" textLength="140.54" x="971.16" y="75.5898">+symbol : CharacterString</text><text fill="#000000" font-family="sans-serif" font-size="11" lengthAdjust="spacing" textLength="88.0913" x="971.16" y="94.5449">+definition : URI</text><line style="stroke:#181818;stroke-width:0.5;" x1="963.16" x2="1119.7" y1="103.8652" y2="103.8652"/></g><!--class EmissionEvent--><g class="entity" data-entity="EmissionEvent" data-source-line="44" data-uid="ent0013" id="entity_EmissionEvent"><rect fill="#F1F1F1" height="66.9551" rx="2.5" ry="2.5" style="stroke:#181818;stroke-width:0.5;" width="128.6821" x="590.09" y="212.36"/><ellipse cx="611.6458" cy="228.36" fill="#ADD1B2" rx="11" ry="11" style="stroke:#181818;stroke-width:1;"/><path d="M614.1189,234.5031 Q613.5379,234.8019 612.8987,234.9513 Q612.2595,235.1007 611.554,235.1007 Q609.0471,235.1007 607.7273,233.4489 Q606.4075,231.797 606.4075,228.6759 Q606.4075,225.5465 607.7273,223.8947 Q609.0471,222.2428 611.554,222.2428 Q612.2595,222.2428 612.907,222.3922 Q613.5545,222.5416 614.1189,222.8405 L614.1189,225.5631 Q613.488,224.9821 612.8945,224.7123 Q612.301,224.4425 611.6702,224.4425 Q610.3254,224.4425 609.6406,225.5092 Q608.9558,226.5758 608.9558,228.6759 Q608.9558,230.7677 609.6406,231.8344 Q610.3254,232.901 611.6702,232.901 Q612.301,232.901 612.8945,232.6312 Q613.488,232.3615 614.1189,231.7804 Z " fill="#000000"/><text fill="#000000" font-family="sans-serif" font-size="11" lengthAdjust="spacing" textLength="76.1138" x="630.1026" y="232.5172">EmissionEvent</text><line style="stroke:#181818;stroke-width:0.5;" x1="591.09" x2="717.7721" y1="244.36" y2="244.36"/><text fill="#000000" font-family="sans-serif" font-size="11" lengthAdjust="spacing" textLength="110.6821" x="599.09" y="261.9948">+pollutantType : URI</text><line style="stroke:#181818;stroke-width:0.5;" x1="591.09" x2="717.7721" y1="271.3151" y2="271.3151"/></g><!--class Observation--><g class="entity" data-entity="Observation" data-source-line="49" data-uid="ent0014" id="entity_Observation"><rect fill="#F1F1F1" height="65.0879" rx="2.5" ry="2.5" style="stroke:#181818;stroke-width:0.5;" width="141.7012" x="333.58" y="460.75"/><ellipse cx="348.58" cy="485.2939" fill="#ADD1B2" rx="11" ry="11" style="stroke:#181818;stroke-width:1;"/><path d="M351.0531,491.437 Q350.4721,491.7358 349.8329,491.8853 Q349.1938,492.0347 348.4882,492.0347 Q345.9814,492.0347 344.6615,490.3828 Q343.3417,488.731 343.3417,485.6099 Q343.3417,482.4805 344.6615,480.8286 Q345.9814,479.1768 348.4882,479.1768 Q349.1938,479.1768 349.8412,479.3262 Q350.4887,479.4756 351.0531,479.7744 L351.0531,482.4971 Q350.4223,481.916 349.8288,481.6462 Q349.2353,481.3765 348.6044,481.3765 Q347.2597,481.3765 346.5749,482.4431 Q345.8901,483.5098 345.8901,485.6099 Q345.8901,487.7017 346.5749,488.7683 Q347.2597,489.835 348.6044,489.835 Q349.2353,489.835 349.8288,489.5652 Q350.4223,489.2954 351.0531,488.7144 Z " fill="#000000"/><text fill="#000000" font-family="sans-serif" font-size="12" font-style="italic" lengthAdjust="spacing" textLength="107.7012" x="363.58" y="480.3516">&#171;ISO 19156:2023&#187;</text><text fill="#000000" font-family="sans-serif" font-size="11" lengthAdjust="spacing" textLength="64.3511" x="385.255" y="499.5176">Observation</text><line style="stroke:#181818;stroke-width:0.5;" x1="334.58" x2="474.2812" y1="509.8379" y2="509.8379"/><line style="stroke:#181818;stroke-width:0.5;" x1="334.58" x2="474.2812" y1="517.8379" y2="517.8379"/></g><!--class DeterminationProcedure--><g class="entity" data-entity="DeterminationProcedure" data-source-line="52" data-uid="ent0015" id="entity_DeterminationProcedure"><rect fill="#F1F1F1" height="104.8652" rx="2.5" ry="2.5" style="stroke:#181818;stroke-width:0.5;" width="211.3379" x="846.76" y="440.86"/><ellipse cx="881.3433" cy="456.86" fill="#ADD1B2" rx="11" ry="11" style="stroke:#181818;stroke-width:1;"/><path d="M883.8165,463.0031 Q883.2354,463.3019 882.5963,463.4513 Q881.9571,463.6007 881.2516,463.6007 Q878.7447,463.6007 877.4249,461.9489 Q876.1051,460.297 876.1051,457.1759 Q876.1051,454.0465 877.4249,452.3947 Q878.7447,450.7428 881.2516,450.7428 Q881.9571,450.7428 882.6046,450.8922 Q883.252,451.0416 883.8165,451.3405 L883.8165,454.0631 Q883.1856,453.4821 882.5921,453.2123 Q881.9986,452.9425 881.3678,452.9425 Q880.023,452.9425 879.3382,454.0092 Q878.6534,455.0758 878.6534,457.1759 Q878.6534,459.2677 879.3382,460.3344 Q880.023,461.401 881.3678,461.401 Q881.9986,461.401 882.5921,461.1312 Q883.1856,460.8615 883.8165,460.2804 Z " fill="#000000"/><text fill="#000000" font-family="sans-serif" font-size="11" lengthAdjust="spacing" textLength="129.8193" x="902.6952" y="461.0172">DeterminationProcedure</text><line style="stroke:#181818;stroke-width:0.5;" x1="847.76" x2="1057.0979" y1="472.86" y2="472.86"/><text fill="#000000" font-family="sans-serif" font-size="11" lengthAdjust="spacing" textLength="127.542" x="855.76" y="490.4948">+label : CharacterString</text><text fill="#000000" font-family="sans-serif" font-size="11" lengthAdjust="spacing" textLength="193.3379" x="855.76" y="509.4498">+description : CharacterString [0..1]</text><text fill="#000000" font-family="sans-serif" font-size="11" lengthAdjust="spacing" textLength="119.5981" x="855.76" y="528.4049">+definition : URI [0..1]</text><line style="stroke:#181818;stroke-width:0.5;" x1="847.76" x2="1057.0979" y1="537.7252" y2="537.7252"/></g><!--class Feature--><g class="entity" data-entity="Feature" data-source-line="67" data-uid="ent0017" id="entity_Feature"><rect fill="#F1F1F1" height="84.043" rx="2.5" ry="2.5" style="stroke:#181818;stroke-width:0.5;" width="145.3057" x="71.78" y="331.81"/><ellipse cx="103.7688" cy="356.3539" fill="#ADD1B2" rx="11" ry="11" style="stroke:#181818;stroke-width:1;"/><path d="M106.242,362.497 Q105.6609,362.7958 105.0217,362.9453 Q104.3826,363.0947 103.677,363.0947 Q101.1702,363.0947 99.8504,361.4428 Q98.5305,359.791 98.5305,356.6699 Q98.5305,353.5405 99.8504,351.8886 Q101.1702,350.2368 103.677,350.2368 Q104.3826,350.2368 105.03,350.3862 Q105.6775,350.5356 106.242,350.8344 L106.242,353.5571 Q105.6111,352.976 105.0176,352.7062 Q104.4241,352.4365 103.7932,352.4365 Q102.4485,352.4365 101.7637,353.5031 Q101.0789,354.5698 101.0789,356.6699 Q101.0789,358.7617 101.7637,359.8283 Q102.4485,360.895 103.7932,360.895 Q104.4241,360.895 105.0176,360.6252 Q105.6111,360.3554 106.242,359.7744 Z " fill="#000000"/><text fill="#000000" font-family="sans-serif" font-size="12" font-style="italic" lengthAdjust="spacing" textLength="73.5527" x="122.5441" y="351.4116">&#171;ISO 19109&#187;</text><text fill="#000000" font-family="sans-serif" font-size="11" lengthAdjust="spacing" textLength="39.6709" x="139.485" y="370.5776">Feature</text><line style="stroke:#181818;stroke-width:0.5;" x1="72.78" x2="216.0857" y1="380.8979" y2="380.8979"/><text fill="#000000" font-family="sans-serif" font-size="11" lengthAdjust="spacing" textLength="127.3057" x="80.78" y="398.5327">+geometry : GM_Object</text><line style="stroke:#181818;stroke-width:0.5;" x1="72.78" x2="216.0857" y1="407.853" y2="407.853"/></g><!--class EmissionIntent--><g class="entity" data-entity="EmissionIntent" data-source-line="71" data-uid="ent0018" id="entity_EmissionIntent"><rect fill="#F1F1F1" height="121.9531" rx="2.5" ry="2.5" style="stroke:#181818;stroke-width:0.5;" width="116.5684" x="1274.15" y="184.86"/><ellipse cx="1289.15" cy="209.4039" fill="#ADD1B2" rx="11" ry="11" style="stroke:#181818;stroke-width:1;"/><path d="M1291.6231,215.547 Q1291.0421,215.8458 1290.4029,215.9953 Q1289.7638,216.1447 1289.0582,216.1447 Q1286.5514,216.1447 1285.2315,214.4928 Q1283.9117,212.841 1283.9117,209.7199 Q1283.9117,206.5905 1285.2315,204.9386 Q1286.5514,203.2868 1289.0582,203.2868 Q1289.7638,203.2868 1290.4112,203.4362 Q1291.0587,203.5856 1291.6231,203.8844 L1291.6231,206.6071 Q1290.9923,206.026 1290.3988,205.7562 Q1289.8053,205.4865 1289.1744,205.4865 Q1287.8297,205.4865 1287.1449,206.5531 Q1286.4601,207.6198 1286.4601,209.7199 Q1286.4601,211.8117 1287.1449,212.8783 Q1287.8297,213.945 1289.1744,213.945 Q1289.8053,213.945 1290.3988,213.6752 Q1290.9923,213.4054 1291.6231,212.8244 Z " fill="#000000"/><text fill="#000000" font-family="sans-serif" font-size="12" font-style="italic" lengthAdjust="spacing" textLength="62.959" x="1313.9547" y="204.4616">&#171;CodeList&#187;</text><text fill="#000000" font-family="sans-serif" font-size="11" lengthAdjust="spacing" textLength="78.5684" x="1306.15" y="223.6276">EmissionIntent</text><line style="stroke:#181818;stroke-width:0.5;" x1="1275.15" x2="1389.7184" y1="233.9479" y2="233.9479"/><text fill="#000000" font-family="sans-serif" font-size="11" lengthAdjust="spacing" textLength="57.2075" x="1283.15" y="251.5827">intentional</text><text fill="#000000" font-family="sans-serif" font-size="11" lengthAdjust="spacing" textLength="70.8608" x="1283.15" y="270.5377">unintentional</text><text fill="#000000" font-family="sans-serif" font-size="11" lengthAdjust="spacing" textLength="48.9683" x="1283.15" y="289.4928">unknown</text><line style="stroke:#181818;stroke-width:0.5;" x1="1275.15" x2="1389.7184" y1="298.8131" y2="298.8131"/></g><!--class Procedure--><g class="entity" data-entity="Procedure" data-source-line="77" data-uid="ent0019" id="entity_Procedure"><rect fill="#F1F1F1" height="65.0879" rx="2.5" ry="2.5" style="stroke:#181818;stroke-width:0.5;" width="141.7012" x="881.58" y="596.72"/><ellipse cx="896.58" cy="621.2639" fill="#ADD1B2" rx="11" ry="11" style="stroke:#181818;stroke-width:1;"/><path d="M899.0531,627.407 Q898.4721,627.7058 897.8329,627.8553 Q897.1938,628.0047 896.4882,628.0047 Q893.9814,628.0047 892.6615,626.3528 Q891.3417,624.701 891.3417,621.5799 Q891.3417,618.4505 892.6615,616.7986 Q893.9814,615.1468 896.4882,615.1468 Q897.1938,615.1468 897.8412,615.2962 Q898.4887,615.4456 899.0531,615.7444 L899.0531,618.4671 Q898.4223,617.886 897.8288,617.6162 Q897.2353,617.3465 896.6044,617.3465 Q895.2597,617.3465 894.5749,618.4131 Q893.8901,619.4798 893.8901,621.5799 Q893.8901,623.6717 894.5749,624.7383 Q895.2597,625.805 896.6044,625.805 Q897.2353,625.805 897.8288,625.5352 Q898.4223,625.2654 899.0531,624.6844 Z " fill="#000000"/><text fill="#000000" font-family="sans-serif" font-size="12" font-style="italic" lengthAdjust="spacing" textLength="107.7012" x="911.58" y="616.3216">&#171;ISO 19156:2023&#187;</text><text fill="#000000" font-family="sans-serif" font-size="11" lengthAdjust="spacing" textLength="53.48" x="938.6906" y="635.4876">Procedure</text><line style="stroke:#181818;stroke-width:0.5;" x1="882.58" x2="1022.2812" y1="645.8079" y2="645.8079"/><line style="stroke:#181818;stroke-width:0.5;" x1="882.58" x2="1022.2812" y1="653.8079" y2="653.8079"/></g><g class="entity" data-entity="GMN20" data-source-line="80" data-uid="ent0021" id="entity_GMN20"><path d="M321.75,598.3 L321.75,660.2316 A0,0 0 0 0 321.75,660.2316 L487.1099,660.2316 A0,0 0 0 0 487.1099,660.2316 L487.1099,608.3 L477.1099,598.3 L408.43,598.3 L404.43,526.04 L400.43,598.3 L321.75,598.3 A0,0 0 0 0 321.75,598.3" fill="#FEFFDD" style="stroke:#181818;stroke-width:0.5;"/><path d="M477.1099,598.3 L477.1099,608.3 L487.1099,608.3 L477.1099,598.3" fill="#FEFFDD" style="stroke:#181818;stroke-width:0.5;"/><text fill="#000000" font-family="sans-serif" font-size="13" lengthAdjust="spacing" textLength="100.9087" x="330.75" y="618.8684">Observation per</text><text fill="#000000" font-family="sans-serif" font-size="13" lengthAdjust="spacing" textLength="138.3599" x="330.75" y="634.1789">ISO/OGC 19156:2023</text><text fill="#000000" font-family="sans-serif" font-size="13" lengthAdjust="spacing" textLength="61.4199" x="330.75" y="649.4895">(OMS 3.0)</text></g><!--link Source to SourceType--><!--link Source to SourceType--><g class="link" data-entity-1="Source" data-entity-2="SourceType" data-source-line="123" data-uid="lnk49" id="link_Source_SourceType"><path codeLine="123" d="M188.05,59.43 C211.9,59.43 231.84,59.43 256.42,59.43" fill="none" id="Source-to-SourceType" style="stroke:#181818;stroke-width:1;"/><polygon fill="#181818" points="262.42,59.43,253.42,55.43,257.42,59.43,253.42,63.43,262.42,59.43" style="stroke:#181818;stroke-width:1;"/><text fill="#000000" font-family="sans-serif" font-size="13" lengthAdjust="spacing" textLength="27.0791" x="211.81" y="49.9984">type</text><text fill="#000000" font-family="sans-serif" font-size="13" lengthAdjust="spacing" textLength="6.2651" x="198.7599" y="53.1742">*</text><text fill="#000000" font-family="sans-serif" font-size="13" lengthAdjust="spacing" textLength="24.667" x="226.935" y="75.7474">0..1</text></g><!--link SourceType to TemporalBound--><!--link TemporalBound to EmissionQuantity--><!--link EmissionQuantity to UnitOfMeasure--><!--reverse link EmissionQuantity to UnitOfMeasure--><g class="link" data-entity-1="EmissionQuantity" data-entity-2="UnitOfMeasure" data-source-line="101" data-uid="lnk36" id="link_EmissionQuantity_UnitOfMeasure"><path codeLine="101" d="M902.61,59.43 C925.79,59.43 938.85,59.43 961.77,59.43" fill="none" id="EmissionQuantity-backto-UnitOfMeasure" style="stroke:#181818;stroke-width:1;"/><polygon fill="#181818" points="890.61,59.43,896.61,63.43,902.61,59.43,896.61,55.43,890.61,59.43" style="stroke:#181818;stroke-width:1;"/><text fill="#000000" font-family="sans-serif" font-size="13" lengthAdjust="spacing" textLength="24.7559" x="914.29" y="49.9984">unit</text><text fill="#000000" font-family="sans-serif" font-size="13" lengthAdjust="spacing" textLength="8.2202" x="901.4554" y="53.1098">1</text><text fill="#000000" font-family="sans-serif" font-size="13" lengthAdjust="spacing" textLength="8.2202" x="943.0616" y="53.0768">1</text></g><!--link UnitOfMeasure to Mechanism--><!--link Observation to DeterminationProcedure--><!--link Source to Feature--><g class="link" data-entity-1="Source" data-entity-2="Feature" data-source-line="83" data-uid="lnk23" id="link_Source_Feature"><path codeLine="83" d="M102.37,93.27 C110.99,150.53 126.0624,250.7103 135.5124,313.5303" fill="none" id="Source-to-Feature" style="stroke:#181818;stroke-width:1;"/><polygon fill="none" points="138.19,331.33,141.4456,312.6377,129.5791,314.4228,138.19,331.33" style="stroke:#181818;stroke-width:1;"/></g><!--link DeterminationProcedure to Procedure--><g class="link" data-entity-1="DeterminationProcedure" data-entity-2="Procedure" data-source-line="84" data-uid="lnk24" id="link_DeterminationProcedure_Procedure"><path codeLine="84" d="M952.43,546.09 C952.43,563.02 952.43,563.33 952.43,578.35" fill="none" id="DeterminationProcedure-to-Procedure" style="stroke:#181818;stroke-width:1;"/><polygon fill="none" points="952.43,596.35,958.43,578.35,946.43,578.35,952.43,596.35" style="stroke:#181818;stroke-width:1;"/></g><!--link TemporalBound to EmissionEvent--><!--link TemporalBound to EmissionEvent--><g class="link" data-entity-1="TemporalBound" data-entity-2="EmissionEvent" data-source-line="96" data-uid="lnk31" id="link_TemporalBound_EmissionEvent"><path codeLine="96" d="M611.28,102.74 C621.35,135.91 631.6839,169.9375 640.9439,200.4375" fill="none" id="TemporalBound-to-EmissionEvent" style="stroke:#181818;stroke-width:1;"/><polygon fill="#181818" points="644.43,211.92,646.5144,205.0167,640.9439,200.4375,638.8594,207.3408,644.43,211.92" style="stroke:#181818;stroke-width:1;"/><text fill="#000000" font-family="sans-serif" font-size="13" lengthAdjust="spacing" textLength="60.2075" x="632.11" y="153.4284">startTime</text><text fill="#000000" font-family="sans-serif" font-size="13" lengthAdjust="spacing" textLength="8.2202" x="601.1183" y="125.8979">1</text><text fill="#000000" font-family="sans-serif" font-size="13" lengthAdjust="spacing" textLength="8.2202" x="630.4213" y="198.6041">1</text></g><!--link TemporalBound to EmissionEvent--><g class="link" data-entity-1="TemporalBound" data-entity-2="EmissionEvent" data-source-line="97" data-uid="lnk33" id="link_TemporalBound_EmissionEvent"><path codeLine="97" d="M553.68,102.42 C540.48,119.93 531.83,140.63 541.43,159.86 C552.07,181.16 560.9992,191.6815 580.2492,205.0315" fill="none" id="TemporalBound-to-EmissionEvent-1" style="stroke:#181818;stroke-width:1;"/><polygon fill="#181818" points="590.11,211.87,587.4591,205.1638,580.2492,205.0315,582.9001,211.7377,590.11,211.87" style="stroke:#181818;stroke-width:1;"/><text fill="#000000" font-family="sans-serif" font-size="13" lengthAdjust="spacing" textLength="54.8501" x="545.43" y="153.4284">endTime</text><text fill="#000000" font-family="sans-serif" font-size="13" lengthAdjust="spacing" textLength="24.667" x="517.9534" y="125.8682">0..1</text><text fill="#000000" font-family="sans-serif" font-size="13" lengthAdjust="spacing" textLength="8.2202" x="582.9193" y="198.5452">1</text></g><!--link EmissionQuantity to EmissionEvent--><!--link EmissionQuantity to EmissionEvent--><g class="link" data-entity-1="EmissionQuantity" data-entity-2="EmissionEvent" data-source-line="100" data-uid="lnk35" id="link_EmissionQuantity_EmissionEvent"><path codeLine="100" d="M771.56,102.74 C744.21,135.91 714.3307,172.1587 689.2007,202.6587" fill="none" id="EmissionQuantity-to-EmissionEvent" style="stroke:#181818;stroke-width:1;"/><polygon fill="#181818" points="681.57,211.92,688.4725,209.8329,689.2007,202.6587,682.2983,204.7458,681.57,211.92" style="stroke:#181818;stroke-width:1;"/><text fill="#000000" font-family="sans-serif" font-size="13" lengthAdjust="spacing" textLength="51.7715" x="743.53" y="153.4284">quantity</text><text fill="#000000" font-family="sans-serif" font-size="13" lengthAdjust="spacing" textLength="8.2202" x="754.6877" y="125.8979">1</text><text fill="#000000" font-family="sans-serif" font-size="13" lengthAdjust="spacing" textLength="8.2202" x="674.1769" y="198.6041">1</text></g><!--link Mechanism to DeterminationProcedure--><!--link EmissionEvent to Observation--><!--link EmissionEvent to Observation--><g class="link" data-entity-1="EmissionEvent" data-entity-2="Observation" data-source-line="110" data-uid="lnk41" id="link_EmissionEvent_Observation"><path codeLine="110" d="M589.96,253.86 C502.21,264.91 352.31,289.55 319.43,331.81 C296.49,361.29 304.23,381.74 319.43,415.86 C327.19,433.26 336.4909,444.4947 350.8209,456.5647" fill="none" id="EmissionEvent-to-Observation" style="stroke:#181818;stroke-width:1;"/><polygon fill="#181818" points="355.41,460.43,351.1033,451.5727,351.5858,457.2089,345.9496,457.6914,355.41,460.43" style="stroke:#181818;stroke-width:1;"/><text fill="#000000" font-family="sans-serif" font-size="13" lengthAdjust="spacing" textLength="106.6978" x="323.43" y="378.9084">quantityEvidence</text><text fill="#000000" font-family="sans-serif" font-size="13" lengthAdjust="spacing" textLength="8.2202" x="570.7089" y="248.1598">1</text><text fill="#000000" font-family="sans-serif" font-size="13" lengthAdjust="spacing" textLength="6.2651" x="336.29" y="447.0318">*</text></g><!--link EmissionEvent to Observation--><g class="link" data-entity-1="EmissionEvent" data-entity-2="Observation" data-source-line="111" data-uid="lnk42" id="link_EmissionEvent_Observation"><path codeLine="111" d="M589.68,265.93 C553.21,279.42 508.99,300.71 478.43,331.81 C477.82,332.44 442.9721,408.2766 421.5821,454.8966" fill="none" id="EmissionEvent-to-Observation-1" style="stroke:#181818;stroke-width:1;"/><polygon fill="#181818" points="419.08,460.35,426.4687,453.838,421.1651,455.8055,419.1976,450.5018,419.08,460.35" style="stroke:#181818;stroke-width:1;"/><text fill="#000000" font-family="sans-serif" font-size="13" lengthAdjust="spacing" textLength="115.1338" x="482.43" y="378.9084">startTimeEvidence</text><text fill="#000000" font-family="sans-serif" font-size="13" lengthAdjust="spacing" textLength="8.2202" x="570.8443" y="284.8614">1</text><text fill="#000000" font-family="sans-serif" font-size="13" lengthAdjust="spacing" textLength="6.2651" x="411.6992" y="446.937">*</text></g><!--link EmissionEvent to Observation--><g class="link" data-entity-1="EmissionEvent" data-entity-2="Observation" data-source-line="112" data-uid="lnk43" id="link_EmissionEvent_Observation"><path codeLine="112" d="M648.96,279.51 C641.13,322.78 625.63,395.97 607.43,415.86 C573.37,453.09 525.2038,470.9737 481.4438,480.8137" fill="none" id="EmissionEvent-to-Observation-2" style="stroke:#181818;stroke-width:1;"/><polygon fill="#181818" points="475.59,482.13,485.2483,484.0581,480.4682,481.0331,483.4932,476.253,475.59,482.13" style="stroke:#181818;stroke-width:1;"/><text fill="#000000" font-family="sans-serif" font-size="13" lengthAdjust="spacing" textLength="109.7764" x="641.61" y="378.9084">endTimeEvidence</text><text fill="#000000" font-family="sans-serif" font-size="13" lengthAdjust="spacing" textLength="8.2202" x="635.7582" y="302.9742">1</text><text fill="#000000" font-family="sans-serif" font-size="13" lengthAdjust="spacing" textLength="6.2651" x="486.1984" y="474.5811">*</text></g><!--link Mechanism to EmissionIntent--><!--link Mechanism to EmissionIntent--><g class="link" data-entity-1="Mechanism" data-entity-2="EmissionIntent" data-source-line="124" data-uid="lnk50" id="link_Mechanism_EmissionIntent"><path codeLine="124" d="M1281.57,102.74 C1290.25,126.98 1299.2564,152.1616 1308.8364,178.9016" fill="none" id="Mechanism-to-EmissionIntent" style="stroke:#181818;stroke-width:1;"/><polygon fill="#181818" points="1310.86,184.55,1311.5902,174.7282,1309.1736,179.843,1304.0589,177.4264,1310.86,184.55" style="stroke:#181818;stroke-width:1;"/><text fill="#000000" font-family="sans-serif" font-size="13" lengthAdjust="spacing" textLength="36.8608" x="1305.41" y="153.4284">intent</text><text fill="#000000" font-family="sans-serif" font-size="13" lengthAdjust="spacing" textLength="6.2651" x="1273.8741" y="125.8979">*</text><text fill="#000000" font-family="sans-serif" font-size="13" lengthAdjust="spacing" textLength="8.2202" x="1296.7467" y="171.2837">1</text></g><!--reverse link Source to EmissionEvent--><g class="link" data-entity-1="Source" data-entity-2="EmissionEvent" data-source-line="104" data-uid="lnk38" id="link_Source_EmissionEvent"><path codeLine="104" d="M193.8395,95.0626 C211.7895,101.3826 224.85,105.91 242.43,111.86 C364.7,153.27 508.35,198.97 589.66,224.56" fill="none" id="Source-backto-EmissionEvent" style="stroke:#181818;stroke-width:1;"/><polygon fill="#181818" points="188.18,93.07,195.3408,99.8319,192.8962,94.7305,197.9976,92.286,188.18,93.07" style="stroke:#181818;stroke-width:1;"/><text fill="#000000" font-family="sans-serif" font-size="13" lengthAdjust="spacing" textLength="41.9009" x="382.02" y="153.4284">source</text><text fill="#000000" font-family="sans-serif" font-size="13" lengthAdjust="spacing" textLength="8.2202" x="192.1174" y="116.5289">1</text><text fill="#000000" font-family="sans-serif" font-size="13" lengthAdjust="spacing" textLength="6.2651" x="572.9339" y="215.6697">*</text></g><!--reverse link Mechanism to EmissionEvent--><g class="link" data-entity-1="Mechanism" data-entity-2="EmissionEvent" data-source-line="107" data-uid="lnk40" id="link_Mechanism_EmissionEvent"><path codeLine="107" d="M1160.1239,104.8918 C1151.6139,108.0918 1148.71,109.05 1140.43,111.86 C991.95,162.27 813.13,207.28 719.25,229.74" fill="none" id="Mechanism-backto-EmissionEvent" style="stroke:#181818;stroke-width:1;"/><polygon fill="#181818" points="1165.74,102.78,1155.908,102.2037,1161.0599,104.5398,1158.7238,109.6918,1165.74,102.78" style="stroke:#181818;stroke-width:1;"/><text fill="#000000" font-family="sans-serif" font-size="13" lengthAdjust="spacing" textLength="71.8745" x="1066" y="153.4284">mechanism</text><text fill="#000000" font-family="sans-serif" font-size="13" lengthAdjust="spacing" textLength="8.2202" x="1141.6288" y="124.9309">1</text><text fill="#000000" font-family="sans-serif" font-size="13" lengthAdjust="spacing" textLength="6.2651" x="729.5669" y="221.5815">*</text></g><!--link EmissionEvent to DeterminationProcedure--><g class="link" data-entity-1="EmissionEvent" data-entity-2="DeterminationProcedure" data-source-line="115" data-uid="lnk44" id="link_EmissionEvent_DeterminationProcedure"><path codeLine="115" d="M718.91,251.34 C818.96,259.81 1004.27,281.96 1044.43,331.81 C1067.86,360.9 1060.3,382.04 1044.43,415.86 C1040.2,424.88 1038.3197,428.7376 1031.5497,436.3076" fill="none" id="EmissionEvent-to-DeterminationProcedure" style="stroke:#181818;stroke-width:1;"/><polygon fill="#181818" points="1027.55,440.78,1036.5312,436.7379,1030.8831,437.053,1030.568,431.4049,1027.55,440.78" style="stroke:#181818;stroke-width:1;"/><text fill="#000000" font-family="sans-serif" font-size="13" lengthAdjust="spacing" textLength="91.876" x="1063.3" y="378.9084">startTimeBasis</text><text fill="#000000" font-family="sans-serif" font-size="13" lengthAdjust="spacing" textLength="8.2202" x="729.7401" y="245.3787">1</text><text fill="#000000" font-family="sans-serif" font-size="13" lengthAdjust="spacing" textLength="8.2202" x="1025.2921" y="427.2948">1</text></g><!--link EmissionEvent to DeterminationProcedure--><g class="link" data-entity-1="EmissionEvent" data-entity-2="DeterminationProcedure" data-source-line="116" data-uid="lnk45" id="link_EmissionEvent_DeterminationProcedure"><path codeLine="116" d="M706.27,279.78 C726.11,294.1 747.92,312.12 764.43,331.81 C791.52,364.12 778.7,385.96 808.43,415.86 C819.61,427.1 827.7126,433.8673 841.4826,442.5973" fill="none" id="EmissionEvent-to-DeterminationProcedure-1" style="stroke:#181818;stroke-width:1;"/><polygon fill="#181818" points="846.55,445.81,841.0907,437.6127,842.3272,443.1328,836.8071,444.3693,846.55,445.81" style="stroke:#181818;stroke-width:1;"/><text fill="#000000" font-family="sans-serif" font-size="13" lengthAdjust="spacing" textLength="86.5186" x="812.43" y="378.9084">endTimeBasis</text><text fill="#000000" font-family="sans-serif" font-size="13" lengthAdjust="spacing" textLength="8.2202" x="702.9956" y="303.0136">1</text><text fill="#000000" font-family="sans-serif" font-size="13" lengthAdjust="spacing" textLength="24.667" x="811.0741" y="436.3124">0..1</text></g><!--link EmissionEvent to DeterminationProcedure--><g class="link" data-entity-1="EmissionEvent" data-entity-2="DeterminationProcedure" data-source-line="117" data-uid="lnk46" id="link_EmissionEvent_DeterminationProcedure"><path codeLine="117" d="M719.27,251.71 C776.76,259.48 859.05,279.63 908.43,331.81 C923.32,347.55 934.7348,394.0484 942.5748,434.7384" fill="none" id="EmissionEvent-to-DeterminationProcedure-2" style="stroke:#181818;stroke-width:1;"/><polygon fill="#181818" points="943.71,440.63,945.935,431.0358,942.764,435.7203,938.0795,432.5493,943.71,440.63" style="stroke:#181818;stroke-width:1;"/><text fill="#000000" font-family="sans-serif" font-size="13" lengthAdjust="spacing" textLength="83.4399" x="942.02" y="378.9084">quantityBasis</text><text fill="#000000" font-family="sans-serif" font-size="13" lengthAdjust="spacing" textLength="8.2202" x="729.6897" y="268.9828">1</text><text fill="#000000" font-family="sans-serif" font-size="13" lengthAdjust="spacing" textLength="8.2202" x="930.7101" y="427.1255">1</text></g><!--reverse link Feature to Observation--><g class="link" data-entity-1="Feature" data-entity-2="Observation" data-source-line="120" data-uid="lnk48" id="link_Feature_Observation"><path codeLine="120" d="M222.625,413.6331 C226.075,415.2631 224.08,414.3 227.43,415.86 C262.06,431.88 300.95,448.79 333.44,462.62" fill="none" id="Feature-backto-Observation" style="stroke:#181818;stroke-width:1;"/><polygon fill="#181818" points="217.2,411.07,223.6287,418.5313,221.7208,413.2059,227.0462,411.298,217.2,411.07" style="stroke:#181818;stroke-width:1;"/><text fill="#000000" font-family="sans-serif" font-size="13" lengthAdjust="spacing" textLength="161.5986" x="110.29" y="454.0084">ultimateFeatureOfInterest</text><text fill="#000000" font-family="sans-serif" font-size="13" lengthAdjust="spacing" textLength="8.2202" x="228.0629" y="408.2857">1</text><text fill="#000000" font-family="sans-serif" font-size="13" lengthAdjust="spacing" textLength="6.2651" x="316.514" y="452.9583">*</text></g><!--SRC=[jLTjRzis4FwkNt78boPPdDb9Mw12O21Dqy903A-r-waj0bewsrmaKYKf1zaBi1-nNxXViYCbowHikTsm0KKgqtVFtJryxav-1hSvrvfBCRw3wxasYYK6RgH8i30bos0iKypW-A9_yRBNl-Zrdvz4pngVspKA0mdzGONf6IZCcA5plUA51iLIpWo2BCqZKsaKwGSk2gPO3ad6jBusHl5vQN2KI37blo3qFHD1WJKMyDm_L4mysCCN_c71qfIB9Los0xoLmZZSmMLdxAtD8ABA_lhp3_e7Crc0aeynJ6Mf4Zoh_vyz5VGymxoGYcMlPIcew0qPxqic33TFPp36PCK4rtaD5xcGDGRy6W7y85YE4CFDYbd2KKqf7IhXK__yVF0b-ZqAN6pOoYrZSxgD7J_x5R6LA5vO-hk1dTs22rwRVVmmsWOBwghY6UxId8tlHq8RgiyUVYLTK9rq_kRz_Ms6kHM13N3gPTvcfS9RiwoqW1-GPTyDjQNpF-60SEkRw7rQyJH5yKNnvShqFBOZZ_YsLK1J59BMjcsp4EtGqlRuI7SpMOoHwL9X57pQiMs8yPGx9eiCA_66RHfeCVpAyLh8B2lj7Rkg6sqqoA-bCJAla2TpZMhjUlqCtY1nd7FXFlwaP8AfpJQ8vpd0rTLeEe71gy6Bbp7DbSlXa19eRhi3xV-IlwSAFySsrVkpyjYPq2nHCMJ85jM4GHqo45xbjyhHJ_bSTfRQrS5laHcBtZ3SV-N89QSboXoDigtsRdm_cV-CYTdjrX5DSjB3rTKDJTyxhatjpjqv6RYsBKNxyuEGZs8BjxsshhiMaXR3l5AKN0Jo2DG51QhFWZ1-dBoxyN0-Y-F9U0gNv_qJxn96OeMAauQJHdwRLayfmTvlmmr5KOVC6hjzTtp7dcYNnR16PNX2ov66rrBaNdDrJ0C76lRSWKcmptex0rjc7S8C-xlbu_6xfpeduK9gfp3RF7LjdIc4ul4GRsI-mOcXBC38rewfaSDaZmP7SDehYvvx2XrYe2sap8pMKhUNRUXTHnIfSpkOtiwb79FM3IneDCf7VV8z2Uz0nF2rS_fNhXMDzZaS4h7jD9_GQwrbmfcVSQtl_OcT7e7DQ-YmQqkYq3rqm_RSpBFWEoyoX_2tnZ7aUpRJxPgJPXACmTPhuVq-xsIsOcVeWeLZOaFh1lWVEJSw-bVUjPWQNszBCitrjiJ3k_50I7hkyFLoTy4EeLIjq0bKb_5Dc4COcrkeGBo5w156-Iwn6PB-Dqv26IvC7MQpmKY76Rryqi-7-cIo6BbV6ThlXpixgi8V7U7OT_3L2c_Oy5xjOZ3sPM-hN6VlLTtQYt6z2AE_0G00]--></g></svg>