<svg xmlns="http://www.w3.org/2000/svg" xmlns:xlink="http://www.w3.org/1999/xlink" contentStyleType="text/css" data-diagram-type="CLASS" height="476px" preserveAspectRatio="none" style="width:1924px;height:476px;background:#FFFFFF;" version="1.1" viewBox="0 0 1924 476" width="1924px" zoomAndPan="magnify"><defs/><g><!--class EmissionEvent--><g class="entity" data-entity="EmissionEvent" data-source-line="20" data-uid="ent0002" id="entity_EmissionEvent"><rect fill="#F1F1F1" height="64.4883" rx="2.5" ry="2.5" style="stroke:#181818;stroke-width:0.5;" width="152.8682" x="956.01" y="7"/><ellipse cx="981.8082" cy="23" fill="#ADD1B2" rx="11" ry="11" style="stroke:#181818;stroke-width:1;"/><path d="M984.2814,29.1431 Q983.7003,29.4419 983.0612,29.5913 Q982.422,29.7407 981.7164,29.7407 Q979.2096,29.7407 977.8898,28.0889 Q976.57,26.437 976.57,23.3159 Q976.57,20.1865 977.8898,18.5347 Q979.2096,16.8828 981.7164,16.8828 Q982.422,16.8828 983.0695,17.0322 Q983.7169,17.1816 984.2814,17.4805 L984.2814,20.2031 Q983.6505,19.6221 983.057,19.3523 Q982.4635,19.0825 981.8327,19.0825 Q980.4879,19.0825 979.8031,20.1492 Q979.1183,21.2158 979.1183,23.3159 Q979.1183,25.4077 979.8031,26.4744 Q980.4879,27.541 981.8327,27.541 Q982.4635,27.541 983.057,27.2712 Q983.6505,27.0015 984.2814,26.4204 Z " fill="#000000"/><text fill="#000000" font-family="sans-serif" font-size="14" lengthAdjust="spacing" textLength="96.8721" x="998.2079" y="28.291">EmissionEvent</text><line style="stroke:#181818;stroke-width:0.5;" x1="957.01" x2="1107.8782" y1="39" y2="39"/><text fill="#000000" font-family="sans-serif" font-size="14" lengthAdjust="spacing" textLength="140.8682" x="962.01" y="56.5352">+pollutantType : URI</text><line style="stroke:#181818;stroke-width:0.5;" x1="957.01" x2="1107.8782" y1="63.4883" y2="63.4883"/></g><!--class EmissionQuantity--><g class="entity" data-entity="EmissionQuantity" data-source-line="24" data-uid="ent0003" id="entity_EmissionQuantity"><rect fill="#F1F1F1" height="80.9766" rx="2.5" ry="2.5" style="stroke:#181818;stroke-width:0.5;" width="202.8799" x="7" y="176.73"/><ellipse cx="45.7366" cy="192.73" fill="#ADD1B2" rx="11" ry="11" style="stroke:#181818;stroke-width:1;"/><path d="M48.2098,198.8731 Q47.6287,199.1719 46.9896,199.3213 Q46.3504,199.4707 45.6448,199.4707 Q43.138,199.4707 41.8182,197.8189 Q40.4983,196.167 40.4983,193.0459 Q40.4983,189.9165 41.8182,188.2647 Q43.138,186.6128 45.6448,186.6128 Q46.3504,186.6128 46.9979,186.7622 Q47.6453,186.9116 48.2098,187.2105 L48.2098,189.9331 Q47.5789,189.3521 46.9854,189.0823 Q46.3919,188.8125 45.761,188.8125 Q44.4163,188.8125 43.7315,189.8792 Q43.0467,190.9458 43.0467,193.0459 Q43.0467,195.1377 43.7315,196.2044 Q44.4163,197.271 45.761,197.271 Q46.3919,197.271 46.9854,197.0012 Q47.5789,196.7315 48.2098,196.1504 Z " fill="#000000"/><text fill="#000000" font-family="sans-serif" font-size="14" lengthAdjust="spacing" textLength="118.1318" x="65.0114" y="198.021">EmissionQuantity</text><line style="stroke:#181818;stroke-width:0.5;" x1="8" x2="208.8799" y1="208.73" y2="208.73"/><text fill="#000000" font-family="sans-serif" font-size="14" lengthAdjust="spacing" textLength="88.3613" x="13" y="226.2652">+value : Real</text><text fill="#000000" font-family="sans-serif" font-size="14" lengthAdjust="spacing" textLength="190.8799" x="13" y="242.7534">+quality : DQ_Element [0..*]</text><line style="stroke:#181818;stroke-width:0.5;" x1="8" x2="208.8799" y1="249.7066" y2="249.7066"/></g><!--class UnitOfMeasure--><g class="entity" data-entity="UnitOfMeasure" data-source-line="29" data-uid="ent0004" id="entity_UnitOfMeasure"><rect fill="#F1F1F1" height="97.4648" rx="2.5" ry="2.5" style="stroke:#181818;stroke-width:0.5;" width="190.8691" x="13.01" y="367.26"/><ellipse cx="54.2137" cy="383.26" fill="#ADD1B2" rx="11" ry="11" style="stroke:#181818;stroke-width:1;"/><path d="M56.6869,389.4031 Q56.1058,389.7019 55.4666,389.8513 Q54.8275,390.0007 54.1219,390.0007 Q51.6151,390.0007 50.2953,388.3489 Q48.9754,386.697 48.9754,383.5759 Q48.9754,380.4465 50.2953,378.7947 Q51.6151,377.1428 54.1219,377.1428 Q54.8275,377.1428 55.4749,377.2922 Q56.1224,377.4416 56.6869,377.7405 L56.6869,380.4631 Q56.056,379.8821 55.4625,379.6123 Q54.869,379.3425 54.2381,379.3425 Q52.8934,379.3425 52.2086,380.4092 Q51.5238,381.4758 51.5238,383.5759 Q51.5238,385.6677 52.2086,386.7344 Q52.8934,387.801 54.2381,387.801 Q54.869,387.801 55.4625,387.5312 Q56.056,387.2615 56.6869,386.6804 Z " fill="#000000"/><text fill="#000000" font-family="sans-serif" font-size="14" lengthAdjust="spacing" textLength="100.6387" x="74.0368" y="388.551">UnitOfMeasure</text><line style="stroke:#181818;stroke-width:0.5;" x1="14.01" x2="202.8791" y1="399.26" y2="399.26"/><text fill="#000000" font-family="sans-serif" font-size="14" lengthAdjust="spacing" textLength="162.3262" x="19.01" y="416.7952">+label : CharacterString</text><text fill="#000000" font-family="sans-serif" font-size="14" lengthAdjust="spacing" textLength="178.8691" x="19.01" y="433.2834">+symbol : CharacterString</text><text fill="#000000" font-family="sans-serif" font-size="14" lengthAdjust="spacing" textLength="112.1162" x="19.01" y="449.7717">+definition : URI</text><line style="stroke:#181818;stroke-width:0.5;" x1="14.01" x2="202.8791" y1="456.7248" y2="456.7248"/></g><!--class TemporalBound--><g class="entity" data-entity="TemporalBound" data-source-line="35" data-uid="ent0005" id="entity_TemporalBound"><rect fill="#F1F1F1" height="80.9766" rx="2.5" ry="2.5" style="stroke:#181818;stroke-width:0.5;" width="202.8799" x="321" y="176.73"/><ellipse cx="364.5293" cy="192.73" fill="#ADD1B2" rx="11" ry="11" style="stroke:#181818;stroke-width:1;"/><path d="M367.0024,198.8731 Q366.4214,199.1719 365.7822,199.3213 Q365.1431,199.4707 364.4375,199.4707 Q361.9307,199.4707 360.6108,197.8189 Q359.291,196.167 359.291,193.0459 Q359.291,189.9165 360.6108,188.2647 Q361.9307,186.6128 364.4375,186.6128 Q365.1431,186.6128 365.7905,186.7622 Q366.438,186.9116 367.0024,187.2105 L367.0024,189.9331 Q366.3716,189.3521 365.7781,189.0823 Q365.1846,188.8125 364.5537,188.8125 Q363.209,188.8125 362.5242,189.8792 Q361.8394,190.9458 361.8394,193.0459 Q361.8394,195.1377 362.5242,196.2044 Q363.209,197.271 364.5537,197.271 Q365.1846,197.271 365.7781,197.0012 Q366.3716,196.7315 367.0024,196.1504 Z " fill="#000000"/><text fill="#000000" font-family="sans-serif" font-size="14" lengthAdjust="spacing" textLength="107.4814" x="384.8691" y="198.021">TemporalBound</text><line style="stroke:#181818;stroke-width:0.5;" x1="322" x2="522.8799" y1="208.73" y2="208.73"/><text fill="#000000" font-family="sans-serif" font-size="14" lengthAdjust="spacing" textLength="129.2334" x="327" y="226.2652">+time : TM_Instant</text><text fill="#000000" font-family="sans-serif" font-size="14" lengthAdjust="spacing" textLength="190.8799" x="327" y="242.7534">+quality : DQ_Element [0..*]</text><line style="stroke:#181818;stroke-width:0.5;" x1="322" x2="522.8799" y1="249.7066" y2="249.7066"/></g><!--class Observation--><g class="entity" data-entity="Observation" data-source-line="40" data-uid="ent0006" id="entity_Observation"><rect fill="#F1F1F1" height="56.6211" rx="2.5" ry="2.5" style="stroke:#181818;stroke-width:0.5;" width="135.7012" x="729.59" y="188.91"/><ellipse cx="744.59" cy="209.2205" fill="#ADD1B2" rx="11" ry="11" style="stroke:#181818;stroke-width:1;"/><path d="M747.0631,215.3636 Q746.4821,215.6624 745.8429,215.8119 Q745.2038,215.9613 744.4982,215.9613 Q741.9914,215.9613 740.6715,214.3094 Q739.3517,212.6576 739.3517,209.5365 Q739.3517,206.4071 740.6715,204.7552 Q741.9914,203.1034 744.4982,203.1034 Q745.2038,203.1034 745.8512,203.2528 Q746.4987,203.4022 747.0631,203.701 L747.0631,206.4237 Q746.4323,205.8426 745.8388,205.5728 Q745.2453,205.3031 744.6144,205.3031 Q743.2697,205.3031 742.5849,206.3697 Q741.9001,207.4364 741.9001,209.5365 Q741.9001,211.6283 742.5849,212.6949 Q743.2697,213.7616 744.6144,213.7616 Q745.2453,213.7616 745.8388,213.4918 Q746.4323,213.222 747.0631,212.641 Z " fill="#000000"/><text fill="#000000" font-family="sans-serif" font-size="12" font-style="italic" lengthAdjust="spacing" textLength="107.7012" x="756.59" y="205.5116">&#171;ISO 19156:2023&#187;</text><text fill="#000000" font-family="sans-serif" font-size="14" lengthAdjust="spacing" textLength="81.9014" x="769.4899" y="221.578">Observation</text><line style="stroke:#181818;stroke-width:0.5;" x1="730.59" x2="864.2912" y1="229.5311" y2="229.5311"/><line style="stroke:#181818;stroke-width:0.5;" x1="730.59" x2="864.2912" y1="237.5311" y2="237.5311"/></g><g class="entity" data-entity="GMN7" data-source-line="42" data-uid="ent0008" id="entity_GMN7"><path d="M339.48,395.69 L339.48,436.3111 A0,0 0 0 0 339.48,436.3111 L669.395,436.3111 A0,0 0 0 0 669.395,436.3111 L669.395,405.69 L659.395,395.69 L537.63,395.69 L756.08,246 L529.63,395.69 L339.48,395.69 A0,0 0 0 0 339.48,395.69" fill="#FEFFDD" style="stroke:#181818;stroke-width:0.5;"/><path d="M659.395,395.69 L659.395,405.69 L669.395,405.69 L659.395,395.69" fill="#FEFFDD" style="stroke:#181818;stroke-width:0.5;"/><text fill="#000000" font-family="sans-serif" font-size="13" lengthAdjust="spacing" textLength="308.915" x="345.48" y="413.2584">Observation per ISO/OGC 19156:2023 (OMS 3.0)</text><text fill="#000000" font-family="sans-serif" font-size="13" lengthAdjust="spacing" textLength="249.209" x="345.48" y="428.5689">See standard for complete specification</text></g><!--class Feature--><g class="entity" data-entity="Feature" data-source-line="44" data-uid="ent0010" id="entity_Feature"><rect fill="#F1F1F1" height="73.1094" rx="2.5" ry="2.5" style="stroke:#181818;stroke-width:0.5;" width="174.0254" x="769.43" y="379.44"/><ellipse cx="817.4163" cy="399.7505" fill="#ADD1B2" rx="11" ry="11" style="stroke:#181818;stroke-width:1;"/><path d="M819.8895,405.8936 Q819.3084,406.1924 818.6693,406.3419 Q818.0301,406.4913 817.3245,406.4913 Q814.8177,406.4913 813.4979,404.8394 Q812.178,403.1876 812.178,400.0665 Q812.178,396.9371 813.4979,395.2852 Q814.8177,393.6334 817.3245,393.6334 Q818.0301,393.6334 818.6776,393.7828 Q819.325,393.9322 819.8895,394.231 L819.8895,396.9537 Q819.2586,396.3726 818.6651,396.1028 Q818.0716,395.8331 817.4407,395.8331 Q816.096,395.8331 815.4112,396.8997 Q814.7264,397.9664 814.7264,400.0665 Q814.7264,402.1583 815.4112,403.2249 Q816.096,404.2916 817.4407,404.2916 Q818.0716,404.2916 818.6651,404.0218 Q819.2586,403.752 819.8895,403.171 Z " fill="#000000"/><text fill="#000000" font-family="sans-serif" font-size="12" font-style="italic" lengthAdjust="spacing" textLength="73.5527" x="835.9163" y="396.0416">&#171;ISO 19109&#187;</text><text fill="#000000" font-family="sans-serif" font-size="14" lengthAdjust="spacing" textLength="50.4902" x="847.4476" y="412.108">Feature</text><line style="stroke:#181818;stroke-width:0.5;" x1="770.43" x2="942.4554" y1="420.0611" y2="420.0611"/><text fill="#000000" font-family="sans-serif" font-size="14" lengthAdjust="spacing" textLength="162.0254" x="775.43" y="437.5963">+geometry : GM_Object</text><line style="stroke:#181818;stroke-width:0.5;" x1="770.43" x2="942.4554" y1="444.5494" y2="444.5494"/></g><!--class Source--><g class="entity" data-entity="Source" data-source-line="48" data-uid="ent0011" id="entity_Source"><rect fill="#F1F1F1" height="64.4883" rx="2.5" ry="2.5" style="stroke:#181818;stroke-width:0.5;" width="219.2793" x="981.8" y="184.98"/><ellipse cx="1064.426" cy="200.98" fill="#ADD1B2" rx="11" ry="11" style="stroke:#181818;stroke-width:1;"/><path d="M1066.8991,207.1231 Q1066.3181,207.4219 1065.6789,207.5713 Q1065.0397,207.7207 1064.3342,207.7207 Q1061.8273,207.7207 1060.5075,206.0689 Q1059.1877,204.417 1059.1877,201.2959 Q1059.1877,198.1665 1060.5075,196.5147 Q1061.8273,194.8628 1064.3342,194.8628 Q1065.0397,194.8628 1065.6872,195.0122 Q1066.3347,195.1616 1066.8991,195.4605 L1066.8991,198.1831 Q1066.2683,197.6021 1065.6748,197.3323 Q1065.0813,197.0625 1064.4504,197.0625 Q1063.1057,197.0625 1062.4208,198.1292 Q1061.736,199.1958 1061.736,201.2959 Q1061.736,203.3877 1062.4208,204.4544 Q1063.1057,205.521 1064.4504,205.521 Q1065.0813,205.521 1065.6748,205.2512 Q1066.2683,204.9815 1066.8991,204.4004 Z " fill="#000000"/><text fill="#000000" font-family="sans-serif" font-size="14" lengthAdjust="spacing" textLength="45.5273" x="1084.926" y="206.271">Source</text><line style="stroke:#181818;stroke-width:0.5;" x1="982.8" x2="1200.0793" y1="216.98" y2="216.98"/><text fill="#000000" font-family="sans-serif" font-size="14" lengthAdjust="spacing" textLength="207.2793" x="987.8" y="234.5152">+name : CharacterString [0..1]</text><line style="stroke:#181818;stroke-width:0.5;" x1="982.8" x2="1200.0793" y1="241.4683" y2="241.4683"/></g><!--class SourceType--><g class="entity" data-entity="SourceType" data-source-line="54" data-uid="ent0013" id="entity_SourceType"><rect fill="#F1F1F1" height="97.4648" rx="2.5" ry="2.5" style="stroke:#181818;stroke-width:0.5;" width="258.0664" x="1043.41" y="367.26"/><ellipse cx="1129.0404" cy="383.26" fill="#ADD1B2" rx="11" ry="11" style="stroke:#181818;stroke-width:1;"/><path d="M1131.5135,389.4031 Q1130.9325,389.7019 1130.2933,389.8513 Q1129.6541,390.0007 1128.9486,390.0007 Q1126.4417,390.0007 1125.1219,388.3489 Q1123.8021,386.697 1123.8021,383.5759 Q1123.8021,380.4465 1125.1219,378.7947 Q1126.4417,377.1428 1128.9486,377.1428 Q1129.6541,377.1428 1130.3016,377.2922 Q1130.9491,377.4416 1131.5135,377.7405 L1131.5135,380.4631 Q1130.8827,379.8821 1130.2892,379.6123 Q1129.6956,379.3425 1129.0648,379.3425 Q1127.7201,379.3425 1127.0352,380.4092 Q1126.3504,381.4758 1126.3504,383.5759 Q1126.3504,385.6677 1127.0352,386.7344 Q1127.7201,387.801 1129.0648,387.801 Q1129.6956,387.801 1130.2892,387.5312 Q1130.8827,387.2615 1131.5135,386.6804 Z " fill="#000000"/><text fill="#000000" font-family="sans-serif" font-size="14" lengthAdjust="spacing" textLength="78.3057" x="1149.5404" y="388.551">SourceType</text><line style="stroke:#181818;stroke-width:0.5;" x1="1044.41" x2="1300.4764" y1="399.26" y2="399.26"/><text fill="#000000" font-family="sans-serif" font-size="14" lengthAdjust="spacing" textLength="162.3262" x="1049.41" y="416.7952">+label : CharacterString</text><text fill="#000000" font-family="sans-serif" font-size="14" lengthAdjust="spacing" textLength="246.0664" x="1049.41" y="433.2834">+description : CharacterString [0..1]</text><text fill="#000000" font-family="sans-serif" font-size="14" lengthAdjust="spacing" textLength="112.1162" x="1049.41" y="449.7717">+definition : URI</text><line style="stroke:#181818;stroke-width:0.5;" x1="1044.41" x2="1300.4764" y1="456.7248" y2="456.7248"/></g><!--class Mechanism--><g class="entity" data-entity="Mechanism" data-source-line="60" data-uid="ent0014" id="entity_Mechanism"><rect fill="#F1F1F1" height="80.9766" rx="2.5" ry="2.5" style="stroke:#181818;stroke-width:0.5;" width="258.0664" x="1301.41" y="176.73"/><ellipse cx="1387.9974" cy="192.73" fill="#ADD1B2" rx="11" ry="11" style="stroke:#181818;stroke-width:1;"/><path d="M1390.4705,198.8731 Q1389.8895,199.1719 1389.2503,199.3213 Q1388.6112,199.4707 1387.9056,199.4707 Q1385.3988,199.4707 1384.0789,197.8189 Q1382.7591,196.167 1382.7591,193.0459 Q1382.7591,189.9165 1384.0789,188.2647 Q1385.3988,186.6128 1387.9056,186.6128 Q1388.6112,186.6128 1389.2586,186.7622 Q1389.9061,186.9116 1390.4705,187.2105 L1390.4705,189.9331 Q1389.8397,189.3521 1389.2462,189.0823 Q1388.6527,188.8125 1388.0218,188.8125 Q1386.6771,188.8125 1385.9923,189.8792 Q1385.3075,190.9458 1385.3075,193.0459 Q1385.3075,195.1377 1385.9923,196.2044 Q1386.6771,197.271 1388.0218,197.271 Q1388.6527,197.271 1389.2462,197.0012 Q1389.8397,196.7315 1390.4705,196.1504 Z " fill="#000000"/><text fill="#000000" font-family="sans-serif" font-size="14" lengthAdjust="spacing" textLength="76.3916" x="1408.4974" y="198.021">Mechanism</text><line style="stroke:#181818;stroke-width:0.5;" x1="1302.41" x2="1558.4764" y1="208.73" y2="208.73"/><text fill="#000000" font-family="sans-serif" font-size="14" lengthAdjust="spacing" textLength="162.3262" x="1307.41" y="226.2652">+label : CharacterString</text><text fill="#000000" font-family="sans-serif" font-size="14" lengthAdjust="spacing" textLength="246.0664" x="1307.41" y="242.7534">+description : CharacterString [0..1]</text><line style="stroke:#181818;stroke-width:0.5;" x1="1302.41" x2="1558.4764" y1="249.7066" y2="249.7066"/></g><!--class EmissionIntent--><g class="entity" data-entity="EmissionIntent" data-source-line="65" data-uid="ent0015" id="entity_EmissionIntent"><rect fill="#F1F1F1" height="106.0859" rx="2.5" ry="2.5" style="stroke:#181818;stroke-width:0.5;" width="131.9961" x="1401.44" y="362.95"/><ellipse cx="1416.44" cy="383.2605" fill="#ADD1B2" rx="11" ry="11" style="stroke:#181818;stroke-width:1;"/><path d="M1418.9131,389.4036 Q1418.3321,389.7024 1417.6929,389.8519 Q1417.0538,390.0013 1416.3482,390.0013 Q1413.8414,390.0013 1412.5215,388.3494 Q1411.2017,386.6976 1411.2017,383.5765 Q1411.2017,380.4471 1412.5215,378.7952 Q1413.8414,377.1434 1416.3482,377.1434 Q1417.0538,377.1434 1417.7012,377.2928 Q1418.3487,377.4422 1418.9131,377.741 L1418.9131,380.4637 Q1418.2823,379.8826 1417.6888,379.6128 Q1417.0953,379.3431 1416.4644,379.3431 Q1415.1197,379.3431 1414.4349,380.4097 Q1413.7501,381.4764 1413.7501,383.5765 Q1413.7501,385.6683 1414.4349,386.7349 Q1415.1197,387.8016 1416.4644,387.8016 Q1417.0953,387.8016 1417.6888,387.5318 Q1418.2823,387.262 1418.9131,386.681 Z " fill="#000000"/><text fill="#000000" font-family="sans-serif" font-size="12" font-style="italic" lengthAdjust="spacing" textLength="62.959" x="1448.9586" y="379.5516">&#171;CodeList&#187;</text><text fill="#000000" font-family="sans-serif" font-size="14" lengthAdjust="spacing" textLength="99.9961" x="1430.44" y="395.618">EmissionIntent</text><line style="stroke:#181818;stroke-width:0.5;" x1="1402.44" x2="1532.4361" y1="403.5711" y2="403.5711"/><text fill="#000000" font-family="sans-serif" font-size="14" lengthAdjust="spacing" textLength="72.8096" x="1407.44" y="421.1063">intentional</text><text fill="#000000" font-family="sans-serif" font-size="14" lengthAdjust="spacing" textLength="90.1865" x="1407.44" y="437.5945">unintentional</text><text fill="#000000" font-family="sans-serif" font-size="14" lengthAdjust="spacing" textLength="62.3232" x="1407.44" y="454.0828">unknown</text><line style="stroke:#181818;stroke-width:0.5;" x1="1402.44" x2="1532.4361" y1="461.0359" y2="461.0359"/></g><!--class Procedure--><g class="entity" data-entity="Procedure" data-source-line="71" data-uid="ent0016" id="entity_Procedure"><rect fill="#F1F1F1" height="56.6211" rx="2.5" ry="2.5" style="stroke:#181818;stroke-width:0.5;" width="135.7012" x="1720.59" y="387.69"/><ellipse cx="1735.59" cy="408.0005" fill="#ADD1B2" rx="11" ry="11" style="stroke:#181818;stroke-width:1;"/><path d="M1738.0631,414.1436 Q1737.4821,414.4424 1736.8429,414.5919 Q1736.2038,414.7413 1735.4982,414.7413 Q1732.9914,414.7413 1731.6715,413.0894 Q1730.3517,411.4376 1730.3517,408.3165 Q1730.3517,405.1871 1731.6715,403.5352 Q1732.9914,401.8834 1735.4982,401.8834 Q1736.2038,401.8834 1736.8512,402.0328 Q1737.4987,402.1822 1738.0631,402.481 L1738.0631,405.2037 Q1737.4323,404.6226 1736.8388,404.3528 Q1736.2453,404.0831 1735.6144,404.0831 Q1734.2697,404.0831 1733.5849,405.1497 Q1732.9001,406.2164 1732.9001,408.3165 Q1732.9001,410.4083 1733.5849,411.4749 Q1734.2697,412.5416 1735.6144,412.5416 Q1736.2453,412.5416 1736.8388,412.2718 Q1737.4323,412.002 1738.0631,411.421 Z " fill="#000000"/><text fill="#000000" font-family="sans-serif" font-size="12" font-style="italic" lengthAdjust="spacing" textLength="107.7012" x="1747.59" y="404.2916">&#171;ISO 19156:2023&#187;</text><text fill="#000000" font-family="sans-serif" font-size="14" lengthAdjust="spacing" textLength="68.0654" x="1767.4079" y="420.358">Procedure</text><line style="stroke:#181818;stroke-width:0.5;" x1="1721.59" x2="1855.2912" y1="428.3111" y2="428.3111"/><line style="stroke:#181818;stroke-width:0.5;" x1="1721.59" x2="1855.2912" y1="436.3111" y2="436.3111"/></g><!--class DeterminationProcedure--><g class="entity" data-entity="DeterminationProcedure" data-source-line="74" data-uid="ent0017" id="entity_DeterminationProcedure"><rect fill="#F1F1F1" height="97.4648" rx="2.5" ry="2.5" style="stroke:#181818;stroke-width:0.5;" width="258.0664" x="1659.41" y="168.49"/><ellipse cx="1701.7888" cy="184.49" fill="#ADD1B2" rx="11" ry="11" style="stroke:#181818;stroke-width:1;"/><path d="M1704.262,190.6331 Q1703.6809,190.9319 1703.0417,191.0813 Q1702.4026,191.2307 1701.697,191.2307 Q1699.1902,191.2307 1697.8704,189.5789 Q1696.5505,187.927 1696.5505,184.8059 Q1696.5505,181.6765 1697.8704,180.0247 Q1699.1902,178.3728 1701.697,178.3728 Q1702.4026,178.3728 1703.05,178.5222 Q1703.6975,178.6716 1704.262,178.9705 L1704.262,181.6931 Q1703.6311,181.1121 1703.0376,180.8423 Q1702.4441,180.5725 1701.8132,180.5725 Q1700.4685,180.5725 1699.7837,181.6392 Q1699.0989,182.7058 1699.0989,184.8059 Q1699.0989,186.8977 1699.7837,187.9644 Q1700.4685,189.031 1701.8132,189.031 Q1702.4441,189.031 1703.0376,188.7612 Q1703.6311,188.4915 1704.262,187.9104 Z " fill="#000000"/><text fill="#000000" font-family="sans-serif" font-size="14" lengthAdjust="spacing" textLength="165.2246" x="1721.873" y="189.781">DeterminationProcedure</text><line style="stroke:#181818;stroke-width:0.5;" x1="1660.41" x2="1916.4764" y1="200.49" y2="200.49"/><text fill="#000000" font-family="sans-serif" font-size="14" lengthAdjust="spacing" textLength="162.3262" x="1665.41" y="218.0252">+label : CharacterString</text><text fill="#000000" font-family="sans-serif" font-size="14" lengthAdjust="spacing" textLength="246.0664" x="1665.41" y="234.5134">+description : CharacterString [0..1]</text><text fill="#000000" font-family="sans-serif" font-size="14" lengthAdjust="spacing" textLength="152.2158" x="1665.41" y="251.0017">+definition : URI [0..1]</text><line style="stroke:#181818;stroke-width:0.5;" x1="1660.41" x2="1916.4764" y1="257.9548" y2="257.9548"/></g><!--link Source to Feature--><g class="link" data-entity-1="Source" data-entity-2="Feature" data-source-line="52" data-uid="lnk12" id="link_Source_Feature"><path codeLine="52" d="M1053.68,249.84 C1011.52,285.15 957.211,330.6244 913.081,367.5744" fill="none" id="Source-to-Feature" style="stroke:#181818;stroke-width:1;"/><polygon fill="none" points="899.28,379.13,916.9329,372.1748,909.2292,362.9741,899.28,379.13" style="stroke:#181818;stroke-width:1;"/></g><!--link DeterminationProcedure to Procedure--><g class="link" data-entity-1="DeterminationProcedure" data-entity-2="Procedure" data-source-line="80" data-uid="lnk18" id="link_DeterminationProcedure_Procedure"><path codeLine="80" d="M1788.44,266.36 C1788.44,304.36 1788.44,338.04 1788.44,369.37" fill="none" id="DeterminationProcedure-to-Procedure" style="stroke:#181818;stroke-width:1;"/><polygon fill="none" points="1788.44,387.37,1794.44,369.37,1782.44,369.37,1788.44,387.37" style="stroke:#181818;stroke-width:1;"/></g><!--reverse link EmissionEvent to EmissionQuantity--><g class="link" data-entity-1="EmissionEvent" data-entity-2="EmissionQuantity" data-source-line="85" data-uid="lnk19" id="link_EmissionEvent_EmissionQuantity"><path codeLine="85" d="M943.8106,47.5558 C732.3506,64.9858 168.44,111.49 168.44,111.49 C168.44,111.49 148.25,146.73 131.29,176.33" fill="none" id="EmissionEvent-backto-EmissionQuantity" style="stroke:#181818;stroke-width:1;"/><polygon fill="#181818" points="955.77,46.57,949.4617,43.0764,943.8106,47.5558,950.1189,51.0494,955.77,46.57" style="stroke:#181818;stroke-width:1;"/><text fill="#000000" font-family="sans-serif" font-size="13" lengthAdjust="spacing" textLength="51.7715" x="169.44" y="125.0584">quantity</text><text fill="#000000" font-family="sans-serif" font-size="13" lengthAdjust="spacing" textLength="8.2202" x="939.8395" y="44.1365">1</text><text fill="#000000" font-family="sans-serif" font-size="13" lengthAdjust="spacing" textLength="8.2202" x="126.4303" y="165.9098">1</text></g><!--reverse link EmissionEvent to TemporalBound--><g class="link" data-entity-1="EmissionEvent" data-entity-2="TemporalBound" data-source-line="86" data-uid="lnk20" id="link_EmissionEvent_TemporalBound"><path codeLine="86" d="M943.689,48.2929 C745.919,66.2129 246.44,111.49 246.44,111.49 C246.44,111.49 246.44,128.49 246.44,128.49 C246.44,128.49 295.93,153.16 342.42,176.33" fill="none" id="EmissionEvent-backto-TemporalBound" style="stroke:#181818;stroke-width:1;"/><polygon fill="#181818" points="955.64,47.21,949.3035,43.7678,943.689,48.2929,950.0254,51.7351,955.64,47.21" style="stroke:#181818;stroke-width:1;"/><text fill="#000000" font-family="sans-serif" font-size="13" lengthAdjust="spacing" textLength="60.2075" x="247.44" y="125.0584">startTime</text><text fill="#000000" font-family="sans-serif" font-size="13" lengthAdjust="spacing" textLength="8.2202" x="939.6967" y="61.3161">1</text><text fill="#000000" font-family="sans-serif" font-size="13" lengthAdjust="spacing" textLength="8.2202" x="320.5224" y="165.9098">1</text></g><!--reverse link EmissionEvent to TemporalBound--><g class="link" data-entity-1="EmissionEvent" data-entity-2="TemporalBound" data-source-line="87" data-uid="lnk21" id="link_EmissionEvent_TemporalBound"><path codeLine="87" d="M943.8935,51.9525 C795.0835,71.6225 493.44,111.49 493.44,111.49 C493.44,111.49 469.55,146.73 449.48,176.33" fill="none" id="EmissionEvent-backto-TemporalBound-1" style="stroke:#181818;stroke-width:1;"/><polygon fill="#181818" points="955.79,50.38,949.3176,47.2007,943.8935,51.9525,950.3659,55.1318,955.79,50.38" style="stroke:#181818;stroke-width:1;"/><text fill="#000000" font-family="sans-serif" font-size="13" lengthAdjust="spacing" textLength="54.8501" x="494.44" y="125.0584">endTime</text><text fill="#000000" font-family="sans-serif" font-size="13" lengthAdjust="spacing" textLength="8.2202" x="939.8615" y="64.7981">1</text><text fill="#000000" font-family="sans-serif" font-size="13" lengthAdjust="spacing" textLength="24.667" x="428.0262" y="165.9098">0..1</text></g><!--link EmissionEvent to Source--><g class="link" data-entity-1="EmissionEvent" data-entity-2="Source" data-source-line="88" data-uid="lnk22" id="link_EmissionEvent_Source"><path codeLine="88" d="M1080.88,71.91 C1109.99,90.94 1141.44,111.49 1141.44,111.49 C1141.44,111.49 1141.44,128.49 1141.44,128.49 C1141.44,128.49 1126.7806,154.207 1112.4606,179.337" fill="none" id="EmissionEvent-to-Source" style="stroke:#181818;stroke-width:1;"/><polygon fill="#181818" points="1109.49,184.55,1117.4212,178.7108,1111.9655,180.2058,1110.4705,174.7501,1109.49,184.55" style="stroke:#181818;stroke-width:1;"/><text fill="#000000" font-family="sans-serif" font-size="13" lengthAdjust="spacing" textLength="41.9009" x="1142.44" y="125.0584">source</text><text fill="#000000" font-family="sans-serif" font-size="13" lengthAdjust="spacing" textLength="6.2651" x="1083.5665" y="92.1646">*</text><text fill="#000000" font-family="sans-serif" font-size="13" lengthAdjust="spacing" textLength="8.2202" x="1104.2778" y="174.2396">1</text></g><!--link EmissionEvent to Mechanism--><g class="link" data-entity-1="EmissionEvent" data-entity-2="Mechanism" data-source-line="89" data-uid="lnk23" id="link_EmissionEvent_Mechanism"><path codeLine="89" d="M1109.3,71.18 C1157.07,90.41 1209.44,111.49 1209.44,111.49 C1209.44,111.49 1278.378,144.1605 1340.838,173.7605" fill="none" id="EmissionEvent-to-Mechanism" style="stroke:#181818;stroke-width:1;"/><polygon fill="#181818" points="1346.26,176.33,1339.84,168.8611,1341.7417,174.1888,1336.4141,176.0904,1346.26,176.33" style="stroke:#181818;stroke-width:1;"/><text fill="#000000" font-family="sans-serif" font-size="13" lengthAdjust="spacing" textLength="71.8745" x="1242.52" y="125.0584">mechanism</text><text fill="#000000" font-family="sans-serif" font-size="13" lengthAdjust="spacing" textLength="6.2651" x="1116.9416" y="91.048">*</text><text fill="#000000" font-family="sans-serif" font-size="13" lengthAdjust="spacing" textLength="8.2202" x="1323.6729" y="165.9098">1</text></g><!--link EmissionEvent to Observation--><g class="link" data-entity-1="EmissionEvent" data-entity-2="Observation" data-source-line="92" data-uid="lnk24" id="link_EmissionEvent_Observation"><path codeLine="92" d="M955.52,52.21 C825.07,72.5 574.44,111.49 574.44,111.49 C574.44,111.49 574.44,128.49 574.44,128.49 C574.44,128.49 658.1565,161.4234 723.7365,187.2234" fill="none" id="EmissionEvent-to-Observation" style="stroke:#181818;stroke-width:1;"/><polygon fill="#181818" points="729.32,189.42,722.4092,182.4028,724.6671,187.5895,719.4804,189.8474,729.32,189.42" style="stroke:#181818;stroke-width:1;"/><text fill="#000000" font-family="sans-serif" font-size="13" lengthAdjust="spacing" textLength="115.1338" x="575.44" y="125.0584">startTimeEvidence</text><text fill="#000000" font-family="sans-serif" font-size="13" lengthAdjust="spacing" textLength="8.2202" x="939.5919" y="51.008">1</text><text fill="#000000" font-family="sans-serif" font-size="13" lengthAdjust="spacing" textLength="6.2651" x="715.112" y="182.9247">*</text></g><!--link EmissionEvent to Observation--><g class="link" data-entity-1="EmissionEvent" data-entity-2="Observation" data-source-line="93" data-uid="lnk25" id="link_EmissionEvent_Observation"><path codeLine="93" d="M955.82,63.38 C886.91,84.18 796.44,111.49 796.44,111.49 C796.44,111.49 796.44,128.49 796.44,128.49 C796.44,128.49 796.7623,156.7604 797.0523,182.4604" fill="none" id="EmissionEvent-to-Observation-1" style="stroke:#181818;stroke-width:1;"/><polygon fill="#181818" points="797.12,188.46,801.0182,179.4154,797.0636,183.4603,793.0187,179.5057,797.12,188.46" style="stroke:#181818;stroke-width:1;"/><text fill="#000000" font-family="sans-serif" font-size="13" lengthAdjust="spacing" textLength="109.7764" x="797.44" y="125.0584">endTimeEvidence</text><text fill="#000000" font-family="sans-serif" font-size="13" lengthAdjust="spacing" textLength="8.2202" x="939.8944" y="79.0778">1</text><text fill="#000000" font-family="sans-serif" font-size="13" lengthAdjust="spacing" textLength="6.2651" x="790.4226" y="178.1303">*</text></g><!--link EmissionEvent to Observation--><g class="link" data-entity-1="EmissionEvent" data-entity-2="Observation" data-source-line="94" data-uid="lnk26" id="link_EmissionEvent_Observation"><path codeLine="94" d="M995.19,71.85 C965.35,97.17 928.44,128.49 928.44,128.49 C928.44,128.49 882.2555,159.4216 843.8755,185.1216" fill="none" id="EmissionEvent-to-Observation-2" style="stroke:#181818;stroke-width:1;"/><polygon fill="#181818" points="838.89,188.46,848.5938,186.7761,843.0446,185.678,844.1427,180.1288,838.89,188.46" style="stroke:#181818;stroke-width:1;"/><text fill="#000000" font-family="sans-serif" font-size="13" lengthAdjust="spacing" textLength="106.6978" x="949.33" y="125.0584">quantityEvidence</text><text fill="#000000" font-family="sans-serif" font-size="13" lengthAdjust="spacing" textLength="8.2202" x="979.3469" y="92.0931">1</text><text fill="#000000" font-family="sans-serif" font-size="13" lengthAdjust="spacing" textLength="6.2651" x="841.3298" y="178.1303">*</text></g><!--link EmissionEvent to DeterminationProcedure--><g class="link" data-entity-1="EmissionEvent" data-entity-2="DeterminationProcedure" data-source-line="97" data-uid="lnk27" id="link_EmissionEvent_DeterminationProcedure"><path codeLine="97" d="M1109.36,57.34 C1266.45,92.26 1609.44,168.49 1609.44,168.49 C1609.44,168.49 1625.2727,172.7136 1653.5027,180.2436" fill="none" id="EmissionEvent-to-DeterminationProcedure" style="stroke:#181818;stroke-width:1;"/><polygon fill="#181818" points="1659.3,181.79,1651.6349,175.6056,1654.4689,180.5014,1649.5731,183.3353,1659.3,181.79" style="stroke:#181818;stroke-width:1;"/><text fill="#000000" font-family="sans-serif" font-size="13" lengthAdjust="spacing" textLength="91.876" x="1423.81" y="125.0584">startTimeBasis</text><text fill="#000000" font-family="sans-serif" font-size="13" lengthAdjust="spacing" textLength="8.2202" x="1116.8296" y="55.8995">1</text><text fill="#000000" font-family="sans-serif" font-size="13" lengthAdjust="spacing" textLength="8.2202" x="1643.1933" y="176.7516">1</text></g><!--link EmissionEvent to DeterminationProcedure--><g class="link" data-entity-1="EmissionEvent" data-entity-2="DeterminationProcedure" data-source-line="98" data-uid="lnk28" id="link_EmissionEvent_DeterminationProcedure"><path codeLine="98" d="M1109.32,51.03 C1251.33,70.94 1540.44,111.49 1540.44,111.49 C1540.44,111.49 1603.6224,138.1763 1668.7124,165.6563" fill="none" id="EmissionEvent-to-DeterminationProcedure-1" style="stroke:#181818;stroke-width:1;"/><polygon fill="#181818" points="1674.24,167.99,1667.5044,160.8045,1669.6337,166.0453,1664.3929,168.1746,1674.24,167.99" style="stroke:#181818;stroke-width:1;"/><text fill="#000000" font-family="sans-serif" font-size="13" lengthAdjust="spacing" textLength="86.5186" x="1577.44" y="125.0584">endTimeBasis</text><text fill="#000000" font-family="sans-serif" font-size="13" lengthAdjust="spacing" textLength="8.2202" x="1116.7859" y="65.3906">1</text><text fill="#000000" font-family="sans-serif" font-size="13" lengthAdjust="spacing" textLength="24.667" x="1659.9146" y="157.6022">0..1</text></g><!--link EmissionEvent to DeterminationProcedure--><g class="link" data-entity-1="EmissionEvent" data-entity-2="DeterminationProcedure" data-source-line="99" data-uid="lnk29" id="link_EmissionEvent_DeterminationProcedure"><path codeLine="99" d="M1109.09,48.56 C1282.4,67.35 1689.44,111.49 1689.44,111.49 C1689.44,111.49 1712.8486,136.2495 1738.8786,163.7895" fill="none" id="EmissionEvent-to-DeterminationProcedure-2" style="stroke:#181818;stroke-width:1;"/><polygon fill="#181818" points="1743,168.15,1739.7249,158.8616,1739.5655,164.5163,1733.9109,164.3569,1743,168.15" style="stroke:#181818;stroke-width:1;"/><text fill="#000000" font-family="sans-serif" font-size="13" lengthAdjust="spacing" textLength="83.4399" x="1704.81" y="125.0584">quantityBasis</text><text fill="#000000" font-family="sans-serif" font-size="13" lengthAdjust="spacing" textLength="8.2202" x="1116.7871" y="46.3162">1</text><text fill="#000000" font-family="sans-serif" font-size="13" lengthAdjust="spacing" textLength="8.2202" x="1728.0625" y="157.7847">1</text></g><!--link Observation to Feature--><g class="link" data-entity-1="Observation" data-entity-2="Feature" data-source-line="102" data-uid="lnk30" id="link_Observation_Feature"><path codeLine="102" d="M791.11,245.98 C785.25,271.68 777.44,305.95 777.44,305.95 C777.44,305.95 777.44,322.95 777.44,322.95 C777.44,322.95 799.5829,348.7465 821.7629,374.5965" fill="none" id="Observation-to-Feature" style="stroke:#181818;stroke-width:1;"/><polygon fill="#181818" points="825.67,379.15,822.8451,369.715,822.4141,375.3554,816.7737,374.9244,825.67,379.15" style="stroke:#181818;stroke-width:1;"/><text fill="#000000" font-family="sans-serif" font-size="13" lengthAdjust="spacing" textLength="161.5986" x="778.44" y="319.5184">ultimateFeatureOfInterest</text><text fill="#000000" font-family="sans-serif" font-size="13" lengthAdjust="spacing" textLength="6.2651" x="783.2129" y="266.0589">*</text><text fill="#000000" font-family="sans-serif" font-size="13" lengthAdjust="spacing" textLength="8.2202" x="811.2791" y="368.5709">1</text></g><!--reverse link EmissionQuantity to UnitOfMeasure--><g class="link" data-entity-1="EmissionQuantity" data-entity-2="UnitOfMeasure" data-source-line="105" data-uid="lnk31" id="link_EmissionQuantity_UnitOfMeasure"><path codeLine="105" d="M108.44,270.04 C108.44,301.49 108.44,333.48 108.44,366.89" fill="none" id="EmissionQuantity-backto-UnitOfMeasure" style="stroke:#181818;stroke-width:1;"/><polygon fill="#181818" points="108.44,258.04,104.44,264.04,108.44,270.04,112.44,264.04,108.44,258.04" style="stroke:#181818;stroke-width:1;"/><text fill="#000000" font-family="sans-serif" font-size="13" lengthAdjust="spacing" textLength="24.7559" x="109.44" y="319.5184">unit</text><text fill="#000000" font-family="sans-serif" font-size="13" lengthAdjust="spacing" textLength="8.2202" x="99.8201" y="278.3344">1</text><text fill="#000000" font-family="sans-serif" font-size="13" lengthAdjust="spacing" textLength="8.2202" x="99.8923" y="356.5205">1</text></g><!--link Source to SourceType--><g class="link" data-entity-1="Source" data-entity-2="SourceType" data-source-line="108" data-uid="lnk32" id="link_Source_SourceType"><path codeLine="108" d="M1104.45,249.84 C1117.47,281.45 1135.3661,324.9317 1150.3661,361.3717" fill="none" id="Source-to-SourceType" style="stroke:#181818;stroke-width:1;"/><polygon fill="#181818" points="1152.65,366.92,1152.9231,357.0749,1150.7468,362.2964,1145.5253,360.1201,1152.65,366.92" style="stroke:#181818;stroke-width:1;"/><text fill="#000000" font-family="sans-serif" font-size="13" lengthAdjust="spacing" textLength="27.0791" x="1135.37" y="319.5184">type</text><text fill="#000000" font-family="sans-serif" font-size="13" lengthAdjust="spacing" textLength="6.2651" x="1100.3835" y="270.085">*</text><text fill="#000000" font-family="sans-serif" font-size="13" lengthAdjust="spacing" textLength="24.667" x="1124.226" y="356.5547">0..1</text></g><!--link Mechanism to EmissionIntent--><g class="link" data-entity-1="Mechanism" data-entity-2="EmissionIntent" data-source-line="111" data-uid="lnk33" id="link_Mechanism_EmissionIntent"><path codeLine="111" d="M1437.93,258.04 C1443.59,288.14 1450.3011,323.8334 1456.4711,356.6434" fill="none" id="Mechanism-to-EmissionIntent" style="stroke:#181818;stroke-width:1;"/><polygon fill="#181818" points="1457.58,362.54,1459.8478,352.9558,1456.6559,357.6261,1451.9856,354.4343,1457.58,362.54" style="stroke:#181818;stroke-width:1;"/><text fill="#000000" font-family="sans-serif" font-size="13" lengthAdjust="spacing" textLength="36.8608" x="1451.05" y="319.5184">intent</text><text fill="#000000" font-family="sans-serif" font-size="13" lengthAdjust="spacing" textLength="6.2651" x="1432.6662" y="278.3344">*</text><text fill="#000000" font-family="sans-serif" font-size="13" lengthAdjust="spacing" textLength="8.2202" x="1447.8185" y="352.3187">1</text></g><!--SRC=[jLRRRjj647tdLmpyuaj1Xx8Rso4C0uxZEW8Yg8cSfxOmLkJ8tfhSPNQNSjKs_zwPvLskb0H8NYXovtfcping5wvpQQtKQl8EBkVM6P4ukD8gmSAL8eE9JZ63lQFew2ICZiBev_rW5yQpAOnUZQBZ5_myzSypVhuyySzJ49cyLvW6kwHzkoeG4gsMg1m5ih3Nsk_790UuUX0S5ytC6Qdk8GI7VpbOYgn4wpK-8EKIGeg9pEbDbVaSJINw-65C4eDMboP1a2c7MSX6VAbM92uL9S3e96K5ZZBogTsWpj6PLPVIwNuCDvExwVnFJ1mdZtcX3OLiDSv8utPoDoPtGh7AUwgJT9sFb-pZpVkxwmnpz1hJkKMp58mU2k48g8gvY2-cDrVUuYIc0X_3tdGoW-F3Q3y8xADK1LKbXoGJrbuwgioyT3Wc73FvDqBKKya85ME2GcSh_kZ953NGOW6Zg6zXX7haqxCe27o0bWVNt2Ru9m3uYRnb9OFq7Oovqi7dTNr2J_Kc-Dx4junKkL_y_QckJRyWy5jqU7ZmH-Vgev9kkfYWiAN1oaycvaIxU9qPBBAhVAuto59SI7B6TLvBj-dZQrsgj8hXPCwfzdhvjGdt-tb-thIzQkB51Nd_72Zj4ERQEPs3NWmiuY4Vq6obmkzgXWYSNofC2WjjQ9Ro8aFoRmkQXuLClASckLzGEAvZcrZqokT4uEuRklSvtgAQLGFaDPNmjLaVJ2x4o1UYLWx3Vo-QY4C_dZDVwYLHCp6ogCko8ThMlaumUH1Aslpxn7f6xx5op83pyokQetVIkhgMqf-JWkTvgTQ_7vL-KfsxNurEC1sqPSYNMkyDjTNaKlcETaO_geuzs1iY-mQtdm4jip0CQRmphsSVP67vX0N33S8arTR72eQIdT4E790J_dssHMBuLBzkiHeESypJOTmjZVCc6qRvt0nL-dz61pk4wC8Rrood2FvbYsR7mnZovjrNPSatKeA3gRTWou9oSToU58rSqgrKNtVF8VWO56kuH5hGJOIljgnnVxDTqvdMaE2z5bRQ6Dxg9q2HF5GWu4bOWbKHYlu5R0X0lnjOrqFd0spoKFLrevCQw5ONs-mRm9M3jOkS4hn75_IF-eHerd0CPKOtZN1OdqmNl5Fe_ufZZtptTRcrOz1d-_1wZ7dPUDEQd7vnTBT0VTgcKfMejvFZwkyFEUWuMssle3le8rbRXN6Z_Hy0]--></g></svg>