<svg xmlns="http://www.w3.org/2000/svg" xmlns:xlink="http://www.w3.org/1999/xlink" contentStyleType="text/css" data-diagram-type="CLASS" height="670px" preserveAspectRatio="none" style="width:1962px;height:670px;background:#FFFFFF;" version="1.1" viewBox="0 0 1962 670" width="1962px" zoomAndPan="magnify"><defs/><g><!--class EmissionEvent--><g class="entity" data-entity="EmissionEvent" data-source-line="20" data-uid="ent0002" id="entity_EmissionEvent"><rect fill="#F1F1F1" height="64.4883" rx="2.5" ry="2.5" style="stroke:#181818;stroke-width:0.5;" width="152.8682" x="956.01" y="7"/><ellipse cx="981.8082" cy="23" fill="#ADD1B2" rx="11" ry="11" style="stroke:#181818;stroke-width:1;"/><path d="M984.2814,29.1431 Q983.7003,29.4419 983.0612,29.5913 Q982.422,29.7407 981.7164,29.7407 Q979.2096,29.7407 977.8898,28.0889 Q976.57,26.437 976.57,23.3159 Q976.57,20.1865 977.8898,18.5347 Q979.2096,16.8828 981.7164,16.8828 Q982.422,16.8828 983.0695,17.0322 Q983.7169,17.1816 984.2814,17.4805 L984.2814,20.2031 Q983.6505,19.6221 983.057,19.3523 Q982.4635,19.0825 981.8327,19.0825 Q980.4879,19.0825 979.8031,20.1492 Q979.1183,21.2158 979.1183,23.3159 Q979.1183,25.4077 979.8031,26.4744 Q980.4879,27.541 981.8327,27.541 Q982.4635,27.541 983.057,27.2712 Q983.6505,27.0015 984.2814,26.4204 Z " fill="#000000"/><text fill="#000000" font-family="sans-serif" font-size="14" lengthAdjust="spacing" textLength="96.8721" x="998.2079" y="28.291">EmissionEvent</text><line style="stroke:#181818;stroke-width:0.5;" x1="957.01" x2="1107.8782" y1="39" y2="39"/><text fill="#000000" font-family="sans-serif" font-size="14" lengthAdjust="spacing" textLength="140.8682" x="962.01" y="56.5352">+pollutantType : URI</text><line style="stroke:#181818;stroke-width:0.5;" x1="957.01" x2="1107.8782" y1="63.4883" y2="63.4883"/></g><!--class EmissionQuantity--><g class="entity" data-entity="EmissionQuantity" data-source-line="24" data-uid="ent0003" id="entity_EmissionQuantity"><rect fill="#F1F1F1" height="80.9766" rx="2.5" ry="2.5" style="stroke:#181818;stroke-width:0.5;" width="202.8799" x="7" y="176.73"/><ellipse cx="45.7366" cy="192.73" fill="#ADD1B2" rx="11" ry="11" style="stroke:#181818;stroke-width:1;"/><path d="M48.2098,198.8731 Q47.6287,199.1719 46.9896,199.3213 Q46.3504,199.4707 45.6448,199.4707 Q43.138,199.4707 41.8182,197.8189 Q40.4983,196.167 40.4983,193.0459 Q40.4983,189.9165 41.8182,188.2647 Q43.138,186.6128 45.6448,186.6128 Q46.3504,186.6128 46.9979,186.7622 Q47.6453,186.9116 48.2098,187.2105 L48.2098,189.9331 Q47.5789,189.3521 46.9854,189.0823 Q46.3919,188.8125 45.761,188.8125 Q44.4163,188.8125 43.7315,189.8792 Q43.0467,190.9458 43.0467,193.0459 Q43.0467,195.1377 43.7315,196.2044 Q44.4163,197.271 45.761,197.271 Q46.3919,197.271 46.9854,197.0012 Q47.5789,196.7315 48.2098,196.1504 Z " fill="#000000"/><text fill="#000000" font-family="sans-serif" font-size="14" lengthAdjust="spacing" textLength="118.1318" x="65.0114" y="198.021">EmissionQuantity</text><line style="stroke:#181818;stroke-width:0.5;" x1="8" x2="208.8799" y1="208.73" y2="208.73"/><text fill="#000000" font-family="sans-serif" font-size="14" lengthAdjust="spacing" textLength="88.3613" x="13" y="226.2652">+value : Real</text><text fill="#000000" font-family="sans-serif" font-size="14" lengthAdjust="spacing" textLength="190.8799" x="13" y="242.7534">+quality : DQ_Element [0..*]</text><line style="stroke:#181818;stroke-width:0.5;" x1="8" x2="208.8799" y1="249.7066" y2="249.7066"/></g><!--class UnitOfMeasure--><g class="entity" data-entity="UnitOfMeasure" data-source-line="29" data-uid="ent0004" id="entity_UnitOfMeasure"><rect fill="#F1F1F1" height="97.4648" rx="2.5" ry="2.5" style="stroke:#181818;stroke-width:0.5;" width="190.8691" x="13.01" y="367.26"/><ellipse cx="54.2137" cy="383.26" fill="#ADD1B2" rx="11" ry="11" style="stroke:#181818;stroke-width:1;"/><path d="M56.6869,389.4031 Q56.1058,389.7019 55.4666,389.8513 Q54.8275,390.0007 54.1219,390.0007 Q51.6151,390.0007 50.2953,388.3489 Q48.9754,386.697 48.9754,383.5759 Q48.9754,380.4465 50.2953,378.7947 Q51.6151,377.1428 54.1219,377.1428 Q54.8275,377.1428 55.4749,377.2922 Q56.1224,377.4416 56.6869,377.7405 L56.6869,380.4631 Q56.056,379.8821 55.4625,379.6123 Q54.869,379.3425 54.2381,379.3425 Q52.8934,379.3425 52.2086,380.4092 Q51.5238,381.4758 51.5238,383.5759 Q51.5238,385.6677 52.2086,386.7344 Q52.8934,387.801 54.2381,387.801 Q54.869,387.801 55.4625,387.5312 Q56.056,387.2615 56.6869,386.6804 Z " fill="#000000"/><text fill="#000000" font-family="sans-serif" font-size="14" lengthAdjust="spacing" textLength="100.6387" x="74.0368" y="388.551">UnitOfMeasure</text><line style="stroke:#181818;stroke-width:0.5;" x1="14.01" x2="202.8791" y1="399.26" y2="399.26"/><text fill="#000000" font-family="sans-serif" font-size="14" lengthAdjust="spacing" textLength="162.3262" x="19.01" y="416.7952">+label : CharacterString</text><text fill="#000000" font-family="sans-serif" font-size="14" lengthAdjust="spacing" textLength="178.8691" x="19.01" y="433.2834">+symbol : CharacterString</text><text fill="#000000" font-family="sans-serif" font-size="14" lengthAdjust="spacing" textLength="112.1162" x="19.01" y="449.7717">+definition : URI</text><line style="stroke:#181818;stroke-width:0.5;" x1="14.01" x2="202.8791" y1="456.7248" y2="456.7248"/></g><!--class TemporalBound--><g class="entity" data-entity="TemporalBound" data-source-line="35" data-uid="ent0005" id="entity_TemporalBound"><rect fill="#F1F1F1" height="80.9766" rx="2.5" ry="2.5" style="stroke:#181818;stroke-width:0.5;" width="202.8799" x="321" y="176.73"/><ellipse cx="364.5293" cy="192.73" fill="#ADD1B2" rx="11" ry="11" style="stroke:#181818;stroke-width:1;"/><path d="M367.0024,198.8731 Q366.4214,199.1719 365.7822,199.3213 Q365.1431,199.4707 364.4375,199.4707 Q361.9307,199.4707 360.6108,197.8189 Q359.291,196.167 359.291,193.0459 Q359.291,189.9165 360.6108,188.2647 Q361.9307,186.6128 364.4375,186.6128 Q365.1431,186.6128 365.7905,186.7622 Q366.438,186.9116 367.0024,187.2105 L367.0024,189.9331 Q366.3716,189.3521 365.7781,189.0823 Q365.1846,188.8125 364.5537,188.8125 Q363.209,188.8125 362.5242,189.8792 Q361.8394,190.9458 361.8394,193.0459 Q361.8394,195.1377 362.5242,196.2044 Q363.209,197.271 364.5537,197.271 Q365.1846,197.271 365.7781,197.0012 Q366.3716,196.7315 367.0024,196.1504 Z " fill="#000000"/><text fill="#000000" font-family="sans-serif" font-size="14" lengthAdjust="spacing" textLength="107.4814" x="384.8691" y="198.021">TemporalBound</text><line style="stroke:#181818;stroke-width:0.5;" x1="322" x2="522.8799" y1="208.73" y2="208.73"/><text fill="#000000" font-family="sans-serif" font-size="14" lengthAdjust="spacing" textLength="129.2334" x="327" y="226.2652">+time : TM_Instant</text><text fill="#000000" font-family="sans-serif" font-size="14" lengthAdjust="spacing" textLength="190.8799" x="327" y="242.7534">+quality : DQ_Element [0..*]</text><line style="stroke:#181818;stroke-width:0.5;" x1="322" x2="522.8799" y1="249.7066" y2="249.7066"/></g><!--class Observation--><g class="entity" data-entity="Observation" data-source-line="40" data-uid="ent0006" id="entity_Observation"><rect fill="#F1F1F1" height="56.6211" rx="2.5" ry="2.5" style="stroke:#181818;stroke-width:0.5;" width="135.7012" x="748.59" y="188.91"/><ellipse cx="763.59" cy="209.2205" fill="#ADD1B2" rx="11" ry="11" style="stroke:#181818;stroke-width:1;"/><path d="M766.0631,215.3636 Q765.4821,215.6624 764.8429,215.8119 Q764.2038,215.9613 763.4982,215.9613 Q760.9914,215.9613 759.6715,214.3094 Q758.3517,212.6576 758.3517,209.5365 Q758.3517,206.4071 759.6715,204.7552 Q760.9914,203.1034 763.4982,203.1034 Q764.2038,203.1034 764.8512,203.2528 Q765.4987,203.4022 766.0631,203.701 L766.0631,206.4237 Q765.4323,205.8426 764.8388,205.5728 Q764.2453,205.3031 763.6144,205.3031 Q762.2697,205.3031 761.5849,206.3697 Q760.9001,207.4364 760.9001,209.5365 Q760.9001,211.6283 761.5849,212.6949 Q762.2697,213.7616 763.6144,213.7616 Q764.2453,213.7616 764.8388,213.4918 Q765.4323,213.222 766.0631,212.641 Z " fill="#000000"/><text fill="#000000" font-family="sans-serif" font-size="12" font-style="italic" lengthAdjust="spacing" textLength="107.7012" x="775.59" y="205.5116">&#171;ISO 19156:2023&#187;</text><text fill="#000000" font-family="sans-serif" font-size="14" lengthAdjust="spacing" textLength="81.9014" x="788.4899" y="221.578">Observation</text><line style="stroke:#181818;stroke-width:0.5;" x1="749.59" x2="883.2912" y1="229.5311" y2="229.5311"/><line style="stroke:#181818;stroke-width:0.5;" x1="749.59" x2="883.2912" y1="237.5311" y2="237.5311"/></g><g class="entity" data-entity="GMN7" data-source-line="42" data-uid="ent0008" id="entity_GMN7"><path d="M651.48,395.68 L651.48,436.3011 A0,0 0 0 0 651.48,436.3011 L981.395,436.3011 A0,0 0 0 0 981.395,436.3011 L981.395,405.68 L971.395,395.68 L820.44,395.68 L816.44,245.99 L812.44,395.68 L651.48,395.68 A0,0 0 0 0 651.48,395.68" fill="#FEFFDD" style="stroke:#181818;stroke-width:0.5;"/><path d="M971.395,395.68 L971.395,405.68 L981.395,405.68 L971.395,395.68" fill="#FEFFDD" style="stroke:#181818;stroke-width:0.5;"/><text fill="#000000" font-family="sans-serif" font-size="13" lengthAdjust="spacing" textLength="308.915" x="657.48" y="413.2484">Observation per ISO/OGC 19156:2023 (OMS 3.0)</text><text fill="#000000" font-family="sans-serif" font-size="13" lengthAdjust="spacing" textLength="249.209" x="657.48" y="428.5589">See standard for complete specification</text></g><!--class Source--><g class="entity" data-entity="Source" data-source-line="44" data-uid="ent0010" id="entity_Source"><rect fill="#F1F1F1" height="80.9766" rx="2.5" ry="2.5" style="stroke:#181818;stroke-width:0.5;" width="219.2793" x="1082.8" y="375.5"/><ellipse cx="1165.426" cy="391.5" fill="#ADD1B2" rx="11" ry="11" style="stroke:#181818;stroke-width:1;"/><path d="M1167.8991,397.6431 Q1167.3181,397.9419 1166.6789,398.0913 Q1166.0397,398.2407 1165.3342,398.2407 Q1162.8273,398.2407 1161.5075,396.5889 Q1160.1877,394.937 1160.1877,391.8159 Q1160.1877,388.6865 1161.5075,387.0347 Q1162.8273,385.3828 1165.3342,385.3828 Q1166.0397,385.3828 1166.6872,385.5322 Q1167.3347,385.6816 1167.8991,385.9805 L1167.8991,388.7031 Q1167.2683,388.1221 1166.6748,387.8523 Q1166.0813,387.5825 1165.4504,387.5825 Q1164.1057,387.5825 1163.4208,388.6492 Q1162.736,389.7158 1162.736,391.8159 Q1162.736,393.9077 1163.4208,394.9744 Q1164.1057,396.041 1165.4504,396.041 Q1166.0813,396.041 1166.6748,395.7712 Q1167.2683,395.5015 1167.8991,394.9204 Z " fill="#000000"/><text fill="#000000" font-family="sans-serif" font-size="14" lengthAdjust="spacing" textLength="45.5273" x="1185.926" y="396.791">Source</text><line style="stroke:#181818;stroke-width:0.5;" x1="1083.8" x2="1301.0793" y1="407.5" y2="407.5"/><text fill="#000000" font-family="sans-serif" font-size="14" lengthAdjust="spacing" textLength="207.2793" x="1088.8" y="425.0352">+name : CharacterString [0..1]</text><text fill="#000000" font-family="sans-serif" font-size="14" lengthAdjust="spacing" textLength="162.0254" x="1088.8" y="441.5234">+geometry : GM_Object</text><line style="stroke:#181818;stroke-width:0.5;" x1="1083.8" x2="1301.0793" y1="448.4766" y2="448.4766"/></g><g class="entity" data-entity="GMN11" data-source-line="48" data-uid="ent0012" id="entity_GMN11"><path d="M933.72,602.11 L933.72,627.4205 A0,0 0 0 0 933.72,627.4205 L1125.1609,627.4205 A0,0 0 0 0 1125.1609,627.4205 L1125.1609,612.11 L1115.1609,602.11 L1043.34,602.11 L1159.45,456.81 L1035.34,602.11 L933.72,602.11 A0,0 0 0 0 933.72,602.11" fill="#FEFFDD" style="stroke:#181818;stroke-width:0.5;"/><path d="M1115.1609,602.11 L1115.1609,612.11 L1125.1609,612.11 L1115.1609,602.11" fill="#FEFFDD" style="stroke:#181818;stroke-width:0.5;"/><text fill="#000000" font-family="sans-serif" font-size="13" lengthAdjust="spacing" textLength="170.4409" x="939.72" y="619.6784">Stereotyped as GFI_Feature</text></g><!--class SourceType--><g class="entity" data-entity="SourceType" data-source-line="50" data-uid="ent0014" id="entity_SourceType"><rect fill="#F1F1F1" height="97.4648" rx="2.5" ry="2.5" style="stroke:#181818;stroke-width:0.5;" width="258.0664" x="1225.41" y="566.04"/><ellipse cx="1311.0404" cy="582.04" fill="#ADD1B2" rx="11" ry="11" style="stroke:#181818;stroke-width:1;"/><path d="M1313.5135,588.1831 Q1312.9325,588.4819 1312.2933,588.6313 Q1311.6541,588.7807 1310.9486,588.7807 Q1308.4417,588.7807 1307.1219,587.1289 Q1305.8021,585.477 1305.8021,582.3559 Q1305.8021,579.2265 1307.1219,577.5747 Q1308.4417,575.9228 1310.9486,575.9228 Q1311.6541,575.9228 1312.3016,576.0722 Q1312.9491,576.2216 1313.5135,576.5205 L1313.5135,579.2431 Q1312.8827,578.6621 1312.2892,578.3923 Q1311.6956,578.1225 1311.0648,578.1225 Q1309.7201,578.1225 1309.0352,579.1892 Q1308.3504,580.2558 1308.3504,582.3559 Q1308.3504,584.4477 1309.0352,585.5144 Q1309.7201,586.581 1311.0648,586.581 Q1311.6956,586.581 1312.2892,586.3112 Q1312.8827,586.0415 1313.5135,585.4604 Z " fill="#000000"/><text fill="#000000" font-family="sans-serif" font-size="14" lengthAdjust="spacing" textLength="78.3057" x="1331.5404" y="587.331">SourceType</text><line style="stroke:#181818;stroke-width:0.5;" x1="1226.41" x2="1482.4764" y1="598.04" y2="598.04"/><text fill="#000000" font-family="sans-serif" font-size="14" lengthAdjust="spacing" textLength="162.3262" x="1231.41" y="615.5752">+label : CharacterString</text><text fill="#000000" font-family="sans-serif" font-size="14" lengthAdjust="spacing" textLength="246.0664" x="1231.41" y="632.0634">+description : CharacterString [0..1]</text><text fill="#000000" font-family="sans-serif" font-size="14" lengthAdjust="spacing" textLength="112.1162" x="1231.41" y="648.5517">+definition : URI</text><line style="stroke:#181818;stroke-width:0.5;" x1="1226.41" x2="1482.4764" y1="655.5048" y2="655.5048"/></g><!--class Mechanism--><g class="entity" data-entity="Mechanism" data-source-line="56" data-uid="ent0015" id="entity_Mechanism"><rect fill="#F1F1F1" height="80.9766" rx="2.5" ry="2.5" style="stroke:#181818;stroke-width:0.5;" width="258.0664" x="1339.41" y="176.73"/><ellipse cx="1425.9974" cy="192.73" fill="#ADD1B2" rx="11" ry="11" style="stroke:#181818;stroke-width:1;"/><path d="M1428.4705,198.8731 Q1427.8895,199.1719 1427.2503,199.3213 Q1426.6112,199.4707 1425.9056,199.4707 Q1423.3988,199.4707 1422.0789,197.8189 Q1420.7591,196.167 1420.7591,193.0459 Q1420.7591,189.9165 1422.0789,188.2647 Q1423.3988,186.6128 1425.9056,186.6128 Q1426.6112,186.6128 1427.2586,186.7622 Q1427.9061,186.9116 1428.4705,187.2105 L1428.4705,189.9331 Q1427.8397,189.3521 1427.2462,189.0823 Q1426.6527,188.8125 1426.0218,188.8125 Q1424.6771,188.8125 1423.9923,189.8792 Q1423.3075,190.9458 1423.3075,193.0459 Q1423.3075,195.1377 1423.9923,196.2044 Q1424.6771,197.271 1426.0218,197.271 Q1426.6527,197.271 1427.2462,197.0012 Q1427.8397,196.7315 1428.4705,196.1504 Z " fill="#000000"/><text fill="#000000" font-family="sans-serif" font-size="14" lengthAdjust="spacing" textLength="76.3916" x="1446.4974" y="198.021">Mechanism</text><line style="stroke:#181818;stroke-width:0.5;" x1="1340.41" x2="1596.4764" y1="208.73" y2="208.73"/><text fill="#000000" font-family="sans-serif" font-size="14" lengthAdjust="spacing" textLength="162.3262" x="1345.41" y="226.2652">+label : CharacterString</text><text fill="#000000" font-family="sans-serif" font-size="14" lengthAdjust="spacing" textLength="246.0664" x="1345.41" y="242.7534">+description : CharacterString [0..1]</text><line style="stroke:#181818;stroke-width:0.5;" x1="1340.41" x2="1596.4764" y1="249.7066" y2="249.7066"/></g><!--class EmissionIntent--><g class="entity" data-entity="EmissionIntent" data-source-line="61" data-uid="ent0016" id="entity_EmissionIntent"><rect fill="#F1F1F1" height="106.0859" rx="2.5" ry="2.5" style="stroke:#181818;stroke-width:0.5;" width="131.9961" x="1402.44" y="362.95"/><ellipse cx="1417.44" cy="383.2605" fill="#ADD1B2" rx="11" ry="11" style="stroke:#181818;stroke-width:1;"/><path d="M1419.9131,389.4036 Q1419.3321,389.7024 1418.6929,389.8519 Q1418.0538,390.0013 1417.3482,390.0013 Q1414.8414,390.0013 1413.5215,388.3494 Q1412.2017,386.6976 1412.2017,383.5765 Q1412.2017,380.4471 1413.5215,378.7952 Q1414.8414,377.1434 1417.3482,377.1434 Q1418.0538,377.1434 1418.7012,377.2928 Q1419.3487,377.4422 1419.9131,377.741 L1419.9131,380.4637 Q1419.2823,379.8826 1418.6888,379.6128 Q1418.0953,379.3431 1417.4644,379.3431 Q1416.1197,379.3431 1415.4349,380.4097 Q1414.7501,381.4764 1414.7501,383.5765 Q1414.7501,385.6683 1415.4349,386.7349 Q1416.1197,387.8016 1417.4644,387.8016 Q1418.0953,387.8016 1418.6888,387.5318 Q1419.2823,387.262 1419.9131,386.681 Z " fill="#000000"/><text fill="#000000" font-family="sans-serif" font-size="12" font-style="italic" lengthAdjust="spacing" textLength="62.959" x="1449.9586" y="379.5516">&#171;CodeList&#187;</text><text fill="#000000" font-family="sans-serif" font-size="14" lengthAdjust="spacing" textLength="99.9961" x="1431.44" y="395.618">EmissionIntent</text><line style="stroke:#181818;stroke-width:0.5;" x1="1403.44" x2="1533.4361" y1="403.5711" y2="403.5711"/><text fill="#000000" font-family="sans-serif" font-size="14" lengthAdjust="spacing" textLength="72.8096" x="1408.44" y="421.1063">intentional</text><text fill="#000000" font-family="sans-serif" font-size="14" lengthAdjust="spacing" textLength="90.1865" x="1408.44" y="437.5945">unintentional</text><text fill="#000000" font-family="sans-serif" font-size="14" lengthAdjust="spacing" textLength="62.3232" x="1408.44" y="454.0828">unknown</text><line style="stroke:#181818;stroke-width:0.5;" x1="1403.44" x2="1533.4361" y1="461.0359" y2="461.0359"/></g><!--class DeterminationMethod--><g class="entity" data-entity="DeterminationMethod" data-source-line="67" data-uid="ent0017" id="entity_DeterminationMethod"><rect fill="#F1F1F1" height="97.4648" rx="2.5" ry="2.5" style="stroke:#181818;stroke-width:0.5;" width="258.0664" x="1697.41" y="168.48"/><ellipse cx="1748.0164" cy="184.48" fill="#ADD1B2" rx="11" ry="11" style="stroke:#181818;stroke-width:1;"/><path d="M1750.4896,190.6231 Q1749.9085,190.9219 1749.2694,191.0713 Q1748.6302,191.2207 1747.9246,191.2207 Q1745.4178,191.2207 1744.098,189.5689 Q1742.7782,187.917 1742.7782,184.7959 Q1742.7782,181.6665 1744.098,180.0147 Q1745.4178,178.3628 1747.9246,178.3628 Q1748.6302,178.3628 1749.2777,178.5122 Q1749.9251,178.6616 1750.4896,178.9605 L1750.4896,181.6831 Q1749.8587,181.1021 1749.2652,180.8323 Q1748.6717,180.5625 1748.0409,180.5625 Q1746.6961,180.5625 1746.0113,181.6292 Q1745.3265,182.6958 1745.3265,184.7959 Q1745.3265,186.8877 1746.0113,187.9544 Q1746.6961,189.021 1748.0409,189.021 Q1748.6717,189.021 1749.2652,188.7512 Q1749.8587,188.4815 1750.4896,187.9004 Z " fill="#000000"/><text fill="#000000" font-family="sans-serif" font-size="14" lengthAdjust="spacing" textLength="148.3535" x="1768.5164" y="189.771">DeterminationMethod</text><line style="stroke:#181818;stroke-width:0.5;" x1="1698.41" x2="1954.4764" y1="200.48" y2="200.48"/><text fill="#000000" font-family="sans-serif" font-size="14" lengthAdjust="spacing" textLength="162.3262" x="1703.41" y="218.0152">+label : CharacterString</text><text fill="#000000" font-family="sans-serif" font-size="14" lengthAdjust="spacing" textLength="246.0664" x="1703.41" y="234.5034">+description : CharacterString [0..1]</text><text fill="#000000" font-family="sans-serif" font-size="14" lengthAdjust="spacing" textLength="152.2158" x="1703.41" y="250.9917">+definition : URI [0..1]</text><line style="stroke:#181818;stroke-width:0.5;" x1="1698.41" x2="1954.4764" y1="257.9448" y2="257.9448"/></g><!--reverse link EmissionEvent to EmissionQuantity--><g class="link" data-entity-1="EmissionEvent" data-entity-2="EmissionQuantity" data-source-line="76" data-uid="lnk18" id="link_EmissionEvent_EmissionQuantity"><path codeLine="76" d="M943.8106,47.5463 C732.3506,64.9863 168.44,111.48 168.44,111.48 C168.44,111.48 148.25,146.73 131.29,176.32" fill="none" id="EmissionEvent-backto-EmissionQuantity" style="stroke:#181818;stroke-width:1;"/><polygon fill="#181818" points="955.77,46.56,949.4615,43.0667,943.8106,47.5463,950.1191,51.0396,955.77,46.56" style="stroke:#181818;stroke-width:1;"/><text fill="#000000" font-family="sans-serif" font-size="13" lengthAdjust="spacing" textLength="51.7715" x="169.44" y="125.0484">quantity</text><text fill="#000000" font-family="sans-serif" font-size="13" lengthAdjust="spacing" textLength="8.2202" x="939.8395" y="44.1255">1</text><text fill="#000000" font-family="sans-serif" font-size="13" lengthAdjust="spacing" textLength="8.2202" x="126.4303" y="165.8981">1</text></g><!--reverse link EmissionEvent to TemporalBound--><g class="link" data-entity-1="EmissionEvent" data-entity-2="TemporalBound" data-source-line="77" data-uid="lnk19" id="link_EmissionEvent_TemporalBound"><path codeLine="77" d="M943.689,48.2835 C745.919,66.2135 246.44,111.48 246.44,111.48 C246.44,111.48 246.44,128.48 246.44,128.48 C246.44,128.48 295.93,153.15 342.42,176.33" fill="none" id="EmissionEvent-backto-TemporalBound" style="stroke:#181818;stroke-width:1;"/><polygon fill="#181818" points="955.64,47.2,949.3033,43.7581,943.689,48.2835,950.0257,51.7254,955.64,47.2" style="stroke:#181818;stroke-width:1;"/><text fill="#000000" font-family="sans-serif" font-size="13" lengthAdjust="spacing" textLength="60.2075" x="247.44" y="125.0484">startTime</text><text fill="#000000" font-family="sans-serif" font-size="13" lengthAdjust="spacing" textLength="8.2202" x="939.6967" y="61.3051">1</text><text fill="#000000" font-family="sans-serif" font-size="13" lengthAdjust="spacing" textLength="8.2202" x="320.5224" y="165.9098">1</text></g><!--reverse link EmissionEvent to TemporalBound--><g class="link" data-entity-1="EmissionEvent" data-entity-2="TemporalBound" data-source-line="78" data-uid="lnk20" id="link_EmissionEvent_TemporalBound"><path codeLine="78" d="M943.8935,51.9425 C795.0835,71.6125 493.44,111.48 493.44,111.48 C493.44,111.48 469.55,146.73 449.48,176.32" fill="none" id="EmissionEvent-backto-TemporalBound-1" style="stroke:#181818;stroke-width:1;"/><polygon fill="#181818" points="955.79,50.37,949.3176,47.1907,943.8935,51.9425,950.3659,55.1218,955.79,50.37" style="stroke:#181818;stroke-width:1;"/><text fill="#000000" font-family="sans-serif" font-size="13" lengthAdjust="spacing" textLength="54.8501" x="494.44" y="125.0484">endTime</text><text fill="#000000" font-family="sans-serif" font-size="13" lengthAdjust="spacing" textLength="8.2202" x="939.5908" y="65.9316">1</text><text fill="#000000" font-family="sans-serif" font-size="13" lengthAdjust="spacing" textLength="24.667" x="428.0262" y="165.8981">0..1</text></g><!--link EmissionEvent to Source--><g class="link" data-entity-1="EmissionEvent" data-entity-2="Source" data-source-line="79" data-uid="lnk21" id="link_EmissionEvent_Source"><path codeLine="79" d="M1054.07,71.7 C1067.2,90.78 1081.44,111.48 1081.44,111.48 C1081.44,111.48 1145.779,287.4051 1175.869,369.6751" fill="none" id="EmissionEvent-to-Source" style="stroke:#181818;stroke-width:1;"/><polygon fill="#181818" points="1177.93,375.31,1178.5952,365.4836,1176.2125,370.6142,1171.0819,368.2316,1177.93,375.31" style="stroke:#181818;stroke-width:1;"/><text fill="#000000" font-family="sans-serif" font-size="13" lengthAdjust="spacing" textLength="41.9009" x="1137.94" y="222.2884">source</text><text fill="#000000" font-family="sans-serif" font-size="13" lengthAdjust="spacing" textLength="6.2651" x="1051.7631" y="92.1652">*</text><text fill="#000000" font-family="sans-serif" font-size="13" lengthAdjust="spacing" textLength="8.2202" x="1166.7676" y="364.6244">1</text></g><!--link EmissionEvent to Mechanism--><g class="link" data-entity-1="EmissionEvent" data-entity-2="Mechanism" data-source-line="80" data-uid="lnk22" id="link_EmissionEvent_Mechanism"><path codeLine="80" d="M1109.2,65.56 C1171.29,86.04 1248.44,111.48 1248.44,111.48 C1248.44,111.48 1317.0523,144.1514 1379.2223,173.7414" fill="none" id="EmissionEvent-to-Mechanism" style="stroke:#181818;stroke-width:1;"/><polygon fill="#181818" points="1384.64,176.32,1378.2325,168.8404,1380.1253,174.1712,1374.7945,176.0639,1384.64,176.32" style="stroke:#181818;stroke-width:1;"/><text fill="#000000" font-family="sans-serif" font-size="13" lengthAdjust="spacing" textLength="71.8745" x="1281.37" y="125.0484">mechanism</text><text fill="#000000" font-family="sans-serif" font-size="13" lengthAdjust="spacing" textLength="6.2651" x="1116.8144" y="81.3662">*</text><text fill="#000000" font-family="sans-serif" font-size="13" lengthAdjust="spacing" textLength="8.2202" x="1362.1158" y="165.8981">1</text></g><!--link EmissionEvent to Observation--><g class="link" data-entity-1="EmissionEvent" data-entity-2="Observation" data-source-line="83" data-uid="lnk23" id="link_EmissionEvent_Observation"><path codeLine="83" d="M955.52,52.21 C825.07,72.5 574.44,111.48 574.44,111.48 C574.44,111.48 574.44,128.48 574.44,128.48 C574.44,128.48 671.169,163.5557 742.749,189.4957" fill="none" id="EmissionEvent-to-Observation" style="stroke:#181818;stroke-width:1;"/><polygon fill="#181818" points="748.39,191.54,741.2913,184.7129,743.6892,189.8365,738.5656,192.2343,748.39,191.54" style="stroke:#181818;stroke-width:1;"/><text fill="#000000" font-family="sans-serif" font-size="13" lengthAdjust="spacing" textLength="115.1338" x="575.44" y="125.0484">startTimeEvidence</text><text fill="#000000" font-family="sans-serif" font-size="13" lengthAdjust="spacing" textLength="8.2202" x="939.8174" y="66.7438">1</text><text fill="#000000" font-family="sans-serif" font-size="13" lengthAdjust="spacing" textLength="6.2651" x="734.1901" y="185.2898">*</text></g><!--link EmissionEvent to Observation--><g class="link" data-entity-1="EmissionEvent" data-entity-2="Observation" data-source-line="84" data-uid="lnk24" id="link_EmissionEvent_Observation"><path codeLine="84" d="M955.82,63.37 C886.91,84.17 796.44,111.48 796.44,111.48 C796.44,111.48 796.44,128.48 796.44,128.48 C796.44,128.48 802.9166,156.9 808.7766,182.61" fill="none" id="EmissionEvent-to-Observation-1" style="stroke:#181818;stroke-width:1;"/><polygon fill="#181818" points="810.11,188.46,812.0099,178.7961,808.9989,183.585,804.21,180.574,810.11,188.46" style="stroke:#181818;stroke-width:1;"/><text fill="#000000" font-family="sans-serif" font-size="13" lengthAdjust="spacing" textLength="109.7764" x="797.44" y="125.0484">endTimeEvidence</text><text fill="#000000" font-family="sans-serif" font-size="13" lengthAdjust="spacing" textLength="8.2202" x="939.8944" y="79.0668">1</text><text fill="#000000" font-family="sans-serif" font-size="13" lengthAdjust="spacing" textLength="6.2651" x="802.0979" y="178.1303">*</text></g><!--link EmissionEvent to Observation--><g class="link" data-entity-1="EmissionEvent" data-entity-2="Observation" data-source-line="85" data-uid="lnk25" id="link_EmissionEvent_Observation"><path codeLine="85" d="M995.19,71.85 C965.35,97.17 928.44,128.48 928.44,128.48 C928.44,128.48 889.4128,159.0492 856.6028,184.7592" fill="none" id="EmissionEvent-to-Observation-2" style="stroke:#181818;stroke-width:1;"/><polygon fill="#181818" points="851.88,188.46,861.4313,186.0574,855.8156,185.376,856.497,179.7604,851.88,188.46" style="stroke:#181818;stroke-width:1;"/><text fill="#000000" font-family="sans-serif" font-size="13" lengthAdjust="spacing" textLength="106.6978" x="949.33" y="125.0484">quantityEvidence</text><text fill="#000000" font-family="sans-serif" font-size="13" lengthAdjust="spacing" textLength="8.2202" x="979.3469" y="92.0931">1</text><text fill="#000000" font-family="sans-serif" font-size="13" lengthAdjust="spacing" textLength="6.2651" x="853.0051" y="178.1303">*</text></g><!--link EmissionEvent to DeterminationMethod--><g class="link" data-entity-1="EmissionEvent" data-entity-2="DeterminationMethod" data-source-line="88" data-uid="lnk26" id="link_EmissionEvent_DeterminationMethod"><path codeLine="88" d="M1109.23,56.05 C1211.16,77.04 1378.44,111.48 1378.44,111.48 C1378.44,111.48 1647.44,168.48 1647.44,168.48 C1647.44,168.48 1663.2727,172.7036 1691.5027,180.2336" fill="none" id="EmissionEvent-to-DeterminationMethod" style="stroke:#181818;stroke-width:1;"/><polygon fill="#181818" points="1697.3,181.78,1689.6349,175.5956,1692.4689,180.4914,1687.5731,183.3253,1697.3,181.78" style="stroke:#181818;stroke-width:1;"/><text fill="#000000" font-family="sans-serif" font-size="13" lengthAdjust="spacing" textLength="91.876" x="1458.93" y="125.0484">startTimeBasis</text><text fill="#000000" font-family="sans-serif" font-size="13" lengthAdjust="spacing" textLength="8.2202" x="1116.9404" y="54.5201">1</text><text fill="#000000" font-family="sans-serif" font-size="13" lengthAdjust="spacing" textLength="8.2202" x="1681.1933" y="176.7416">1</text></g><!--link EmissionEvent to DeterminationMethod--><g class="link" data-entity-1="EmissionEvent" data-entity-2="DeterminationMethod" data-source-line="89" data-uid="lnk27" id="link_EmissionEvent_DeterminationMethod"><path codeLine="89" d="M1109.09,50.3 C1258.77,69.94 1575.44,111.48 1575.44,111.48 C1575.44,111.48 1639.4427,138.1894 1705.3227,165.6794" fill="none" id="EmissionEvent-to-DeterminationMethod-1" style="stroke:#181818;stroke-width:1;"/><polygon fill="#181818" points="1710.86,167.99,1704.0945,160.8327,1706.2456,166.0645,1701.0137,168.2157,1710.86,167.99" style="stroke:#181818;stroke-width:1;"/><text fill="#000000" font-family="sans-serif" font-size="13" lengthAdjust="spacing" textLength="86.5186" x="1612.87" y="125.0484">endTimeBasis</text><text fill="#000000" font-family="sans-serif" font-size="13" lengthAdjust="spacing" textLength="8.2202" x="1116.7871" y="64.6518">1</text><text fill="#000000" font-family="sans-serif" font-size="13" lengthAdjust="spacing" textLength="24.667" x="1696.3405" y="157.6036">0..1</text></g><!--link EmissionEvent to DeterminationMethod--><g class="link" data-entity-1="EmissionEvent" data-entity-2="DeterminationMethod" data-source-line="90" data-uid="lnk28" id="link_EmissionEvent_DeterminationMethod"><path codeLine="90" d="M1109.14,48.14 C1289.31,66.69 1724.44,111.48 1724.44,111.48 C1724.44,111.48 1748.6239,136.3115 1775.4339,163.8415" fill="none" id="EmissionEvent-to-DeterminationMethod-2" style="stroke:#181818;stroke-width:1;"/><polygon fill="#181818" points="1779.62,168.14,1776.2066,158.9016,1776.1316,164.5579,1770.4753,164.483,1779.62,168.14" style="stroke:#181818;stroke-width:1;"/><text fill="#000000" font-family="sans-serif" font-size="13" lengthAdjust="spacing" textLength="83.4399" x="1740.25" y="125.0484">quantityBasis</text><text fill="#000000" font-family="sans-serif" font-size="13" lengthAdjust="spacing" textLength="8.2202" x="1116.8418" y="45.8562">1</text><text fill="#000000" font-family="sans-serif" font-size="13" lengthAdjust="spacing" textLength="8.2202" x="1764.4885" y="157.7747">1</text></g><!--link Observation to Source--><g class="link" data-entity-1="Observation" data-entity-2="Source" data-source-line="93" data-uid="lnk29" id="link_Observation_Source"><path codeLine="93" d="M853.86,246.01 C895.63,277.04 957.44,322.95 957.44,322.95 C957.44,322.95 1021.3832,347.9918 1084.8032,372.8318" fill="none" id="Observation-to-Source" style="stroke:#181818;stroke-width:1;"/><polygon fill="#181818" points="1090.39,375.02,1083.4687,368.0132,1085.7344,373.1965,1080.5511,375.4622,1090.39,375.02" style="stroke:#181818;stroke-width:1;"/><text fill="#000000" font-family="sans-serif" font-size="13" lengthAdjust="spacing" textLength="161.5986" x="958.44" y="319.5184">ultimateFeatureOfInterest</text><text fill="#000000" font-family="sans-serif" font-size="13" lengthAdjust="spacing" textLength="6.2651" x="854.9863" y="266.0951">*</text><text fill="#000000" font-family="sans-serif" font-size="13" lengthAdjust="spacing" textLength="8.2202" x="1066.8301" y="365.4924">1</text></g><!--reverse link EmissionQuantity to UnitOfMeasure--><g class="link" data-entity-1="EmissionQuantity" data-entity-2="UnitOfMeasure" data-source-line="96" data-uid="lnk30" id="link_EmissionQuantity_UnitOfMeasure"><path codeLine="96" d="M108.44,270.04 C108.44,301.48 108.44,333.47 108.44,366.89" fill="none" id="EmissionQuantity-backto-UnitOfMeasure" style="stroke:#181818;stroke-width:1;"/><polygon fill="#181818" points="108.44,258.04,104.44,264.04,108.44,270.04,112.44,264.04,108.44,258.04" style="stroke:#181818;stroke-width:1;"/><text fill="#000000" font-family="sans-serif" font-size="13" lengthAdjust="spacing" textLength="24.7559" x="109.44" y="319.5184">unit</text><text fill="#000000" font-family="sans-serif" font-size="13" lengthAdjust="spacing" textLength="8.2202" x="99.8201" y="278.3344">1</text><text fill="#000000" font-family="sans-serif" font-size="13" lengthAdjust="spacing" textLength="8.2202" x="99.8923" y="356.5205">1</text></g><!--link Source to SourceType--><g class="link" data-entity-1="Source" data-entity-2="SourceType" data-source-line="99" data-uid="lnk31" id="link_Source_SourceType"><path codeLine="99" d="M1225.22,456.81 C1251.11,488.26 1283.5161,527.6181 1311.0261,561.0281" fill="none" id="Source-to-SourceType" style="stroke:#181818;stroke-width:1;"/><polygon fill="#181818" points="1314.84,565.66,1312.2071,556.1696,1311.6617,561.8001,1306.0312,561.2548,1314.84,565.66" style="stroke:#181818;stroke-width:1;"/><text fill="#000000" font-family="sans-serif" font-size="13" lengthAdjust="spacing" textLength="27.0791" x="1279.3" y="522.6084">type</text><text fill="#000000" font-family="sans-serif" font-size="13" lengthAdjust="spacing" textLength="6.2651" x="1223.9874" y="477.1044">*</text><text fill="#000000" font-family="sans-serif" font-size="13" lengthAdjust="spacing" textLength="24.667" x="1283.6302" y="555.2891">0..1</text></g><!--link Mechanism to EmissionIntent--><g class="link" data-entity-1="Mechanism" data-entity-2="EmissionIntent" data-source-line="102" data-uid="lnk32" id="link_Mechanism_EmissionIntent"><path codeLine="102" d="M1468.44,258.04 C1468.44,288.13 1468.44,323.73 1468.44,356.53" fill="none" id="Mechanism-to-EmissionIntent" style="stroke:#181818;stroke-width:1;"/><polygon fill="#181818" points="1468.44,362.53,1472.44,353.53,1468.44,357.53,1464.44,353.53,1468.44,362.53" style="stroke:#181818;stroke-width:1;"/><text fill="#000000" font-family="sans-serif" font-size="13" lengthAdjust="spacing" textLength="36.8608" x="1469.44" y="319.5184">intent</text><text fill="#000000" font-family="sans-serif" font-size="13" lengthAdjust="spacing" textLength="6.2651" x="1461.9825" y="278.3344">*</text><text fill="#000000" font-family="sans-serif" font-size="13" lengthAdjust="spacing" textLength="8.2202" x="1459.9419" y="352.3074">1</text></g><!--SRC=[jLRVRzCm47xFNt7QotwWZdI3RKJJf376g4HLGSSJeCbDhgjPOWVRwIY8_vqx9scITXqWmKkQs7VVtNVtdTrjkCoajLAhuLiudrXdHEpWGgiOSrU858OwmHHs3iA3ervuq0kVxGRRC1YFeF-Y7nu-vUUnVvxmy_cHVnw3IEMjmYJO9klhHOuGQpL7vIYGXPsb_sv4-m0NCy5nqOoTaUeMUk3mcuEvI0kqtk8zKYuzI32M6Rsf8fkWARS-l1_GZa6h2nCZo8J3J6MzVQuMj5qeIe3PISeA76NaKxj2dQ4pYoQbuzq8heOteyaNZ1qdZrck3OLSMfoGnVNmPa1mGh79EwgJT0t6SyPuzUxcCiKClSLeOj7C1RE7N3WYgY8kujFHrONtE8gem8UmCngEuN0_t0q2UoTLJbN984w5jUUEAZCf70w8nrX-HmXR9YcnOawGwtJ17wqzHGsqc4C_R7iOeUvuzIGC0XzWgODBRXFy202U45fQC4dVmOWh7VnSjIVsL6-YxrryoyYK-yNVNwlQj0i27yFz_RtF3TG79TreEaHX2uCbJYec9BjeLHcyPHVPH6_OIt0g2Ophl99ktSUNkb196SF9Z5DjzV9F4sxty_IqRdlPnBCpGlyPAEqG9jevdO6UTZoYhXxGF2g5JsgC29nV8am2Ksrebh8yHSAtESt3LCOUgKvkNCw1fwY4fxWwNyod_vaDRki1QAj-BViACe8nOQ1cgIKWB5oz7joyHk6eRTteNZ2_QoJfCZOohsgoESVDJHrYF1DAskpVn5hJza0vRl_fwGKDqLjfdMykWFJhPE15NgZLxpkbxrK3zufwPJAfV9k6w6Ow-M_5QN7PXbwlHvEO-hXs9dFBAxpH7NRMaxOU9EZkRFMtO8z0-7Tju2FuMhq-ujMTkuY5RDmrJTuc7qv_tGrLyf3JtXOnElFEIusMzy0Zberg8iZgTr-LELyUCNO6r88jSih5STqJD79EsgzkfdKAFWR5wixxadGTuOyzAzv_xLTtPkb8z5uAAsq4R_Gze8Xd9GcufpbEAe7IXRqX0Fq-fE8MDO- -oRriwiC85SL7_JSwrpnBxvMhbbAxHHUqbnvKJ97ILI0SLaVPQCfpJtye70FovTJajHH_M-FT-olY0y6xLW7y8T0SqzNgCfEoDgrpCoh_dn10ezJoX0cQXJQHbUCgggr_0G00]--></g></svg>